<svg id="Layer_1" data-name="Layer 1" xmlns="http://www.w3.org/2000/svg" viewBox="0 0 209.97 207.1"><defs><style>.cls-1{fill:#f8d020;}.cls-2{fill:#231f20;}.cls-3{fill:#cb7c29;}.cls-4{fill:#be7429;}.cls-5{fill:#b16d29;}.cls-6{fill:#e5a15a;}.cls-7{fill:#d8d9d8;}.cls-8{fill:#d9d9d8;}.cls-9{fill:#ce6617;}.cls-10{fill:#9e460a;}.cls-11{fill:#f9d9c0;}</style></defs><path class="cls-1" d="M459.41,465.76C430.63,488.82,428,555.55,436.5,590S589.75,650.57,620,621.33s27.87-114.85,3-146.17S501.1,432.35,459.41,465.76Z" transform="translate(-432.26 -445.57)"/><path class="cls-2" d="M574.74,614.47l.59-1-.59.08Z" transform="translate(-432.26 -445.57)"/><path class="cls-2" d="M572.25,614.47v-.59l-.48.07Z" transform="translate(-432.26 -445.57)"/><path class="cls-2" d="M549.13,621.59l2.85-4,8.91-12.61,5.48,5.55c-.84,1.52-1.81,3.26-2.46,4.69a11.5,11.5,0,0,0-.51,1.26,7.09,7.09,0,0,0-.37,4.08l.37,0a2.69,2.69,0,0,1,1.46.43,20.41,20.41,0,0,1,1.51-6.16,30.29,30.29,0,0,1,1.35-2.92L570,614.2l2.21,2.24h3.8l1.9-3.32,3.46-6,1.54,5.44,4.84,17.08a3.36,3.36,0,0,1,2.08-.48l-4.76-16.84-3.84-13.6,7,13.28,3.21,6.1a3.35,3.35,0,0,1,1.93-.89l-2.85-5.44-15.15-28.85-.63.34v-89.3c.58-.44,1.52-1.49.19-3.13-1.73-2.12-3.45-2.08-1.87-3.42l.21-.18a5.11,5.11,0,0,0,1.35-1.49l-.37-.16s.06-1.19-1.51-1.24a5.29,5.29,0,0,0-2.13,1.67l-.11.12c-3.4,4.21.62,3.49,1.75,7.48v91l-24,33.91-1.19,1.69A3.22,3.22,0,0,1,549.13,621.59Zm27.29-32.12,4.23,14.92-5.32,9.07-.59,1V586.25Zm-4.17-.59v25.59l-.48-.52-3.25-3.51c.29-.48.59-1,.93-1.47,1.81-2.7,2-15.28,2-19Zm-2.75,3.89c-.22,2.87-1,13.18-1.54,14.61a16.82,16.82,0,0,1-.78,1.61L562,603.38Z" transform="translate(-432.26 -445.57)"/><path class="cls-2" d="M547.08,620.14a3.05,3.05,0,1,0,2.48,3,2.9,2.9,0,0,0-.43-1.52A3.22,3.22,0,0,0,547.08,620.14Z" transform="translate(-432.26 -445.57)"/><path class="cls-2" d="M590.64,619.2a3.17,3.17,0,1,0,4.27-1.77,3.08,3.08,0,0,0-1.54-.25,3.35,3.35,0,0,0-1.93.89A3.56,3.56,0,0,0,590.64,619.2Z" transform="translate(-432.26 -445.57)"/><path class="cls-2" d="M563,620.52a2.61,2.61,0,1,0,1.83.41,2.69,2.69,0,0,0-1.46-.43Z" transform="translate(-432.26 -445.57)"/><path class="cls-2" d="M587.79,629.61a3.6,3.6,0,0,0-1,.94,3.18,3.18,0,1,0,4.54-.85,3,3,0,0,0-1.45-.57A3.36,3.36,0,0,0,587.79,629.61Z" transform="translate(-432.26 -445.57)"/><path class="cls-2" d="M602.53,631.42l.59-1-.59.08Z" transform="translate(-432.26 -445.57)"/><path class="cls-2" d="M600,631.42v-.58l-.48.06Z" transform="translate(-432.26 -445.57)"/><path class="cls-2" d="M576.92,638.54l2.86-4,8.91-12.6,5.47,5.54c-.84,1.53-1.81,3.27-2.46,4.7-.21.45-.38.88-.51,1.25a7.12,7.12,0,0,0-.37,4.09,2.22,2.22,0,0,1,.37,0,2.62,2.62,0,0,1,1.46.44,20.35,20.35,0,0,1,1.51-6.16,28.22,28.22,0,0,1,1.35-2.92l2.32,2.35,2.21,2.23h3.8l1.91-3.32,3.46-6,1.54,5.44,4.84,17.09a3.25,3.25,0,0,1,2.07-.48l-4.76-16.85-3.84-13.59,7,13.27,3.2,6.11a3.29,3.29,0,0,1,1.93-.89l-2.85-5.44-15.14-28.85-.64.33v-89.3c.58-.43,1.52-1.49.19-3.12-1.72-2.13-3.45-2.09-1.87-3.43l.21-.17a5.13,5.13,0,0,0,1.35-1.5l-.37-.15s.06-1.2-1.51-1.24a5.32,5.32,0,0,0-2.13,1.66l-.1.12c-3.4,4.22.61,3.49,1.74,7.49v90.95l-24,33.92-1.19,1.68A3.2,3.2,0,0,1,576.92,638.54Zm27.3-32.12,4.22,14.92-5.32,9.07-.59,1V603.21Zm-4.18-.59v25.59l-.48-.52-3.25-3.51q.44-.72.93-1.47c1.81-2.7,2-15.28,2-19Zm-2.75,3.9c-.21,2.87-1,13.18-1.54,14.6a14.28,14.28,0,0,1-.77,1.61l-5.19-5.6Z" transform="translate(-432.26 -445.57)"/><path class="cls-2" d="M574.88,637.09a3.31,3.31,0,0,0-.77-.09,3.07,3.07,0,1,0,3.25,3.07,2.88,2.88,0,0,0-.44-1.53A3.2,3.2,0,0,0,574.88,637.09Z" transform="translate(-432.26 -445.57)"/><path class="cls-2" d="M618.43,636.15a3.18,3.18,0,1,0,4.27-1.77,3,3,0,0,0-1.54-.24,3.29,3.29,0,0,0-1.93.89A3.52,3.52,0,0,0,618.43,636.15Z" transform="translate(-432.26 -445.57)"/><path class="cls-2" d="M590.82,637.48a2.57,2.57,0,1,0,.37,0A2.22,2.22,0,0,0,590.82,637.48Z" transform="translate(-432.26 -445.57)"/><path class="cls-2" d="M615.59,646.57a3.46,3.46,0,0,0-1,.93,3.18,3.18,0,1,0,4.55-.85,3.05,3.05,0,0,0-1.46-.56A3.25,3.25,0,0,0,615.59,646.57Z" transform="translate(-432.26 -445.57)"/><path class="cls-3" d="M591.33,477.34H548.47c-23.49,36.14,0,95.65,0,95.65,0,3,9.59,5.35,21.43,5.35s21.43-2.4,21.43-5.35C591.33,573,614.82,513.48,591.33,477.34Z" transform="translate(-432.26 -445.57)"/><path class="cls-4" d="M552.93,573s-23.49-59.51,0-95.65h-4.46c-23.49,36.14,0,95.65,0,95.65,0,3,9.59,5.35,21.43,5.35.75,0,1.5,0,2.23,0C561.35,578,552.93,575.76,552.93,573Z" transform="translate(-432.26 -445.57)"/><path class="cls-4" d="M591.33,477.34h-12.9c23.49,36.14,0,95.65,0,95.65,0,2.39-6.3,4.42-15,5.11,2,.16,4.2.24,6.45.24,11.84,0,21.43-2.4,21.43-5.35C591.33,573,614.82,513.48,591.33,477.34Z" transform="translate(-432.26 -445.57)"/><ellipse class="cls-5" cx="137.64" cy="31.77" rx="21.43" ry="5.36"/><rect class="cls-5" x="116.21" y="28.37" width="42.87" height="3.4"/><ellipse class="cls-3" cx="137.64" cy="28.37" rx="21.43" ry="5.36"/><path class="cls-6" d="M569.9,469.67A64.4,64.4,0,0,0,555,471.2c-4.48,1.12-5.46,2.36-5.46,2.74s1,1.62,5.46,2.74a72.75,72.75,0,0,0,29.78,0c4.48-1.12,5.46-2.36,5.46-2.74s-1-1.62-5.46-2.74A64.4,64.4,0,0,0,569.9,469.67Z" transform="translate(-432.26 -445.57)"/><path class="cls-7" d="M569.9,483.65a70.18,70.18,0,0,1-15.82-1.6c-4.76-1.16-7.18-2.74-7.18-4.71a.95.95,0,1,1,1.9,0c0,.51,1.19,1.77,5.73,2.87a77.47,77.47,0,0,0,30.74,0c4.53-1.1,5.73-2.36,5.73-2.87a.95.95,0,1,1,1.9,0c0,2-2.42,3.55-7.18,4.71A70.18,70.18,0,0,1,569.9,483.65Z" transform="translate(-432.26 -445.57)"/><circle class="cls-7" cx="117.38" cy="36.81" r="2.83"/><circle class="cls-7" cx="127.57" cy="39.64" r="2.83"/><circle class="cls-7" cx="157.91" cy="36.81" r="2.83"/><circle class="cls-7" cx="147.72" cy="39.64" r="2.83"/><circle class="cls-7" cx="137.76" cy="39.64" r="2.83"/><path class="cls-8" d="M570,523.67l-.14-.43c0-.15-.09-.32-.15-.52s-.12-.44-.18-.71c-.14-.52-.29-1.16-.44-1.89s-.31-1.56-.46-2.46c-.29-1.81-.55-3.91-.73-6.16s-.27-4.66-.27-7.06c0-1.21,0-2.41.07-3.59s.11-2.35.19-3.48c.18-2.25.44-4.35.73-6.16.15-.9.31-1.72.46-2.46s.31-1.37.44-1.89c.07-.27.13-.5.19-.7l.15-.52.14-.44.14.44.15.52c.06.2.12.43.19.7.13.52.28,1.16.43,1.89s.31,1.56.46,2.46c.3,1.81.56,3.91.73,6.16.09,1.13.16,2.3.2,3.48s.07,2.38.07,3.59c0,2.4-.09,4.8-.27,7.06s-.44,4.35-.73,6.16c-.15.9-.3,1.73-.46,2.46s-.3,1.37-.44,1.89c-.06.27-.13.5-.18.71s-.11.37-.15.52Z" transform="translate(-432.26 -445.57)"/><path class="cls-8" d="M553,519.76a16.75,16.75,0,0,1-.43-1.65c-.12-.53-.25-1.17-.38-1.92s-.24-1.58-.34-2.51-.18-1.92-.24-3-.07-2.19-.05-3.35a48.69,48.69,0,0,1,.65-7.27A38.73,38.73,0,0,1,554,493a28.72,28.72,0,0,1,1.35-3.12l.38-.71c.13-.23.25-.46.38-.68.27-.44.53-.86.79-1.25a21.33,21.33,0,0,1,1.59-2.05c.26-.28.49-.55.73-.78s.46-.44.67-.62.39-.33.56-.47.31-.24.43-.32l.36-.26-.23.38c-.16.24-.37.61-.64,1.07-.13.23-.28.48-.42.77s-.31.58-.47.91c-.32.65-.66,1.4-1,2.22-.07.21-.17.42-.25.63l-.24.66-.25.69-.23.71c-.32,1-.61,2-.89,3.06-.55,2.14-1,4.45-1.42,6.8-.2,1.17-.37,2.34-.53,3.51s-.3,2.31-.44,3.42-.25,2.2-.36,3.23l-.3,2.92c-.19,1.82-.35,3.33-.46,4.39Z" transform="translate(-432.26 -445.57)"/><path class="cls-8" d="M542.77,512.53s-.17-.49-.37-1.37a32.49,32.49,0,0,1-.62-3.65c0-.38-.08-.78-.12-1.19s-.06-.84-.09-1.28,0-.89,0-1.35,0-.93,0-1.41c0-1,.06-2,.15-3,0-.26.05-.51.07-.76s0-.51.09-.76c.07-.51.13-1,.22-1.53l.14-.76c0-.26.1-.51.15-.76s.1-.51.16-.76l.19-.74a28.25,28.25,0,0,1,.9-2.87c.08-.23.18-.45.27-.67s.18-.45.27-.66l.59-1.25.64-1.15c.22-.36.44-.7.66-1a17,17,0,0,1,1.32-1.68c.22-.23.41-.46.62-.64l.55-.51a4.83,4.83,0,0,1,.47-.39l.35-.26.3-.22-.18.32c-.06.11-.14.24-.23.38l-.14.24q-.08.12-.15.27c-.2.4-.48.84-.72,1.4s-.53,1.16-.81,1.83l-.4,1.07-.39,1.15c-.12.41-.26.81-.38,1.23s-.24.86-.35,1.3c-.22.88-.43,1.8-.62,2.74l-.15.71-.13.71c-.05.24-.1.48-.14.72l-.12.72c-.09.48-.15,1-.23,1.45l-.21,1.45c-.13,1-.26,1.91-.37,2.83s-.21,1.81-.31,2.66l-.26,2.4-.22,2.05-.18,1.58C542.84,512,542.77,512.53,542.77,512.53Z" transform="translate(-432.26 -445.57)"/><path class="cls-8" d="M587.07,519.76s-.08-.62-.19-1.69-.27-2.57-.46-4.39l-.3-2.92c-.11-1-.23-2.11-.36-3.23s-.28-2.26-.44-3.42-.34-2.34-.53-3.51c-.39-2.35-.87-4.66-1.42-6.8-.28-1.07-.57-2.1-.89-3.06l-.24-.71-.24-.69c-.08-.22-.16-.44-.25-.66l-.25-.63c-.33-.82-.67-1.57-1-2.22-.17-.33-.32-.63-.47-.91s-.3-.54-.42-.77c-.27-.46-.49-.83-.64-1.07l-.23-.38.36.26c.12.08.27.19.43.32s.36.29.56.47.43.39.66.62.48.5.74.78a19.84,19.84,0,0,1,1.58,2.05c.27.39.53.81.8,1.25l.38.68.37.71A28.74,28.74,0,0,1,586,493a38.73,38.73,0,0,1,1.86,7.12,48.69,48.69,0,0,1,.65,7.27c0,1.16,0,2.29-.06,3.35s-.13,2.06-.23,3-.22,1.77-.35,2.51-.25,1.39-.37,1.92A16.75,16.75,0,0,1,587.07,519.76Z" transform="translate(-432.26 -445.57)"/><path class="cls-8" d="M597.27,512.53s-.07-.51-.17-1.4l-.18-1.58-.22-2.05c-.09-.74-.17-1.55-.27-2.4s-.19-1.74-.31-2.66-.23-1.87-.36-2.83l-.21-1.45c-.08-.48-.14-1-.23-1.45l-.12-.72c-.05-.24-.09-.48-.14-.72l-.13-.71-.15-.71c-.19-.94-.4-1.86-.63-2.74-.11-.44-.24-.87-.34-1.3s-.26-.82-.38-1.23-.26-.78-.39-1.15l-.4-1.07c-.28-.67-.54-1.3-.81-1.83s-.52-1-.72-1.4l-.15-.27-.15-.24-.22-.38-.18-.32.3.22.35.26a4.83,4.83,0,0,1,.47.39l.55.51c.21.18.4.41.62.64a18.65,18.65,0,0,1,1.32,1.68c.22.33.44.67.66,1s.42.75.63,1.15.4.82.6,1.25q.14.31.27.66c.09.22.19.44.27.67.33.92.64,1.88.9,2.87l.18.74c.06.25.11.51.17.76s.11.5.15.76l.14.76c.09.51.15,1,.22,1.53,0,.25.06.5.09.76s.05.5.07.76c.08,1,.14,2,.15,3,0,.48,0,1,0,1.41s0,.91,0,1.35-.05.87-.08,1.28-.07.81-.12,1.19a35,35,0,0,1-.62,3.65C597.44,512,597.27,512.53,597.27,512.53Z" transform="translate(-432.26 -445.57)"/><path class="cls-3" d="M620.37,491.65H575c-24.85,38.24,0,101.19,0,101.19,0,3.13,10.15,5.67,22.67,5.67s22.68-2.54,22.68-5.67C620.37,592.84,645.22,529.89,620.37,491.65Z" transform="translate(-432.26 -445.57)"/><path class="cls-4" d="M579.74,592.84s-24.85-63,0-101.19H575c-24.85,38.24,0,101.19,0,101.19,0,3.13,10.15,5.67,22.67,5.67.8,0,1.59,0,2.37,0C588.64,598.18,579.74,595.77,579.74,592.84Z" transform="translate(-432.26 -445.57)"/><path class="cls-4" d="M620.37,491.65H606.72c24.85,38.24,0,101.19,0,101.19,0,2.53-6.66,4.68-15.85,5.4,2.15.17,4.44.27,6.82.27,12.53,0,22.68-2.54,22.68-5.67C620.37,592.84,645.22,529.89,620.37,491.65Z" transform="translate(-432.26 -445.57)"/><ellipse class="cls-5" cx="165.44" cy="46.09" rx="22.67" ry="5.67"/><rect class="cls-5" x="142.76" y="42.49" width="45.35" height="3.59"/><ellipse class="cls-3" cx="165.44" cy="42.49" rx="22.67" ry="5.67"/><path class="cls-6" d="M597.69,483.54a68,68,0,0,0-15.75,1.62c-4.74,1.19-5.78,2.49-5.78,2.9s1,1.71,5.78,2.89a77,77,0,0,0,31.51,0c4.73-1.18,5.77-2.49,5.77-2.89s-1-1.71-5.77-2.9A68.09,68.09,0,0,0,597.69,483.54Z" transform="translate(-432.26 -445.57)"/><path class="cls-7" d="M597.69,498.32A74.75,74.75,0,0,1,581,496.64c-5-1.23-7.6-2.91-7.6-5a1,1,0,0,1,2,0c0,.54,1.27,1.87,6.06,3a81.92,81.92,0,0,0,32.52,0c4.8-1.17,6.07-2.5,6.07-3a1,1,0,0,1,2,0c0,2.08-2.55,3.76-7.59,5A74.9,74.9,0,0,1,597.69,498.32Z" transform="translate(-432.26 -445.57)"/><circle class="cls-7" cx="144" cy="51.42" r="2.99"/><circle class="cls-7" cx="154.78" cy="54.41" r="2.99"/><circle class="cls-7" cx="186.88" cy="51.42" r="2.99"/><circle class="cls-7" cx="176.09" cy="54.41" r="2.99"/><circle class="cls-7" cx="165.56" cy="54.41" r="2.99"/><path class="cls-8" d="M597.82,540.66s-.06-.16-.15-.45-.1-.34-.15-.55-.13-.47-.2-.75c-.14-.55-.3-1.23-.46-2s-.33-1.65-.49-2.6c-.31-1.91-.59-4.14-.77-6.52s-.28-4.93-.29-7.47c0-1.27,0-2.55.07-3.8s.12-2.48.21-3.67c.19-2.39.46-4.61.78-6.52.15-.95.32-1.83.48-2.6s.32-1.45.47-2c.07-.28.13-.53.19-.74s.12-.4.16-.55c.09-.3.15-.46.15-.46s.06.16.15.46c0,.15.1.33.15.55s.13.46.2.74c.15.56.3,1.23.47,2s.33,1.65.48,2.6c.32,1.91.59,4.13.78,6.52.09,1.19.16,2.42.21,3.67s.06,2.53.07,3.8c0,2.54-.1,5.08-.29,7.47s-.46,4.61-.77,6.52c-.16,1-.32,1.82-.49,2.6s-.32,1.45-.46,2c-.07.28-.14.53-.2.75s-.11.4-.16.55Z" transform="translate(-432.26 -445.57)"/><path class="cls-8" d="M579.78,536.53s-.21-.63-.45-1.75c-.13-.56-.27-1.24-.4-2s-.26-1.67-.36-2.65-.2-2-.25-3.16-.08-2.31-.06-3.54a50.37,50.37,0,0,1,.69-7.69,41.16,41.16,0,0,1,2-7.53,31.4,31.4,0,0,1,1.44-3.31l.39-.75.41-.72c.28-.46.55-.9.84-1.32a20.89,20.89,0,0,1,1.67-2.16c.28-.3.53-.58.78-.83s.49-.46.7-.65.42-.36.6-.5.32-.26.45-.35l.39-.27-.25.4c-.17.26-.39.65-.67,1.13-.14.25-.3.52-.45.82s-.32.62-.5,1c-.33.7-.69,1.48-1,2.36-.08.22-.18.43-.27.66s-.17.46-.26.7-.17.48-.25.73l-.25.75c-.34,1-.65,2.1-.94,3.23-.59,2.27-1.1,4.72-1.5,7.19-.21,1.24-.4,2.49-.57,3.72s-.32,2.45-.46,3.63-.27,2.32-.38,3.41l-.32,3.08c-.2,1.93-.37,3.53-.49,4.66S579.78,536.53,579.78,536.53Z" transform="translate(-432.26 -445.57)"/><path class="cls-8" d="M569,528.88s-.18-.52-.39-1.44a33.24,33.24,0,0,1-.65-3.87c-.06-.4-.09-.82-.13-1.26s-.07-.89-.09-1.35,0-.94-.05-1.43,0-1,0-1.5c0-1,.07-2.06.15-3.13,0-.27.06-.53.08-.8s.06-.54.1-.81c.07-.53.14-1.08.23-1.61l.14-.81c0-.27.11-.54.17-.8s.11-.54.17-.8l.2-.79c.27-1,.6-2.06,1-3,.08-.24.19-.48.28-.71s.2-.47.29-.7q.32-.69.63-1.32c.23-.42.45-.83.67-1.22l.7-1.09a17.66,17.66,0,0,1,1.4-1.77,8.61,8.61,0,0,1,.65-.68c.21-.2.4-.39.58-.55s.35-.28.5-.4.27-.21.38-.28l.31-.23-.19.34-.24.4-.15.25a2,2,0,0,0-.16.29c-.21.42-.5.89-.76,1.48s-.56,1.23-.86,1.94l-.43,1.13-.41,1.22c-.12.42-.27.85-.39,1.3s-.26.9-.37,1.37c-.24.93-.47,1.9-.67,2.9l-.15.75-.14.75c-.05.26-.1.51-.14.76l-.13.77c-.1.51-.16,1-.25,1.53s-.15,1-.22,1.53c-.14,1-.27,2-.39,3s-.22,1.92-.32,2.82l-.28,2.54-.24,2.16c-.07.65-.14,1.22-.19,1.68C569.06,528.34,569,528.88,569,528.88Z" transform="translate(-432.26 -445.57)"/><path class="cls-8" d="M615.86,536.53s-.08-.65-.2-1.78-.29-2.73-.49-4.66l-.32-3.08c-.11-1.09-.24-2.23-.38-3.41s-.29-2.4-.46-3.63-.36-2.48-.57-3.72c-.4-2.47-.92-4.92-1.5-7.19-.29-1.13-.6-2.21-.94-3.23-.08-.26-.17-.51-.25-.75s-.18-.49-.26-.73-.17-.47-.26-.7-.18-.44-.26-.66c-.35-.88-.71-1.66-1.05-2.36-.17-.34-.33-.67-.49-1s-.31-.57-.45-.82l-.67-1.13-.25-.4.39.27c.13.09.28.21.45.35s.38.3.6.5.45.4.7.65.5.53.78.83a20.89,20.89,0,0,1,1.67,2.16c.29.42.56.86.84,1.32.14.24.27.48.4.72l.4.75a31.4,31.4,0,0,1,1.44,3.31,41.16,41.16,0,0,1,2,7.53,51.67,51.67,0,0,1,.69,7.69c0,1.23,0,2.42-.06,3.54s-.14,2.19-.25,3.16-.23,1.87-.36,2.65-.27,1.47-.4,2C616.06,535.9,615.86,536.53,615.86,536.53Z" transform="translate(-432.26 -445.57)"/><path class="cls-8" d="M626.65,528.88s-.07-.54-.18-1.48l-.19-1.68-.24-2.16c-.08-.78-.18-1.64-.28-2.54s-.2-1.84-.32-2.82-.25-2-.39-3c-.07-.51-.15-1-.22-1.53s-.15-1-.25-1.53l-.13-.77c0-.25-.09-.5-.14-.76l-.14-.75-.15-.75c-.2-1-.43-2-.67-2.9-.11-.47-.25-.92-.37-1.37s-.27-.88-.39-1.3l-.41-1.22-.43-1.13c-.3-.71-.57-1.38-.86-1.94s-.55-1.06-.76-1.48a2,2,0,0,0-.16-.29l-.15-.25c-.1-.15-.17-.29-.24-.4l-.19-.34.31.23c.11.07.23.17.38.28s.33.24.5.4.37.35.58.55a8.61,8.61,0,0,1,.65.68,17.66,17.66,0,0,1,1.4,1.77l.7,1.09c.22.39.44.8.67,1.22s.42.86.63,1.32c.09.23.19.46.29.7s.2.47.28.71c.35,1,.68,2,1,3l.2.79c.06.26.11.53.17.8s.12.53.17.8l.14.81c.09.53.16,1.08.23,1.61,0,.27.06.54.09.81s.06.53.08.8c.09,1.07.15,2.12.16,3.13,0,.51,0,1,0,1.5s0,1-.05,1.43,0,.92-.09,1.35-.08.86-.13,1.26a35.54,35.54,0,0,1-.65,3.87C626.83,528.36,626.65,528.88,626.65,528.88Z" transform="translate(-432.26 -445.57)"/><path class="cls-2" d="M493.84,633.62l.37-.64-.37,0Z" transform="translate(-432.26 -445.57)"/><path class="cls-2" d="M492.27,633.62v-.37l-.3,0Z" transform="translate(-432.26 -445.57)"/><path class="cls-2" d="M477.74,638.09l1.79-2.54,5.6-7.92,3.45,3.48c-.53,1-1.14,2.06-1.55,2.95-.13.29-.24.56-.32.79a4.4,4.4,0,0,0-.23,2.57h.23a1.71,1.71,0,0,1,.92.27,12.61,12.61,0,0,1,.95-3.87,16.19,16.19,0,0,1,.85-1.84l1.46,1.48,1.38,1.4h2.4l1.19-2.08L498,629l1,3.42,3,10.75a2,2,0,0,1,1.3-.3l-3-10.59-2.42-8.55,4.38,8.34,2,3.84a2.12,2.12,0,0,1,1.21-.56l-1.79-3.42-9.52-18.14-.4.21V557.82a1.22,1.22,0,0,0,.12-2c-1.09-1.34-2.17-1.31-1.18-2.16l.14-.1a3.1,3.1,0,0,0,.84-1l-.23-.09s0-.76-.95-.78a3.33,3.33,0,0,0-1.34,1l-.06.08c-2.14,2.65.38,2.19,1.09,4.7v57.19L477.2,636.12l-.75,1.06A2.07,2.07,0,0,1,477.74,638.09ZM494.9,617.9l2.66,9.38-3.35,5.7-.37.64V615.88Zm-2.63-.37v16.09l-.3-.33-2-2.21c.18-.3.37-.61.58-.92,1.14-1.7,1.27-9.61,1.28-12ZM490.54,620c-.13,1.81-.63,8.29-1,9.19a10.72,10.72,0,0,1-.49,1l-3.26-3.53Z" transform="translate(-432.26 -445.57)"/><path class="cls-2" d="M476.45,637.18a1.91,1.91,0,0,0-.48-.06,1.93,1.93,0,1,0,2,1.93,1.85,1.85,0,0,0-.27-1A2.07,2.07,0,0,0,476.45,637.18Z" transform="translate(-432.26 -445.57)"/><path class="cls-2" d="M503.84,636.59a2,2,0,1,0,2.68-1.11,1.92,1.92,0,0,0-1-.16,2.13,2.13,0,0,0-1.71,1.27Z" transform="translate(-432.26 -445.57)"/><path class="cls-2" d="M486.48,637.42a1.64,1.64,0,1,0,1.15.26,1.71,1.71,0,0,0-.92-.27Z" transform="translate(-432.26 -445.57)"/><path class="cls-2" d="M502.05,643.14a2.1,2.1,0,0,0-.64.59,2,2,0,1,0,2.86-.54,1.86,1.86,0,0,0-.92-.35A2,2,0,0,0,502.05,643.14Z" transform="translate(-432.26 -445.57)"/><rect class="cls-9" x="47.3" y="102.63" width="30.39" height="9.22"/><rect class="cls-10" x="62.6" y="102.63" width="15.1" height="9.22"/><path class="cls-11" d="M21.48,87H54.12a4.42,4.42,0,0,1,4.42,4.42v0a0,0,0,0,1,0,0H17.05a0,0,0,0,1,0,0v0A4.42,4.42,0,0,1,21.48,87Z"/><path class="cls-9" d="M482.32,568.21H457.79a2.82,2.82,0,0,1-2.78-2.39L450.68,537h38.75l-4.34,28.85A2.81,2.81,0,0,1,482.32,568.21Z" transform="translate(-432.26 -445.57)"/><path class="cls-10" d="M485,564H455.12l-.38,0,.27,1.83a2.82,2.82,0,0,0,2.78,2.39h24.53a2.81,2.81,0,0,0,2.77-2.39l.28-1.83Z" transform="translate(-432.26 -445.57)"/><rect class="cls-10" x="14.99" y="91.2" width="45.62" height="3.15" rx="1.57"/><path class="cls-11" d="M488.28,532.55h-18V537H490.8v-1.9A2.52,2.52,0,0,0,488.28,532.55Z" transform="translate(-432.26 -445.57)"/><path class="cls-9" d="M470.31,537v31.24h12a2.81,2.81,0,0,0,2.77-2.39L489.43,537Z" transform="translate(-432.26 -445.57)"/><path class="cls-10" d="M485,564H470.31v4.2h12a2.81,2.81,0,0,0,2.77-2.39l.28-1.83Z" transform="translate(-432.26 -445.57)"/><path class="cls-10" d="M491.32,536.77h-21v3.14h21a1.54,1.54,0,0,0,1.54-1.54v-.06A1.54,1.54,0,0,0,491.32,536.77Z" transform="translate(-432.26 -445.57)"/><polygon class="cls-10" points="30.02 118.56 25.71 93.41 23.49 93.41 27.8 118.56 30.02 118.56"/><polygon class="cls-10" points="44.44 118.56 48.74 93.41 50.96 93.41 46.65 118.56 44.44 118.56"/><path class="cls-11" d="M70.41,91.34H99.06a3.88,3.88,0,0,1,3.88,3.88v0a0,0,0,0,1,0,0H66.53a0,0,0,0,1,0,0v0A3.88,3.88,0,0,1,70.41,91.34Z"/><path class="cls-9" d="M527.76,568.21H506.23a2.46,2.46,0,0,1-2.44-2.1L500,540.79h34l-3.81,25.32A2.46,2.46,0,0,1,527.76,568.21Z" transform="translate(-432.26 -445.57)"/><path class="cls-10" d="M530.09,564.53h-26.2l-.34,0,.24,1.6a2.46,2.46,0,0,0,2.44,2.1h21.53a2.46,2.46,0,0,0,2.43-2.1l.24-1.6Z" transform="translate(-432.26 -445.57)"/><rect class="cls-10" x="64.72" y="95.04" width="40.04" height="2.76" rx="1.38"/><path class="cls-11" d="M533,536.91H517.22v3.88h18v-1.67A2.21,2.21,0,0,0,533,536.91Z" transform="translate(-432.26 -445.57)"/><path class="cls-9" d="M517.22,540.79v27.42h10.54a2.46,2.46,0,0,0,2.43-2.1L534,540.79Z" transform="translate(-432.26 -445.57)"/><path class="cls-10" d="M530.09,564.53H517.22v3.68h10.54a2.46,2.46,0,0,0,2.43-2.1l.24-1.6Z" transform="translate(-432.26 -445.57)"/><path class="cls-10" d="M535.66,540.61H517.22v2.76h18.44A1.34,1.34,0,0,0,537,542V542A1.35,1.35,0,0,0,535.66,540.61Z" transform="translate(-432.26 -445.57)"/><polygon class="cls-10" points="77.91 119.06 74.13 96.98 72.18 96.98 75.96 119.06 77.91 119.06"/><polygon class="cls-10" points="90.56 119.06 94.34 96.98 96.29 96.98 92.51 119.06 90.56 119.06"/></svg>