<svg id="Layer_1" data-name="Layer 1" xmlns="http://www.w3.org/2000/svg" viewBox="0 0 220.5 188.4"><defs><style>.cls-1{fill:#ffd205;}.cls-2{fill:#6d6e71;}.cls-3{fill:#333;}.cls-4{fill:#fff;}.cls-5{fill:#231f20;}</style></defs><path class="cls-1" d="M460.75,464.3c-28.78,23.07-31.4,89.8-22.91,124.25s153.25,60.56,183.54,31.32,27.87-114.85,3-146.17S502.44,430.89,460.75,464.3Z" transform="translate(-428.33 -444.11)"/><path class="cls-2" d="M648.83,569.36H428.33v-62.1h220.5v62.1Z" transform="translate(-428.33 -444.11)"/><rect class="cls-3" y="121.63" width="220.5" height="3.62"/><rect class="cls-4" x="7.05" y="90.51" width="7.57" height="27.77"/><rect class="cls-4" x="15.68" y="90.51" width="7.57" height="27.77"/><rect class="cls-4" x="24.31" y="90.51" width="7.57" height="27.77"/><rect class="cls-4" x="32.94" y="90.51" width="7.57" height="27.77"/><rect class="cls-4" x="41.57" y="90.51" width="7.57" height="27.77"/><rect class="cls-4" x="50.19" y="90.51" width="7.57" height="27.77"/><rect class="cls-4" x="58.82" y="90.51" width="7.57" height="27.77"/><rect class="cls-4" x="67.45" y="90.51" width="7.57" height="27.77"/><rect class="cls-5" x="12.55" y="90.51" width="5.16" height="17.12"/><rect class="cls-5" x="21.2" y="90.51" width="5.16" height="17.12"/><rect class="cls-5" x="38.49" y="90.51" width="5.16" height="17.12"/><rect class="cls-5" x="47.14" y="90.51" width="5.16" height="17.12"/><rect class="cls-5" x="55.79" y="90.51" width="5.16" height="17.12"/><rect class="cls-4" x="76.27" y="90.51" width="7.57" height="27.77"/><rect class="cls-4" x="84.9" y="90.51" width="7.57" height="27.77"/><rect class="cls-4" x="93.52" y="90.51" width="7.57" height="27.77"/><rect class="cls-4" x="102.15" y="90.51" width="7.57" height="27.77"/><rect class="cls-4" x="110.78" y="90.51" width="7.57" height="27.77"/><rect class="cls-4" x="119.41" y="90.51" width="7.57" height="27.77"/><rect class="cls-4" x="128.04" y="90.51" width="7.57" height="27.77"/><rect class="cls-4" x="136.67" y="90.51" width="7.57" height="27.77"/><rect class="cls-5" x="72.93" y="90.51" width="5.16" height="17.12"/><rect class="cls-5" x="81.58" y="90.51" width="5.16" height="17.12"/><rect class="cls-5" x="98.87" y="90.51" width="5.16" height="17.12"/><rect class="cls-5" x="107.52" y="90.51" width="5.16" height="17.12"/><rect class="cls-5" x="116.17" y="90.51" width="5.16" height="17.12"/><rect class="cls-5" x="124.82" y="90.51" width="5.16" height="17.12"/><rect class="cls-4" x="145.48" y="90.51" width="7.57" height="27.77"/><rect class="cls-4" x="154.11" y="90.51" width="7.57" height="27.77"/><rect class="cls-4" x="162.74" y="90.51" width="7.57" height="27.77"/><rect class="cls-4" x="171.37" y="90.51" width="7.57" height="27.77"/><rect class="cls-4" x="180" y="90.51" width="7.57" height="27.77"/><rect class="cls-4" x="188.63" y="90.51" width="7.57" height="27.77"/><rect class="cls-4" x="197.25" y="90.51" width="7.57" height="27.77"/><rect class="cls-4" x="205.88" y="90.51" width="7.57" height="27.77"/><rect class="cls-5" x="142.56" y="90.51" width="5.16" height="17.12"/><rect class="cls-5" x="151.21" y="90.51" width="5.16" height="17.12"/><rect class="cls-5" x="168.51" y="90.51" width="5.16" height="17.12"/><rect class="cls-5" x="177.16" y="90.51" width="5.16" height="17.12"/><rect class="cls-5" x="185.8" y="90.51" width="5.16" height="17.12"/><rect class="cls-5" x="194.45" y="90.51" width="5.16" height="17.12"/><path class="cls-3" d="M465.29,525.67H442.07a6.7,6.7,0,0,1-6.69-6.69h0a6.7,6.7,0,0,1,6.69-6.7h23.22A6.69,6.69,0,0,1,472,519h0A6.69,6.69,0,0,1,465.29,525.67Z" transform="translate(-428.33 -444.11)"/><path class="cls-3" d="M484.12,519a1.82,1.82,0,1,1-1.81-1.82A1.81,1.81,0,0,1,484.12,519Z" transform="translate(-428.33 -444.11)"/><path class="cls-3" d="M494.58,519a1.81,1.81,0,1,1-1.81-1.82A1.81,1.81,0,0,1,494.58,519Z" transform="translate(-428.33 -444.11)"/><path class="cls-3" d="M505.05,519a1.82,1.82,0,1,1-1.82-1.82A1.82,1.82,0,0,1,505.05,519Z" transform="translate(-428.33 -444.11)"/><path class="cls-3" d="M515.51,519a1.82,1.82,0,1,1-1.82-1.82A1.82,1.82,0,0,1,515.51,519Z" transform="translate(-428.33 -444.11)"/><path class="cls-3" d="M526,519a1.82,1.82,0,1,1-1.82-1.82A1.81,1.81,0,0,1,526,519Z" transform="translate(-428.33 -444.11)"/><path class="cls-3" d="M536.43,519a1.82,1.82,0,1,1-1.81-1.82A1.81,1.81,0,0,1,536.43,519Z" transform="translate(-428.33 -444.11)"/><path class="cls-3" d="M546.89,519a1.82,1.82,0,1,1-1.81-1.82A1.81,1.81,0,0,1,546.89,519Z" transform="translate(-428.33 -444.11)"/><path class="cls-3" d="M557.35,519a1.81,1.81,0,1,1-1.81-1.82A1.81,1.81,0,0,1,557.35,519Z" transform="translate(-428.33 -444.11)"/><path class="cls-3" d="M567.82,519a1.82,1.82,0,1,1-1.82-1.82A1.82,1.82,0,0,1,567.82,519Z" transform="translate(-428.33 -444.11)"/><path class="cls-3" d="M578.28,519a1.82,1.82,0,1,1-1.82-1.82A1.82,1.82,0,0,1,578.28,519Z" transform="translate(-428.33 -444.11)"/><path class="cls-3" d="M589.77,514.1a1.81,1.81,0,1,1-1.81-1.82A1.81,1.81,0,0,1,589.77,514.1Z" transform="translate(-428.33 -444.11)"/><path class="cls-3" d="M589.77,522.85A1.81,1.81,0,1,1,588,521,1.81,1.81,0,0,1,589.77,522.85Z" transform="translate(-428.33 -444.11)"/><path class="cls-3" d="M600.45,514.1a1.82,1.82,0,1,1-1.81-1.82A1.81,1.81,0,0,1,600.45,514.1Z" transform="translate(-428.33 -444.11)"/><path class="cls-3" d="M600.45,522.85a1.82,1.82,0,1,1-1.81-1.81A1.81,1.81,0,0,1,600.45,522.85Z" transform="translate(-428.33 -444.11)"/><circle class="cls-3" cx="180.98" cy="69.99" r="1.81"/><path class="cls-3" d="M611.13,522.85a1.82,1.82,0,1,1-1.82-1.81A1.82,1.82,0,0,1,611.13,522.85Z" transform="translate(-428.33 -444.11)"/><path class="cls-3" d="M621.8,514.1a1.82,1.82,0,1,1-1.81-1.82A1.81,1.81,0,0,1,621.8,514.1Z" transform="translate(-428.33 -444.11)"/><path class="cls-3" d="M621.8,522.85A1.82,1.82,0,1,1,620,521,1.81,1.81,0,0,1,621.8,522.85Z" transform="translate(-428.33 -444.11)"/><path class="cls-3" d="M632.48,514.1a1.82,1.82,0,1,1-1.82-1.82A1.81,1.81,0,0,1,632.48,514.1Z" transform="translate(-428.33 -444.11)"/><path class="cls-3" d="M632.48,522.85a1.82,1.82,0,1,1-1.82-1.81A1.81,1.81,0,0,1,632.48,522.85Z" transform="translate(-428.33 -444.11)"/></svg>