<svg id="Layer_1" data-name="Layer 1" xmlns="http://www.w3.org/2000/svg" xmlns:xlink="http://www.w3.org/1999/xlink" viewBox="0 0 214.26 209.58"><defs><style>.cls-1{mask:url(#mask);}.cls-2{mix-blend-mode:multiply;fill:url(#linear-gradient);}.cls-3{fill:#ffeebf;}.cls-4{fill:url(#linear-gradient-2);}.cls-5{fill:url(#linear-gradient-3);}.cls-6{fill:url(#linear-gradient-4);}.cls-7{fill:url(#linear-gradient-5);}.cls-8{fill:url(#linear-gradient-6);}.cls-9{fill:url(#linear-gradient-7);}.cls-10{fill:url(#linear-gradient-8);}.cls-11{fill:url(#linear-gradient-9);}.cls-12{fill:#d1d3d4;}.cls-13{mask:url(#mask-2);}.cls-14{fill:url(#linear-gradient-10);}.cls-15{fill:url(#linear-gradient-11);}.cls-16{fill:url(#linear-gradient-12);}.cls-17{fill:url(#linear-gradient-13);}.cls-18{fill:url(#linear-gradient-14);}.cls-19{fill:url(#linear-gradient-15);}.cls-20{fill:url(#linear-gradient-16);}.cls-21{fill:url(#linear-gradient-17);}.cls-22{fill:url(#linear-gradient-18);}.cls-23{fill:url(#linear-gradient-19);}.cls-24{fill:url(#linear-gradient-20);}.cls-25{fill:url(#linear-gradient-21);}.cls-26{fill:url(#linear-gradient-22);}.cls-27{fill:url(#linear-gradient-23);}.cls-28{fill:url(#linear-gradient-24);}.cls-29{fill:url(#linear-gradient-25);}.cls-30{fill:url(#linear-gradient-26);}.cls-31{fill:url(#linear-gradient-27);}.cls-32{fill:url(#linear-gradient-28);}.cls-33{fill:url(#linear-gradient-29);}.cls-34{fill:url(#linear-gradient-30);}.cls-35{fill:url(#linear-gradient-31);}.cls-36{fill:url(#linear-gradient-32);}.cls-37{fill:url(#linear-gradient-33);}.cls-38{fill:url(#linear-gradient-34);}.cls-39{fill:url(#linear-gradient-35);}.cls-40{fill:url(#linear-gradient-36);}.cls-41{fill:url(#linear-gradient-37);}.cls-42{fill:url(#linear-gradient-38);}.cls-43{fill:url(#linear-gradient-39);}.cls-44{fill:url(#linear-gradient-40);}.cls-45{fill:url(#linear-gradient-41);}.cls-46{fill:url(#linear-gradient-42);}.cls-47{fill:url(#linear-gradient-43);}.cls-48{fill:url(#linear-gradient-44);}.cls-49{fill:url(#linear-gradient-45);}.cls-50{fill:url(#linear-gradient-46);}.cls-51{fill:url(#linear-gradient-47);}.cls-52{fill:url(#linear-gradient-48);}.cls-53{fill:url(#linear-gradient-49);}.cls-54{fill:url(#linear-gradient-50);}.cls-55{fill:url(#linear-gradient-51);}.cls-56{fill:url(#linear-gradient-52);}.cls-57{fill:url(#linear-gradient-53);}.cls-58{fill:url(#linear-gradient-54);}.cls-59{filter:url(#luminosity-noclip-2);}.cls-60{filter:url(#luminosity-noclip);}</style><filter id="luminosity-noclip" x="442.72" y="-8732" width="190.15" height="32766" filterUnits="userSpaceOnUse" color-interpolation-filters="sRGB"><feFlood flood-color="#fff" result="bg"/><feBlend in="SourceGraphic" in2="bg"/></filter><mask id="mask" x="442.72" y="-8732" width="190.15" height="32766" maskUnits="userSpaceOnUse"><g class="cls-60"/></mask><linearGradient id="linear-gradient" x1="685.18" y1="324.18" x2="685.18" y2="328.44" gradientTransform="matrix(0.7, -0.72, 0.72, 0.7, -173.66, 814.36)" gradientUnits="userSpaceOnUse"><stop offset="0" stop-color="#fff"/><stop offset="0.07" stop-color="#f8f8f8"/><stop offset="0.17" stop-color="#e6e6e6"/><stop offset="0.28" stop-color="#c8c8c8"/><stop offset="0.41" stop-color="#9e9e9e"/><stop offset="0.55" stop-color="#686868"/><stop offset="0.69" stop-color="#272727"/><stop offset="0.77"/></linearGradient><linearGradient id="linear-gradient-2" x1="651.21" y1="320.91" x2="651.21" y2="323" gradientTransform="matrix(0.7, -0.72, 0.72, 0.7, -173.66, 814.36)" gradientUnits="userSpaceOnUse"><stop offset="0" stop-color="#989398"/><stop offset="0.31" stop-color="#f8f8f8"/><stop offset="0.41" stop-color="#eae9ea"/><stop offset="0.61" stop-color="#c5c2c4"/><stop offset="0.88" stop-color="#8c878a"/></linearGradient><linearGradient id="linear-gradient-3" x1="582.19" y1="319.42" x2="582.19" y2="322.71" xlink:href="#linear-gradient-2"/><linearGradient id="linear-gradient-4" x1="593.48" y1="331.62" x2="593.48" y2="321.81" gradientTransform="matrix(0.7, -0.72, 0.72, 0.7, -173.66, 814.36)" gradientUnits="userSpaceOnUse"><stop offset="0.15" stop-color="#989398"/><stop offset="0.52" stop-color="#f8f8f8"/><stop offset="0.59" stop-color="#eae9ea"/><stop offset="0.71" stop-color="#c5c2c4"/><stop offset="0.88" stop-color="#8c878a"/></linearGradient><linearGradient id="linear-gradient-5" x1="593.49" y1="323.45" x2="593.49" y2="317.55" xlink:href="#linear-gradient-2"/><linearGradient id="linear-gradient-6" x1="580.85" y1="331.61" x2="580.85" y2="321.81" xlink:href="#linear-gradient-4"/><linearGradient id="linear-gradient-7" x1="580.85" y1="323.44" x2="580.85" y2="317.54" xlink:href="#linear-gradient-2"/><linearGradient id="linear-gradient-8" x1="567.19" y1="331.61" x2="567.19" y2="321.81" xlink:href="#linear-gradient-4"/><linearGradient id="linear-gradient-9" x1="567.19" y1="323.44" x2="567.19" y2="317.54" xlink:href="#linear-gradient-2"/><filter id="luminosity-noclip-2" x="442.72" y="452.28" width="190.15" height="195.65" filterUnits="userSpaceOnUse" color-interpolation-filters="sRGB"><feFlood flood-color="#fff" result="bg"/><feBlend in="SourceGraphic" in2="bg"/></filter><mask id="mask-2" x="11.82" y="10.56" width="190.15" height="195.65" maskUnits="userSpaceOnUse"><g class="cls-59"><g transform="translate(-430.9 -441.72)"><g class="cls-1"><path class="cls-2" d="M631.86,453.22a2.56,2.56,0,0,0-3.29-.55v0l-185.4,191h0c-.76.82-.51,2.32.57,3.37s2.59,1.25,3.4.48h0l185.39-191,0,0A2.56,2.56,0,0,0,631.86,453.22Z"/></g></g></g></mask><linearGradient id="linear-gradient-10" x1="685.18" y1="324.18" x2="685.18" y2="328.44" gradientTransform="matrix(0.7, -0.72, 0.72, 0.7, -173.66, 814.36)" gradientUnits="userSpaceOnUse"><stop offset="0" stop-color="#fff"/><stop offset="0.77" stop-color="#fff"/></linearGradient><linearGradient id="linear-gradient-11" x1="737.3" y1="327.16" x2="742.79" y2="327.16" gradientTransform="matrix(0.7, -0.72, 0.72, 0.7, -173.66, 814.36)" gradientUnits="userSpaceOnUse"><stop offset="0" stop-color="#989398"/><stop offset="0.31" stop-color="#f8f8f8"/><stop offset="0.38" stop-color="#eae9ea"/><stop offset="0.51" stop-color="#c5c2c4"/><stop offset="0.68" stop-color="#8c878a"/><stop offset="1" stop-color="#151413"/></linearGradient><linearGradient id="linear-gradient-12" x1="818.13" y1="327.7" x2="820.32" y2="327.7" xlink:href="#linear-gradient-11"/><linearGradient id="linear-gradient-13" x1="720.86" y1="327.16" x2="725.62" y2="327.16" xlink:href="#linear-gradient-11"/><linearGradient id="linear-gradient-14" x1="556.04" y1="327.15" x2="558.43" y2="327.15" xlink:href="#linear-gradient-11"/><linearGradient id="linear-gradient-15" x1="600.61" y1="327.16" x2="602.83" y2="327.16" xlink:href="#linear-gradient-11"/><linearGradient id="linear-gradient-16" x1="607.75" y1="321.13" x2="607.75" y2="324.72" xlink:href="#linear-gradient-4"/><linearGradient id="linear-gradient-17" x1="608.05" y1="326.7" x2="607.34" y2="318.25" xlink:href="#linear-gradient-4"/><linearGradient id="linear-gradient-18" x1="607.75" y1="318.94" x2="607.75" y2="322.99" xlink:href="#linear-gradient-4"/><linearGradient id="linear-gradient-19" x1="607.75" y1="317.93" x2="607.75" y2="327.63" xlink:href="#linear-gradient-4"/><linearGradient id="linear-gradient-20" x1="617.56" y1="321.13" x2="617.56" y2="324.72" xlink:href="#linear-gradient-4"/><linearGradient id="linear-gradient-21" x1="617.86" y1="326.7" x2="617.15" y2="318.25" xlink:href="#linear-gradient-4"/><linearGradient id="linear-gradient-22" x1="617.55" y1="319.72" x2="617.55" y2="323.78" xlink:href="#linear-gradient-4"/><linearGradient id="linear-gradient-23" x1="617.55" y1="317.94" x2="617.55" y2="327.62" xlink:href="#linear-gradient-4"/><linearGradient id="linear-gradient-24" x1="627.36" y1="321.13" x2="627.36" y2="324.72" xlink:href="#linear-gradient-4"/><linearGradient id="linear-gradient-25" x1="627.66" y1="326.7" x2="626.95" y2="318.26" xlink:href="#linear-gradient-4"/><linearGradient id="linear-gradient-26" x1="627.36" y1="319.73" x2="627.36" y2="323.78" xlink:href="#linear-gradient-4"/><linearGradient id="linear-gradient-27" x1="627.36" y1="317.95" x2="627.36" y2="327.6" xlink:href="#linear-gradient-4"/><linearGradient id="linear-gradient-28" x1="637.17" y1="321.12" x2="637.17" y2="324.73" xlink:href="#linear-gradient-4"/><linearGradient id="linear-gradient-29" x1="637.46" y1="326.7" x2="636.76" y2="318.25" xlink:href="#linear-gradient-4"/><linearGradient id="linear-gradient-30" x1="637.17" y1="319.73" x2="637.17" y2="323.78" xlink:href="#linear-gradient-4"/><linearGradient id="linear-gradient-31" x1="637.17" y1="317.94" x2="637.17" y2="327.62" xlink:href="#linear-gradient-4"/><linearGradient id="linear-gradient-32" x1="646.97" y1="321.14" x2="646.97" y2="324.73" xlink:href="#linear-gradient-4"/><linearGradient id="linear-gradient-33" x1="647.27" y1="326.71" x2="646.56" y2="318.25" xlink:href="#linear-gradient-4"/><linearGradient id="linear-gradient-34" x1="646.97" y1="319.73" x2="646.97" y2="323.78" xlink:href="#linear-gradient-4"/><linearGradient id="linear-gradient-35" x1="646.97" y1="317.95" x2="646.97" y2="327.61" xlink:href="#linear-gradient-4"/><linearGradient id="linear-gradient-36" x1="656.78" y1="321.12" x2="656.78" y2="324.73" xlink:href="#linear-gradient-4"/><linearGradient id="linear-gradient-37" x1="657.08" y1="326.7" x2="656.37" y2="318.26" xlink:href="#linear-gradient-4"/><linearGradient id="linear-gradient-38" x1="656.78" y1="319.73" x2="656.78" y2="323.79" xlink:href="#linear-gradient-4"/><linearGradient id="linear-gradient-39" x1="656.78" y1="317.95" x2="656.78" y2="327.6" xlink:href="#linear-gradient-4"/><linearGradient id="linear-gradient-40" x1="666.59" y1="321.13" x2="666.59" y2="324.73" xlink:href="#linear-gradient-4"/><linearGradient id="linear-gradient-41" x1="666.89" y1="326.7" x2="666.18" y2="318.26" xlink:href="#linear-gradient-4"/><linearGradient id="linear-gradient-42" x1="666.59" y1="319.73" x2="666.59" y2="323.78" xlink:href="#linear-gradient-4"/><linearGradient id="linear-gradient-43" x1="666.58" y1="317.95" x2="666.58" y2="327.61" xlink:href="#linear-gradient-4"/><linearGradient id="linear-gradient-44" x1="679.07" y1="321.13" x2="679.07" y2="324.73" xlink:href="#linear-gradient-4"/><linearGradient id="linear-gradient-45" x1="679.37" y1="326.7" x2="678.66" y2="318.25" xlink:href="#linear-gradient-4"/><linearGradient id="linear-gradient-46" x1="679.07" y1="319.73" x2="679.07" y2="323.78" xlink:href="#linear-gradient-4"/><linearGradient id="linear-gradient-47" x1="679.07" y1="317.95" x2="679.07" y2="327.61" xlink:href="#linear-gradient-4"/><linearGradient id="linear-gradient-48" x1="693.13" y1="321.13" x2="693.13" y2="324.72" xlink:href="#linear-gradient-4"/><linearGradient id="linear-gradient-49" x1="693.43" y1="326.7" x2="692.72" y2="318.25" xlink:href="#linear-gradient-4"/><linearGradient id="linear-gradient-50" x1="693.13" y1="319.72" x2="693.13" y2="323.78" xlink:href="#linear-gradient-4"/><linearGradient id="linear-gradient-51" x1="693.13" y1="317.94" x2="693.13" y2="327.62" xlink:href="#linear-gradient-4"/><linearGradient id="linear-gradient-52" x1="787.72" y1="319.73" x2="787.72" y2="326.96" xlink:href="#linear-gradient-11"/><linearGradient id="linear-gradient-53" x1="766.66" y1="292.41" x2="797.32" y2="292.41" gradientTransform="translate(-203.36 676) rotate(-34.49)" xlink:href="#linear-gradient-10"/><linearGradient id="linear-gradient-54" x1="589.49" y1="321.48" x2="595.55" y2="329.47" xlink:href="#linear-gradient-11"/></defs><path class="cls-3" d="M458.61,462.32c-29.37,23.54-32,91.63-23.38,126.79s156.38,61.79,187.29,32S651,503.88,625.61,471.91,501.15,428.23,458.61,462.32Z" transform="translate(-430.9 -441.72)"/><path class="cls-4" d="M545.05,537.91c.39.39.1,1.32-.65,2.09l-63.84,65.76c-.74.76-1.67,1.08-2.06.7h0c-.39-.38-.11-1.32.64-2.09L543,538.62c.75-.77,1.67-1.09,2.07-.71Z" transform="translate(-430.9 -441.72)"/><path class="cls-5" d="M475.74,607.92a.78.78,0,0,1,.07,1.11l-24.42,25.16a.8.8,0,0,1-1.12-.05h0a.81.81,0,0,1-.08-1.12l24.42-25.15a.8.8,0,0,1,1.13,0Z" transform="translate(-430.9 -441.72)"/><path class="cls-6" d="M474.79,611.54a3.73,3.73,0,1,1-5.27.08A3.73,3.73,0,0,1,474.79,611.54Z" transform="translate(-430.9 -441.72)"/><path class="cls-7" d="M474.9,612a3.49,3.49,0,1,1-4.93.08A3.49,3.49,0,0,1,474.9,612Z" transform="translate(-430.9 -441.72)"/><path class="cls-8" d="M466,620.6a3.73,3.73,0,1,1-5.27.07A3.73,3.73,0,0,1,466,620.6Z" transform="translate(-430.9 -441.72)"/><path class="cls-9" d="M466.1,621a3.5,3.5,0,1,1-4.94.08A3.49,3.49,0,0,1,466.1,621Z" transform="translate(-430.9 -441.72)"/><path class="cls-10" d="M456.47,630.41a3.73,3.73,0,1,1-5.27.08A3.72,3.72,0,0,1,456.47,630.41Z" transform="translate(-430.9 -441.72)"/><path class="cls-11" d="M456.58,630.84a3.49,3.49,0,1,1-4.94.07A3.49,3.49,0,0,1,456.58,630.84Z" transform="translate(-430.9 -441.72)"/><path class="cls-12" d="M634.27,452.44c-1.72-1.66-3.69-2.39-4.58-1.75l0,0-188.35,194h0c-.75.86,0,2.91,1.83,4.65s3.85,2.46,4.69,1.68h0L636.2,457l0,0C636.77,456.07,636,454.11,634.27,452.44Z" transform="translate(-430.9 -441.72)"/><g class="cls-13"><path class="cls-14" d="M631.86,453.22a2.56,2.56,0,0,0-3.29-.55v0l-185.4,191h0c-.76.82-.51,2.32.57,3.37s2.59,1.25,3.4.48h0l185.39-191,0,0A2.56,2.56,0,0,0,631.86,453.22Z" transform="translate(-430.9 -441.72)"/></g><path class="cls-15" d="M580.4,513.85a1.32,1.32,0,0,1-.22,1.85h0a1.35,1.35,0,0,1-1.84.28l-6.49-6.29a1.35,1.35,0,0,1,.23-1.86h0a1.34,1.34,0,0,1,1.84-.28Z" transform="translate(-430.9 -441.72)"/><path class="cls-16" d="M635.57,457.18a1,1,0,0,1,.09,1.38h0a1,1,0,0,1-1.38-.05l-5.86-5.68a1,1,0,0,1-.08-1.38h0a1,1,0,0,1,1.38.05Z" transform="translate(-430.9 -441.72)"/><path class="cls-17" d="M568.61,526a1.34,1.34,0,0,1-.23,1.85h0a1.34,1.34,0,0,1-1.84.28l-6.48-6.29a1.35,1.35,0,0,1,.22-1.86h0a1.33,1.33,0,0,1,1.84-.27Z" transform="translate(-430.9 -441.72)"/><path class="cls-18" d="M452.88,645.19a1.08,1.08,0,0,1,.1,1.52h0a1.08,1.08,0,0,1-1.52-.05l-6.48-6.3a1.08,1.08,0,0,1-.1-1.52h0a1.09,1.09,0,0,1,1.52.06Z" transform="translate(-430.9 -441.72)"/><path class="cls-19" d="M484,613.1a1.09,1.09,0,0,1,.11,1.52h0a1.09,1.09,0,0,1-1.53,0l-6.49-6.3a1.08,1.08,0,0,1-.09-1.51h0a1.07,1.07,0,0,1,1.52,0Z" transform="translate(-430.9 -441.72)"/><path class="cls-20" d="M483.39,601.48a5.23,5.23,0,0,0-3.73,3.83l-.19.21.38.37c.51.49,1.84-.06,3-1.23s1.65-2.52,1.14-3l-.38-.37Z" transform="translate(-430.9 -441.72)"/><path class="cls-21" d="M483.59,601.27c.5.49,0,1.84-1.15,3s-2.47,1.72-3,1.24,0-1.85,1.14-3S483.08,600.78,483.59,601.27Z" transform="translate(-430.9 -441.72)"/><path class="cls-22" d="M482.24,599.87A5.92,5.92,0,0,0,478,604.2l-.23.23.44.43c.57.55,2.08-.07,3.36-1.39s1.87-2.85,1.3-3.4l-.44-.43Z" transform="translate(-430.9 -441.72)"/><path class="cls-23" d="M482.46,599.64c.58.56,0,2.08-1.29,3.4s-2.79,2-3.37,1.39,0-2.07,1.29-3.4S481.89,599.09,482.46,599.64Z" transform="translate(-430.9 -441.72)"/><path class="cls-24" d="M490.22,594.44a5.22,5.22,0,0,0-3.73,3.84l-.19.21.39.37c.5.49,1.83-.07,3-1.24s1.65-2.51,1.15-3l-.39-.37Z" transform="translate(-430.9 -441.72)"/><path class="cls-25" d="M490.42,594.23c.5.5,0,1.85-1.14,3s-2.48,1.73-3,1.25,0-1.85,1.14-3S489.91,593.74,490.42,594.23Z" transform="translate(-430.9 -441.72)"/><path class="cls-26" d="M489.63,593.39a5.92,5.92,0,0,0-4.21,4.34l-.21.23.44.42c.56.55,2.07-.07,3.35-1.39s1.87-2.85,1.3-3.41l-.44-.42Z" transform="translate(-430.9 -441.72)"/><path class="cls-27" d="M489.86,593.16c.57.56,0,2.08-1.29,3.4s-2.79,1.94-3.36,1.4,0-2.08,1.29-3.41S489.29,592.61,489.86,593.16Z" transform="translate(-430.9 -441.72)"/><path class="cls-28" d="M497.05,587.41a5.22,5.22,0,0,0-3.73,3.84l-.19.2.38.37c.51.49,1.84-.06,3-1.24s1.65-2.51,1.15-3l-.39-.38Z" transform="translate(-430.9 -441.72)"/><path class="cls-29" d="M497.25,587.2c.5.49,0,1.84-1.14,3s-2.47,1.73-3,1.24,0-1.84,1.14-3S496.74,586.71,497.25,587.2Z" transform="translate(-430.9 -441.72)"/><path class="cls-30" d="M496.46,586.36a4.76,4.76,0,0,0-2.7,1.59,4.81,4.81,0,0,0-1.5,2.74l-.22.23.43.42c.57.56,2.07-.07,3.36-1.39s1.87-2.85,1.29-3.4l-.43-.43Z" transform="translate(-430.9 -441.72)"/><path class="cls-31" d="M496.69,586.12c.57.56,0,2.09-1.29,3.41s-2.79,1.94-3.36,1.39,0-2.08,1.29-3.4S496.12,585.57,496.69,586.12Z" transform="translate(-430.9 -441.72)"/><path class="cls-32" d="M503.88,580.37a4.22,4.22,0,0,0-2.4,1.4,4.33,4.33,0,0,0-1.33,2.44l-.19.2.39.37c.5.5,1.83,0,3-1.23s1.65-2.52,1.15-3l-.39-.37Z" transform="translate(-430.9 -441.72)"/><path class="cls-33" d="M504.08,580.17c.51.49,0,1.83-1.14,3s-2.47,1.72-3,1.23,0-1.84,1.14-3S503.57,579.67,504.08,580.17Z" transform="translate(-430.9 -441.72)"/><path class="cls-34" d="M503.3,579.32a4.81,4.81,0,0,0-2.71,1.59,4.72,4.72,0,0,0-1.5,2.74l-.22.23.44.43c.56.55,2.07-.07,3.35-1.4s1.87-2.84,1.3-3.4l-.44-.42Z" transform="translate(-430.9 -441.72)"/><path class="cls-35" d="M503.52,579.09c.58.55,0,2.08-1.29,3.4s-2.79,1.94-3.36,1.39,0-2.07,1.29-3.4S503,578.53,503.52,579.09Z" transform="translate(-430.9 -441.72)"/><path class="cls-36" d="M510.71,573.33a5.23,5.23,0,0,0-3.72,3.84l-.2.21.39.36c.51.5,1.83,0,3-1.23s1.65-2.52,1.15-3l-.39-.36Z" transform="translate(-430.9 -441.72)"/><path class="cls-37" d="M510.91,573.14c.51.48,0,1.83-1.14,3s-2.47,1.73-3,1.24,0-1.85,1.15-3S510.4,572.64,510.91,573.14Z" transform="translate(-430.9 -441.72)"/><path class="cls-38" d="M510.13,572.28a5.92,5.92,0,0,0-4.21,4.33l-.22.24.44.42c.57.56,2.07-.07,3.36-1.39s1.86-2.85,1.29-3.4l-.43-.43Z" transform="translate(-430.9 -441.72)"/><path class="cls-39" d="M510.36,572.05c.56.56,0,2.08-1.3,3.41s-2.8,1.94-3.36,1.39,0-2.08,1.29-3.4S509.78,571.5,510.36,572.05Z" transform="translate(-430.9 -441.72)"/><path class="cls-40" d="M517.55,566.29a4.27,4.27,0,0,0-2.4,1.41,4.21,4.21,0,0,0-1.33,2.44l-.2.2.39.37c.5.5,1.84-.06,3-1.23s1.65-2.52,1.14-3l-.38-.38Z" transform="translate(-430.9 -441.72)"/><path class="cls-41" d="M517.75,566.09c.5.49,0,1.84-1.15,3s-2.48,1.72-3,1.23,0-1.84,1.15-3S517.24,565.6,517.75,566.09Z" transform="translate(-430.9 -441.72)"/><path class="cls-42" d="M517,565.25a5.92,5.92,0,0,0-4.21,4.33l-.22.23.44.43c.57.55,2.07-.07,3.36-1.4s1.86-2.84,1.29-3.4l-.44-.42Z" transform="translate(-430.9 -441.72)"/><path class="cls-43" d="M517.18,565c.58.56,0,2.08-1.29,3.4s-2.79,2-3.36,1.39,0-2.08,1.3-3.4S516.61,564.46,517.18,565Z" transform="translate(-430.9 -441.72)"/><path class="cls-44" d="M524.38,559.26a4.22,4.22,0,0,0-2.4,1.41,4.27,4.27,0,0,0-1.33,2.44l-.2.19.39.37c.51.5,1.83,0,3-1.23s1.66-2.52,1.15-3l-.38-.38Z" transform="translate(-430.9 -441.72)"/><path class="cls-45" d="M524.58,559.06c.5.49,0,1.83-1.15,3s-2.47,1.72-3,1.23,0-1.84,1.15-3S524.07,558.57,524.58,559.06Z" transform="translate(-430.9 -441.72)"/><path class="cls-46" d="M523.79,558.22a4.76,4.76,0,0,0-2.7,1.58,4.87,4.87,0,0,0-1.51,2.74l-.22.24.44.42c.57.55,2.07-.07,3.35-1.4s1.87-2.84,1.3-3.39L524,558Z" transform="translate(-430.9 -441.72)"/><path class="cls-47" d="M524,558c.58.55,0,2.07-1.29,3.39s-2.78,2-3.36,1.4,0-2.09,1.29-3.4S523.45,557.43,524,558Z" transform="translate(-430.9 -441.72)"/><path class="cls-48" d="M533.07,550.3a5.23,5.23,0,0,0-3.72,3.84l-.2.21.38.37c.51.49,1.84-.06,3-1.23s1.65-2.52,1.15-3l-.39-.38Z" transform="translate(-430.9 -441.72)"/><path class="cls-49" d="M533.27,550.1c.5.5,0,1.85-1.15,3s-2.47,1.72-3,1.23,0-1.84,1.14-3S532.76,549.61,533.27,550.1Z" transform="translate(-430.9 -441.72)"/><path class="cls-50" d="M532.49,549.26a5.88,5.88,0,0,0-4.21,4.33l-.22.23.43.43c.58.55,2.08-.07,3.36-1.4s1.87-2.84,1.3-3.4l-.44-.42Z" transform="translate(-430.9 -441.72)"/><path class="cls-51" d="M532.71,549c.57.56,0,2.08-1.3,3.4s-2.78,2-3.35,1.39,0-2.08,1.29-3.4S532.13,548.47,532.71,549Z" transform="translate(-430.9 -441.72)"/><path class="cls-52" d="M542.87,540.22a4.22,4.22,0,0,0-2.4,1.4,4.27,4.27,0,0,0-1.33,2.43l-.2.21.39.37c.5.49,1.84-.06,3-1.23s1.66-2.53,1.15-3l-.39-.38Z" transform="translate(-430.9 -441.72)"/><path class="cls-53" d="M543.06,540c.51.49,0,1.84-1.14,3s-2.47,1.72-3,1.23,0-1.84,1.15-3S542.56,539.52,543.06,540Z" transform="translate(-430.9 -441.72)"/><path class="cls-54" d="M542.28,539.17a4.85,4.85,0,0,0-2.7,1.58,4.77,4.77,0,0,0-1.5,2.75l-.22.23.43.43c.57.55,2.07-.08,3.36-1.4s1.87-2.84,1.3-3.4l-.45-.42Z" transform="translate(-430.9 -441.72)"/><path class="cls-55" d="M542.5,538.94c.58.55,0,2.08-1.28,3.4s-2.8,1.95-3.36,1.39,0-2.08,1.28-3.4S541.93,538.38,542.5,538.94Z" transform="translate(-430.9 -441.72)"/><path class="cls-56" d="M596.76,485.82s-1.47-.05-.22-1.33l20.14-20.75s1.1-1.13,1.4-.3C618.08,463.44,614.79,476,596.76,485.82Z" transform="translate(-430.9 -441.72)"/><path class="cls-57" d="M596.34,485.41s-1.47-.05-.23-1.33l20.15-20.75s1.1-1.14,1.39-.3C617.65,463,614.37,475.58,596.34,485.41Z" transform="translate(-430.9 -441.72)"/><path class="cls-58" d="M477.16,613.75a3.45,3.45,0,1,1-4.88.08A3.45,3.45,0,0,1,477.16,613.75Z" transform="translate(-430.9 -441.72)"/><path class="cls-12" d="M476.48,613.67a3.45,3.45,0,1,1-4.88.07A3.45,3.45,0,0,1,476.48,613.67Z" transform="translate(-430.9 -441.72)"/></svg>