<?xml version="1.0" encoding="utf-8"?>
<!-- Generator: Adobe Illustrator 24.2.0, SVG Export Plug-In . SVG Version: 6.00 Build 0)  -->
<svg version="1.1" id="Layer_1" xmlns="http://www.w3.org/2000/svg" xmlns:xlink="http://www.w3.org/1999/xlink" x="0px" y="0px"
	 viewBox="0 0 214.3 201.4" style="enable-background:new 0 0 214.3 201.4;" xml:space="preserve">
<style type="text/css">
	.st0{fill:#FDD0B1;}
	.st1{fill:#414042;}
	.st2{fill:#515659;}
	.st3{fill:#252A26;}
	.st4{fill:#09110E;}
	.st5{fill:#6D6E71;}
	.st6{fill:#BCBEC0;}
	.st7{fill:#C0B9AB;}
	.st8{fill:#594A42;}
	.st9{fill:#886957;}
	.st10{fill:#FFDE17;}
	.st11{fill:#D1D3D4;}
	.st12{fill:#808285;}
	.st13{fill:#FFFFFF;}
	.st14{fill:#F4F5F5;}
	.st15{fill:#939598;}
	.st16{fill:#A7A9AC;}
	.st17{fill:#1A1A1A;}
	.st18{fill:#333333;}
</style>
<path class="st0" d="M27.7,20.6c-29.4,23.5-32,91.6-23.4,126.8s156.4,61.8,187.3,32s28.5-117.2,3.1-149.2S70.2-13.5,27.7,20.6z"/>
<g>
	<g>
		<g>
			<g>
				<path class="st1" d="M138,6.8l32.4,6.8l-12.2,12c0,0-4.5,11.7,7,19.6c11.5,7.9,23.9,16.9-12.8,36.9L82.7,83l8.6-17.7L138,6.8z"
					/>
				<path class="st2" d="M138,6.8l32.4,6.8l0,0c0.5-0.3,1.9-1.2,1.8-2.6l-34.5-8.2C137.6,2.8,137,5.3,138,6.8L138,6.8z"/>
				<g>
					<path class="st3" d="M137.6,3L83.9,67l6.2,0.3l0.4-0.5l0.7-1.5L138,6.8l0,0C137.2,5.5,137.4,3.6,137.6,3z"/>
					<polygon class="st4" points="138,6.8 138.5,6.9 138.5,6.9 					"/>
				</g>
				<path class="st5" d="M122.5,28.3c0.4,0.9,1.7,1.2,2.8,0.7c1.2-0.5,1.8-1.6,1.4-2.5c-0.4-0.9-1.6-1.2-2.8-0.7
					C122.7,26.2,122.1,27.4,122.5,28.3z"/>
				<path class="st6" d="M123.5,28.2c0.3,0.6,1.1,0.8,1.8,0.5c0.8-0.3,1.2-1.1,0.9-1.6c-0.3-0.6-1.1-0.8-1.8-0.5
					C123.6,26.9,123.2,27.6,123.5,28.2z"/>
				<path class="st2" d="M104.5,88.1l-21,0.5L45,89.5l0.2,14.7l41.6,2.9C86.8,107.1,112,106.5,104.5,88.1z"/>
				<path class="st7" d="M97.5,184.4c0,0-2.1-2-11.5-4.8c0,0-6.9,0.1-8.1,1.3l11.9,4.7L97.5,184.4z"/>
				<polygon class="st8" points="123.3,190.4 122.6,198.7 116.6,200.5 116.6,191.6 				"/>
				<polygon class="st9" points="116.6,191.6 111.7,189.7 112.1,197.9 116.6,200.5 				"/>
				<polygon class="st8" points="89.6,185.3 77.9,180.9 77.9,186.6 89.6,191 97.5,189.4 97.5,184.4 				"/>
				<polygon points="87.2,190 87.3,187.1 86,186.7 85.8,189.3 				"/>
				<polygon points="83.9,188.4 84,185.6 82.7,185.2 82.6,187.7 				"/>
				<polygon points="80.7,187.1 80.8,184.3 79.5,183.9 79.3,186.4 				"/>
				<g>
					<path class="st10" d="M87.1,188.1c0.1,0.4-3,0.9-4.1,1.6c-1.2,0.7-3.1,0.6-3.4-0.6c-0.2-1.2,1.5-1.7,2.9-1.8
						C85.1,187.2,87,187.8,87.1,188.1z"/>
				</g>
				<g>
					<g>
						<path class="st10" d="M83.7,186.2c0,0.2-3,0.7-4.2,1.3c-1.2,0.5-3.1,0.6-3.3-0.1c-0.1-0.7,1.6-1.2,3-1.3
							C81.8,185.8,83.6,186,83.7,186.2z"/>
					</g>
				</g>
				<g>
					<g>
						<path class="st10" d="M80.3,185.4c0,0.2-3.1,0.3-4.3,0.6c-1.3,0.3-3.2,0.2-3.2-0.4c0-0.6,1.8-0.8,3.1-0.7
							C78.5,184.9,80.3,185.3,80.3,185.4z"/>
					</g>
				</g>
				<polygon class="st9" points="55.4,176.9 52.3,175.8 53,181.8 55.6,183 				"/>
				<polygon class="st9" points="160.5,180.8 155.8,181.5 155.6,187 159.8,186.3 				"/>
				<polygon class="st8" points="155.8,181.5 151.3,180.7 151.8,185.6 155.6,187 				"/>
				<polygon class="st2" points="44.2,84.7 43.6,88.4 41.5,88.5 42,84.8 				"/>
				<polygon class="st3" points="44.2,84.8 43.6,88.4 106,86.1 106.3,82 				"/>
				<g>
					<path class="st11" d="M85.2,61.9c-1.5,0.4-6.4-0.2-7.7,0.1c-6.4,1.5-6.8,2.5-6.8,2.5l-6.2,19.4l33.4-1.5l3.5-20.4
						C101.3,61.9,96,58.6,85.2,61.9z"/>
					<path class="st12" d="M93.9,61.3c-2.4,0-8.5,1.6-8.5,1.6s-5.3-0.1-7,0.1c-1.3,0.2-5.3,1.4-5.3,1.4l-5.5,19.5l28.1-1.3l3.9-20.2
						C99.6,62.3,95.9,61.4,93.9,61.3z"/>
					<path class="st13" d="M93.5,61.6c-2.4,0-8.5,1.6-8.5,1.6s-5.3-0.1-7,0.1c-1.3,0.2-5.2,1.4-5.2,1.4l-5.5,19.2l28.1-1.2l3.8-20
						C99.1,62.6,95.4,61.6,93.5,61.6z"/>
					<path class="st7" d="M84.7,60.5l-4.8,22.8l1.5-0.1l4.5-22.7C85.9,60.5,85.4,59.2,84.7,60.5z"/>
				</g>
				<path class="st7" d="M135.9,66.2l5.4,15.1c1.6,0.1,3.1,0.2,4.6,0.2l-6.3-17.2l-1.3-2.1l-12.5-34.8c-1.7-1-1.9,0.9-1.9,0.9
					L135.5,64L135.9,66.2z"/>
				<path class="st9" d="M141.3,81.4l-5.4-15.1l-0.4-2.3l-9.8-30l8.6,29.4l-0.1,2.5l5.3,15.3c1.1,0.1,2.2,0.1,3.3,0.2
					C142.3,81.4,141.8,81.4,141.3,81.4z"/>
				<path class="st7" d="M122.6,188l-5.9,1.2l-4.4-1.2c-0.8,0.8-0.6,2-0.6,2l4.9,2l6.7-1.5C123.4,189.5,122.6,188,122.6,188z"/>
				<path class="st7" d="M159.8,179.5l-3.9,0.6l-3.9-0.8c0,0-0.8,0.3-0.8,1.3l4.4,1.5l4.7-1.2C160.5,181,160.6,179.8,159.8,179.5z"
					/>
				<path class="st2" d="M55.4,123.1l0-0.2l0,0c-1-3.4-5.3-5.2-5.3-5.2l-9.4-1.6c0,0,10.7,2.8,11,6.2c0.6,6.7,1.1,51.8,1.1,51.8
					l2.8,0.8C55.7,174.9,55.5,123.4,55.4,123.1z"/>
				<polygon class="st3" points="84.6,126.8 84.8,182.5 86.9,182.2 87,127.2 				"/>
				<polygon class="st2" points="82.1,126.4 82.6,181.7 84.8,182.5 84.6,126.8 				"/>
				<path class="st7" d="M61.2,174.3c0,0,0.9,0.8,0.4,2l-6.2,0.6l-3.1-1.1c0,0,0-1.4,0.5-1.7l2.8,0.8L61.2,174.3z"/>
				<polygon class="st8" points="55.4,176.9 55.6,183 60.9,182.5 61.6,176.3 				"/>
				<g>
					<path class="st2" d="M117.2,136.5c0,0-2.6-8.7-12.4-8.8c0,0,6,2.4,6.7,7.2l0.8,53.1l4.4,2L117.2,136.5z"/>
				</g>
				<path class="st3" d="M167.8,86.7v-3.7c-5.8-0.8-58.8-3.1-58.8-3.1l-1.4,6.9c5.8,22.2-17,20.1-17,20.1l0,13.1l-61.1-8.7v3.2
					l21.1,3.5c1.1,0.5,4.1,2.2,4.8,5l0,0l0,0.2c0.1,0.3,0.3,51.8,0.3,51.8l0,0l0,0l5.5-0.6l1-51l0,0l0.1-0.1l29.2,4.7
					c0,0,12.6-0.4,13.4-0.3c0,0,0,0,0,0c9.8,0.1,12.4,8.8,12.4,8.8l-0.5,53.3l0,0.2l5.9-1.9l2.1-54h0c2.1-5.3,5.6-7.7,8.5-8.7
					l18.4-1.1l0.5,55.3l3.9,0.6l0.7-58c0.5-5,23-9.5,23-9.5v-3.4l0.4-22.6H167.8z"/>
				<polygon class="st2" points="88.6,127.5 88.9,183.3 90.2,184.1 90,127.7 				"/>
				<polygon class="st3" points="91.5,128 90,127.7 90.2,184.1 93.4,183.8 93.5,127.9 				"/>
				<path class="st2" d="M156.6,122.1l-0.7,58l3.9-0.3l1.8-58.3c0.8-3.5,5.3-5.6,5.3-5.6c0,0,0,0,0,0
					C161.7,117.7,156.9,119.9,156.6,122.1z"/>
				<polygon class="st2" points="87,112.9 34.6,107.6 30.4,109 87,115.1 				"/>
				<polygon class="st11" points="34.6,106.1 34.6,107.6 41.1,108.3 87,112.9 87,110.4 				"/>
				<polygon class="st14" points="34.6,106.1 45.2,104.3 87,107.1 87,110.4 				"/>
				<path class="st15" d="M87,106.3v8.8L30.4,109l0-5.3l-1.3-0.3c0,0,0,7.7,0,7.7l61.5,8.8v-13.1L87,106.3z"/>
				<path class="st6" d="M41.4,88.5C41.5,88.5,41.5,88.5,41.4,88.5C41.5,88.5,41.5,88.5,41.4,88.5l2.1-0.1c0.1,0.4,0.1,0.8,0.2,1.1
					l60.9-1.4v-1.9L41.4,88.5z"/>
				<polygon class="st2" points="106.1,79.7 109,79.8 107.6,86.7 104.2,86.6 				"/>
				<path class="st16" d="M90.7,106.8c1.9,0.1,22.5,1,16.9-20.2l-3.4-0.1c6.2,21.4-17.1,19.7-17.1,19.7l3.5,0.6
					C90.6,106.8,90.6,106.8,90.7,106.8z"/>
			</g>
			<path class="st3" d="M45.2,89.5l-1.4,0c1.1,13.7-6.2,12.8-6.2,12.8c-7.5-0.6-7.2,1.2-7.2,1.4l0,5.3l4.2-1.4v-1.5l10.6-1.9
				L45.2,89.5z"/>
		</g>
		<path class="st16" d="M30.4,103.7c0,0,0-0.1,0-0.2c0.1-0.5,0.9-1.5,6.2-1.2c0.4,0,0.8,0,1.2,0.1c0,0,0.9,0,2.1-0.5
			c2-0.9,4.5-3.7,4-11.7c-0.1-0.6-0.2-1.2-0.3-1.8l-2.1,0.1c0,0,2.5,12-3.3,12.5c0,0-9.2-0.8-9.1,2.5L30.4,103.7
			C30.4,103.7,30.4,103.7,30.4,103.7z"/>
	</g>
	<g>
		<polygon class="st17" points="47,105.3 47,105.3 45.2,105.2 45.2,105.5 47,105.6 51.6,104.8 51.6,104.5 		"/>
		<polygon class="st18" points="51.6,104.5 49.6,104.4 45.2,105.2 47,105.3 		"/>
	</g>
	<g>
		<polygon class="st17" points="50.6,105.7 50.6,105.7 48.8,105.6 48.7,105.9 50.6,106 55.2,105.2 55.2,104.9 		"/>
		<polygon class="st18" points="55.2,104.9 53.2,104.8 48.8,105.6 50.6,105.7 		"/>
	</g>
	<g>
		<polygon class="st17" points="54.6,106.1 54.6,106.1 52.7,105.9 52.7,106.2 54.6,106.3 59.1,105.5 59.1,105.3 		"/>
		<polygon class="st18" points="59.2,105.3 57.2,105.1 52.7,105.9 54.6,106.1 		"/>
	</g>
	<g>
		<polygon class="st17" points="61.4,106.4 61.4,106.4 59.6,106.3 59.5,106.6 61.4,106.7 66,105.9 66,105.6 		"/>
		<polygon class="st18" points="66,105.6 64,105.5 59.6,106.3 61.4,106.4 		"/>
	</g>
	<g>
		<polygon class="st17" points="65.4,106.8 65.4,106.8 63.5,106.6 63.5,107 65.4,107.1 69.9,106.2 69.9,106 		"/>
		<polygon class="st18" points="69.9,106 68,105.8 63.5,106.6 65.4,106.8 		"/>
	</g>
	<g>
		<polygon class="st17" points="72.2,107.1 72.2,107.1 70.3,107 70.3,107.3 72.2,107.4 76.8,106.6 76.8,106.3 		"/>
		<polygon class="st18" points="76.8,106.3 74.8,106.2 70.3,107 72.2,107.1 		"/>
	</g>
	<g>
		<polygon class="st17" points="75.8,107.5 75.8,107.5 73.9,107.3 73.9,107.7 75.8,107.8 80.4,107 80.4,106.7 		"/>
		<polygon class="st18" points="80.4,106.7 78.4,106.6 73.9,107.3 75.8,107.5 		"/>
	</g>
	<g>
		<polygon class="st17" points="79.7,107.8 79.7,107.9 77.9,107.7 77.9,108 79.7,108.1 84.3,107.3 84.3,107.1 		"/>
		<polygon class="st18" points="84.3,107.1 82.4,106.9 77.9,107.7 79.7,107.9 		"/>
	</g>
</g>
</svg>
