<svg id="Layer_1" data-name="Layer 1" xmlns="http://www.w3.org/2000/svg" viewBox="0 0 214.26 226.52"><defs><style>.cls-1{fill:#ffc60b;}.cls-2{fill:#db3a28;}.cls-3{fill:#fff;}.cls-10,.cls-4{fill:#1e315f;}.cls-4,.cls-8{stroke:#1e315f;stroke-linecap:round;stroke-miterlimit:10;}.cls-4{stroke-width:3px;}.cls-5{fill:#7b6d6d;}.cls-6{fill:#9a938b;}.cls-7{fill:#446786;}.cls-8{fill:#96aaae;stroke-width:2px;}.cls-9{fill:#d5cbc4;}.cls-11{fill:#b5aaa0;}</style></defs><path class="cls-1" d="M458.61,469.73c-29.37,23.54-32,91.63-23.38,126.79s156.38,61.79,187.29,32S651,511.29,625.61,479.32,501.15,435.64,458.61,469.73Z" transform="translate(-430.9 -421.69)"/><path class="cls-2" d="M530.44,546.08l11.23,8-8.42,11.79s1,4.22,6.15,7.23,9.83,1.08,13.39-2.32,5.17-4.08,7.45-2.31,4.2,8.37-3.4,16.24-15.78,9.22-19.1,16-3.1,22-9.07,31.69-14.75,19.86-32.48,14-36.83-24.05-41-35.65-4.68-19.18,9.73-31.23,22.92-8.93,29.63-25.63,5.84-21.84,16.07-31.22,14.41-1.16,11.4,4-6.31,9.63-3.21,15.38S527,548.88,530.44,546.08Z" transform="translate(-430.9 -421.69)"/><path class="cls-3" d="M516.22,553.32s1.78-2.69,4.51.81,10.14,17.28,14.15,21.56,8.56,6,14,4.12,6.82-4.21,8.53-5.81,2.54.4,1.57,3-3.8,7.89-12.15,13.24-12.08,7.21-14.28,16.24-3.24,17.2-6.68,23.79-6.27,7.4-8.39,2.64-2.24-12.49-9-17.63S489.66,603.76,485,599.75s-.36-14.54,7.6-19.74,12.67-7.07,17.06-13.4S515.25,554.88,516.22,553.32Z" transform="translate(-430.9 -421.69)"/><rect class="cls-4" x="489.77" y="598.08" width="11.5" height="22.01" rx="1.84" transform="translate(-719.03 236.54) rotate(-54.46)"/><rect class="cls-5" x="491.21" y="603.07" width="5.28" height="17.3" transform="translate(-721.87 236.29) rotate(-54.46)"/><path class="cls-3" d="M503.66,622.82s1.74-1.77,4.5,1.23,5.28,12.26,4.38,15.11-3.25,3.89-7.33-3.07S501.11,624,503.66,622.82Z" transform="translate(-430.9 -421.69)"/><path class="cls-4" d="M508.47,605a1.84,1.84,0,0,1-2.6,0L495.53,594.8a1.83,1.83,0,0,1,0-2.6l.42-.44a1.84,1.84,0,0,1,2.61,0l10.33,10.17a1.84,1.84,0,0,1,0,2.6Z" transform="translate(-430.9 -421.69)"/><path class="cls-6" d="M498.08,594.34a.8.8,0,0,1-1.31-.93.8.8,0,1,1,1.31.93Z" transform="translate(-430.9 -421.69)"/><path class="cls-6" d="M500,596.22a.81.81,0,1,1-.19-1.13A.82.82,0,0,1,500,596.22Z" transform="translate(-430.9 -421.69)"/><path class="cls-6" d="M502,598.1a.81.81,0,1,1-.19-1.13A.81.81,0,0,1,502,598.1Z" transform="translate(-430.9 -421.69)"/><path class="cls-6" d="M503.91,600a.81.81,0,1,1-.19-1.13A.81.81,0,0,1,503.91,600Z" transform="translate(-430.9 -421.69)"/><path class="cls-6" d="M505.85,601.85a.81.81,0,0,1-1.31-.94.81.81,0,1,1,1.31.94Z" transform="translate(-430.9 -421.69)"/><path class="cls-6" d="M507.8,603.72a.81.81,0,1,1-.19-1.12A.81.81,0,0,1,507.8,603.72Z" transform="translate(-430.9 -421.69)"/><rect class="cls-4" x="508.81" y="577.01" width="4.3" height="18.18" rx="1.84" transform="translate(-693.04 247.56) rotate(-55.06)"/><path class="cls-6" d="M506.22,582.84a.79.79,0,0,1-1.07.37.81.81,0,1,1,1.07-.37Z" transform="translate(-430.9 -421.69)"/><path class="cls-6" d="M508.45,584.36a.82.82,0,0,1-1.08.38.81.81,0,0,1-.37-1.08.82.82,0,0,1,1.08-.38A.81.81,0,0,1,508.45,584.36Z" transform="translate(-430.9 -421.69)"/><path class="cls-6" d="M510.68,585.89a.81.81,0,1,1-.37-1.08A.8.8,0,0,1,510.68,585.89Z" transform="translate(-430.9 -421.69)"/><path class="cls-6" d="M512.91,587.41a.82.82,0,0,1-1.08.38.81.81,0,0,1,.71-1.46A.81.81,0,0,1,512.91,587.41Z" transform="translate(-430.9 -421.69)"/><path class="cls-6" d="M515.14,588.94a.81.81,0,1,1-1.45-.71.79.79,0,0,1,1.07-.37A.82.82,0,0,1,515.14,588.94Z" transform="translate(-430.9 -421.69)"/><path class="cls-6" d="M517.37,590.46a.81.81,0,1,1-.38-1.08A.82.82,0,0,1,517.37,590.46Z" transform="translate(-430.9 -421.69)"/><path class="cls-4" d="M527.86,578.87a1.83,1.83,0,0,1-2.56.43l-11.82-8.39a1.83,1.83,0,0,1-.44-2.56l.35-.5a1.84,1.84,0,0,1,2.57-.44l11.82,8.39a1.84,1.84,0,0,1,.44,2.57Z" transform="translate(-430.9 -421.69)"/><path class="cls-6" d="M515.92,570.06a.81.81,0,1,1-.37-1.08A.8.8,0,0,1,515.92,570.06Z" transform="translate(-430.9 -421.69)"/><path class="cls-6" d="M518.14,571.6a.81.81,0,0,1-1.09.36.8.8,0,1,1,.72-1.44A.81.81,0,0,1,518.14,571.6Z" transform="translate(-430.9 -421.69)"/><path class="cls-6" d="M520.35,573.14a.8.8,0,1,1-.36-1.08A.8.8,0,0,1,520.35,573.14Z" transform="translate(-430.9 -421.69)"/><path class="cls-6" d="M522.57,574.68a.81.81,0,0,1-1.08.37.83.83,0,0,1-.37-1.09.81.81,0,0,1,1.45.72Z" transform="translate(-430.9 -421.69)"/><path class="cls-6" d="M524.79,576.22a.81.81,0,1,1-1.45-.71.81.81,0,0,1,1.08-.37A.81.81,0,0,1,524.79,576.22Z" transform="translate(-430.9 -421.69)"/><path class="cls-6" d="M527,577.76a.8.8,0,1,1-.36-1.08A.8.8,0,0,1,527,577.76Z" transform="translate(-430.9 -421.69)"/><path class="cls-7" d="M606.62,465.18l-9.93-7.09L518,563.62s-2.12,1.88.08,3.45l8.37,6s2.6,1.86,3.89.09S606.62,465.18,606.62,465.18Z" transform="translate(-430.9 -421.69)"/><path class="cls-8" d="M606.62,465.18l-9.93-7.09L518,563.62s-2.12,1.88.08,3.45l8.37,6s2.6,1.86,3.89.09S606.62,465.18,606.62,465.18Z" transform="translate(-430.9 -421.69)"/><path class="cls-9" d="M586.78,484.24a1,1,0,1,1-.25-1.45A1,1,0,0,1,586.78,484.24Z" transform="translate(-430.9 -421.69)"/><path class="cls-9" d="M576.93,498a1,1,0,0,1-1.7-1.21,1,1,0,0,1,1.7,1.21Z" transform="translate(-430.9 -421.69)"/><path class="cls-9" d="M568,510.6a1,1,0,1,1-.25-1.45A1,1,0,0,1,568,510.6Z" transform="translate(-430.9 -421.69)"/><path class="cls-9" d="M559.84,521a1,1,0,1,1-.24-1.46A1,1,0,0,1,559.84,521Z" transform="translate(-430.9 -421.69)"/><path class="cls-9" d="M540.66,547a1,1,0,1,1-.24-1.45A1,1,0,0,1,540.66,547Z" transform="translate(-430.9 -421.69)"/><path class="cls-9" d="M535.86,553.82a1,1,0,1,1-1.69-1.21,1,1,0,0,1,1.45-.24A1,1,0,0,1,535.86,553.82Z" transform="translate(-430.9 -421.69)"/><path class="cls-9" d="M531.54,559.87a1,1,0,1,1-.24-1.45A1,1,0,0,1,531.54,559.87Z" transform="translate(-430.9 -421.69)"/><path class="cls-9" d="M528,564.87a1,1,0,1,1-.24-1.45A1,1,0,0,1,528,564.87Z" transform="translate(-430.9 -421.69)"/><path class="cls-9" d="M546.92,533.57a1,1,0,1,1-.24-1.45A1,1,0,0,1,546.92,533.57Z" transform="translate(-430.9 -421.69)"/><path class="cls-9" d="M552.17,537.32a1,1,0,0,1-1.7-1.21,1,1,0,0,1,1.7,1.21Z" transform="translate(-430.9 -421.69)"/><rect class="cls-10" x="524.08" y="560.36" width="0.48" height="15.57" transform="matrix(0.58, -0.81, 0.81, 0.58, -673.66, 242.83)"/><rect class="cls-10" x="525.75" y="558.02" width="0.48" height="15.56" transform="translate(-671.05 243.21) rotate(-54.46)"/><rect class="cls-10" x="527.65" y="555.53" width="0.48" height="15.44" transform="translate(-668.18 243.69) rotate(-54.46)"/><rect class="cls-10" x="529.51" y="553" width="0.48" height="15.34" transform="translate(-665.3 244.12) rotate(-54.46)"/><rect class="cls-10" x="531.55" y="550.25" width="0.48" height="15.27" transform="translate(-662.18 244.61) rotate(-54.46)"/><rect class="cls-10" x="533.77" y="547.23" width="0.48" height="15.16" transform="translate(-658.75 245.13) rotate(-54.46)"/><rect class="cls-10" x="536.05" y="544.13" width="0.48" height="15.06" transform="translate(-655.24 245.67) rotate(-54.46)"/><rect class="cls-10" x="538.54" y="540.76" width="0.48" height="14.95" transform="translate(-651.41 246.26) rotate(-54.46)"/><rect class="cls-10" x="541.12" y="537.27" width="0.48" height="14.84" transform="translate(-647.45 246.87) rotate(-54.46)"/><rect class="cls-10" x="543.93" y="533.45" width="0.48" height="14.72" transform="translate(-643.11 247.54) rotate(-54.46)"/><path class="cls-10" d="M544.67,535.33q-3.6-2.58-3.68-2.67l.19-.15.17-.17c.29.26,8.66,6.2,11.86,8.47l-.27.39Z" transform="translate(-430.9 -421.69)"/><rect class="cls-10" x="550.06" y="525.15" width="0.48" height="14.45" transform="translate(-633.68 248.99) rotate(-54.46)"/><rect class="cls-10" x="553.43" y="520.59" width="0.48" height="14.33" transform="translate(-628.51 249.81) rotate(-54.46)"/><rect class="cls-10" x="556.84" y="515.96" width="0.48" height="14.15" transform="translate(-623.24 250.6) rotate(-54.46)"/><rect class="cls-10" x="560.61" y="510.85" width="0.48" height="13.99" transform="translate(-617.44 251.49) rotate(-54.46)"/><rect class="cls-10" x="564.6" y="505.44" width="0.48" height="13.81" transform="translate(-611.29 252.44) rotate(-54.46)"/><rect class="cls-10" x="568.82" y="499.73" width="0.48" height="13.63" transform="translate(-604.8 253.44) rotate(-54.46)"/><rect class="cls-10" x="573.23" y="493.75" width="0.48" height="13.43" transform="translate(-598.01 254.49) rotate(-54.46)"/><rect class="cls-10" x="578.05" y="487.23" width="0.48" height="13.27" transform="translate(-590.62 255.64) rotate(-54.46)"/><rect class="cls-10" x="582.96" y="480.56" width="0.48" height="13.01" transform="translate(-583.03 256.79) rotate(-54.46)"/><rect class="cls-10" x="588.3" y="473.34" width="0.48" height="12.82" transform="translate(-574.85 258.07) rotate(-54.46)"/><rect class="cls-10" x="593.9" y="465.73" width="0.48" height="12.53" transform="matrix(0.58, -0.81, 0.81, 0.58, -566.19, 259.38)"/><rect class="cls-10" x="600.11" y="457.31" width="0.48" height="12.25" transform="translate(-556.63 260.85) rotate(-54.46)"/><path class="cls-4" d="M596.71,458l-.81-3.14s-.95-1.49,1.14-2.94,28-21.4,31-23.4,6.41-1.91,9.07,1,2,6.48.13,9.2-4.72,3.79-6.93,3.35-3.47.14-4.07,1.49-4.65,12-8.82,18a9.93,9.93,0,0,0-10.77,3.66h0Z" transform="translate(-430.9 -421.69)"/><path class="cls-6" d="M603.07,453.32a1.73,1.73,0,1,1-.4-2.41A1.73,1.73,0,0,1,603.07,453.32Z" transform="translate(-430.9 -421.69)"/><path class="cls-6" d="M608.79,449a1.73,1.73,0,1,1-.4-2.41A1.74,1.74,0,0,1,608.79,449Z" transform="translate(-430.9 -421.69)"/><path class="cls-6" d="M613.82,444.9a1.73,1.73,0,1,1-.4-2.41A1.74,1.74,0,0,1,613.82,444.9Z" transform="translate(-430.9 -421.69)"/><path class="cls-6" d="M619.51,440.78a1.72,1.72,0,1,1-.4-2.4A1.72,1.72,0,0,1,619.51,440.78Z" transform="translate(-430.9 -421.69)"/><path class="cls-6" d="M625,437.07a1.72,1.72,0,1,1-.4-2.4A1.72,1.72,0,0,1,625,437.07Z" transform="translate(-430.9 -421.69)"/><path class="cls-6" d="M630,433a1.73,1.73,0,1,1-.4-2.41A1.74,1.74,0,0,1,630,433Z" transform="translate(-430.9 -421.69)"/><rect class="cls-10" x="447.07" y="531.45" width="193.17" height="0.48" transform="translate(-637.39 234.61) rotate(-53.79)"/><rect class="cls-10" x="447.65" y="530.23" width="200.16" height="0.48" transform="translate(-634.43 239.17) rotate(-53.93)"/><rect class="cls-10" x="448.31" y="529" width="206.74" height="0.48" transform="translate(-631.5 243.64) rotate(-54.06)"/><rect class="cls-10" x="448.63" y="527.6" width="213.07" height="0.48" transform="translate(-628.93 245.88) rotate(-54.06)"/><rect class="cls-10" x="449.35" y="526.49" width="219.39" height="0.48" transform="translate(-626.11 250.17) rotate(-54.19)"/><rect class="cls-10" x="449.88" y="525.21" width="225.82" height="0.48" transform="translate(-622.81 256.26) rotate(-54.46)"/><polygon class="cls-11" points="168.05 25.24 170.13 27.23 168.6 28.4 167.33 26.17 168.05 25.24"/><polygon class="cls-10" points="164.52 25.17 168.38 22.2 169.49 23.73 168.44 26.37 165.63 26.7 164.52 25.17"/><polygon class="cls-11" points="173.28 21.2 175.36 23.19 173.83 24.36 172.56 22.13 173.28 21.2"/><polygon class="cls-10" points="169.75 21.13 173.61 18.16 174.7 19.59 173.66 22.22 170.84 22.56 169.75 21.13"/><polygon class="cls-11" points="178.51 17.16 180.59 19.15 179.06 20.32 177.79 18.09 178.51 17.16"/><polygon class="cls-10" points="175 17.19 178.86 14.23 179.95 15.65 178.9 18.28 176.09 18.62 175 17.19"/><polygon class="cls-11" points="183.74 13.11 185.82 15.11 184.29 16.28 183.02 14.05 183.74 13.11"/><polygon class="cls-10" points="180.23 13.15 184.09 10.19 185.18 11.61 184.13 14.24 181.32 14.58 180.23 13.15"/><polygon class="cls-11" points="188.97 9.07 191.05 11.06 189.52 12.24 188.25 10.01 188.97 9.07"/><polygon class="cls-10" points="185.46 9.11 189.32 6.14 190.41 7.57 189.37 10.2 186.55 10.54 185.46 9.11"/><polygon class="cls-11" points="194.2 5.03 196.28 7.02 194.75 8.2 193.48 5.97 194.2 5.03"/><polygon class="cls-4" points="190.69 5.07 194.55 2.1 195.64 3.53 194.6 6.16 191.78 6.5 190.69 5.07"/></svg>