<svg id="Layer_1" data-name="Layer 1" xmlns="http://www.w3.org/2000/svg" viewBox="0 0 214.26 200.83"><defs><style>.cls-1{fill:#5fcadc;}.cls-2{fill:#ffd600;}.cls-3{fill:#ffad36;}.cls-4{fill:#ffc017;}.cls-5{fill:#001e8e;}</style></defs><path class="cls-1" d="M458.61,462.76c-29.37,23.53-32,91.62-23.38,126.78s156.38,61.79,187.29,32S651,504.31,625.61,472.35,501.15,428.67,458.61,462.76Z" transform="translate(-430.9 -437.67)"/><path class="cls-2" d="M478.63,609.88l-1.76-1.47a3.29,3.29,0,0,1-.41-4.64l15-17.89a3.3,3.3,0,0,1,4.57-.47l.08.06,1.75,1.47-1.16,1.39-1.76-1.47a1.48,1.48,0,0,0-2.09.19l-15,17.88a1.49,1.49,0,0,0-.35,1.08,1.52,1.52,0,0,0,.53,1l1.75,1.47Z" transform="translate(-430.9 -437.67)"/><path class="cls-3" d="M499.86,584.54l-1.58-1.25a3.2,3.2,0,0,1-.53-4.5l6.5-8.26a.64.64,0,0,1,.89-.1.63.63,0,0,1,.11.89l-6.5,8.26a1.92,1.92,0,0,0,.32,2.71l1.58,1.25a.64.64,0,1,1-.79,1Z" transform="translate(-430.9 -437.67)"/><rect class="cls-2" x="507.22" y="556.89" width="3.18" height="17.76" rx="1.13" transform="translate(28.4 -631.2) rotate(38.24)"/><path class="cls-4" d="M580.44,453.74l4,3.88A15.55,15.55,0,0,1,586.6,480L481.44,602.82a21.62,21.62,0,0,0,3,31h0a21.62,21.62,0,0,0,29.85-3l6.88-8.08a98,98,0,0,1,55.41-32.6h0l-10-35.69h0a140,140,0,0,0-47.43,38.62l-18.72,23.75a3.57,3.57,0,0,1-5,.6h0a3.59,3.59,0,0,1-.63-5l97.84-128.33a22.16,22.16,0,0,0-5-31.66L583.35,450Z" transform="translate(-430.9 -437.67)"/><rect class="cls-3" x="482.01" y="571.57" width="93.79" height="1.63" rx="0.69" transform="translate(-678.93 195.91) rotate(-51.76)"/><path class="cls-3" d="M539.29,550.28h5.82a0,0,0,0,1,0,0v1.59a0,0,0,0,1,0,0h-5.82a.56.56,0,0,1-.56-.56v-.46A.56.56,0,0,1,539.29,550.28Z" transform="translate(26.41 -654.84) rotate(38.24)"/><path class="cls-3" d="M504.46,594.48h5.82a0,0,0,0,1,0,0v1.59a0,0,0,0,1,0,0h-5.82a.56.56,0,0,1-.56-.56V595A.56.56,0,0,1,504.46,594.48Z" transform="translate(46.29 -623.8) rotate(38.24)"/><ellipse class="cls-2" cx="572.94" cy="572.12" rx="9.27" ry="21.73" transform="translate(-559.81 -269.27) rotate(-15.05)"/><path class="cls-3" d="M575,589.55c-3.38-2.66-6.65-8.67-8.54-15.68a37.78,37.78,0,0,1-1.3-14.53c.44-3.15,1.55-5.41,2.82-5.75,1-.27,2.27.58,2.94,1.11,3.38,2.66,6.65,8.67,8.53,15.68a37.81,37.81,0,0,1,1.31,14.53c-.45,3.15-1.55,5.4-2.82,5.74C576.92,590.92,575.65,590.08,575,589.55Z" transform="translate(-430.9 -437.67)"/><polygon class="cls-5" points="152.45 12.37 149.54 16.07 143.23 12.28 147.29 7.12 152.45 12.37"/><polygon class="cls-5" points="139.84 2.18 133.16 0 131.9 1.59 136.68 6.2 139.84 2.18"/><polygon class="cls-5" points="139.84 2.18 136.68 6.2 138 7.42 141.34 3.17 139.84 2.18"/><polygon class="cls-5" points="147.29 7.12 145.82 6.15 141.94 11.08 143.23 12.28 147.29 7.12"/><polygon class="cls-5" points="142.58 4 139.09 8.43 140.84 10.07 144.58 5.32 142.58 4"/><polygon class="cls-4" points="141.34 3.17 138 7.42 139.09 8.43 142.58 4 141.34 3.17"/><polygon class="cls-4" points="144.58 5.32 140.84 10.07 141.94 11.08 145.82 6.15 144.58 5.32"/><circle class="cls-2" cx="593.33" cy="482.29" r="3.5" transform="translate(-598.15 123.14) rotate(-45)"/><circle class="cls-2" cx="586.75" cy="484.84" r="1.15" transform="translate(-372.71 594.87) rotate(-85.59)"/><rect class="cls-2" x="588.4" y="470.65" width="10.59" height="4.16" rx="1.48" transform="translate(-345.37 -528.61) rotate(9.44)"/><path class="cls-3" d="M516.91,567.9l0,0a1,1,0,0,1-.11-1.41L582.69,489a1,1,0,0,1,1.53,1.3l-65.93,77.5A1,1,0,0,1,516.91,567.9Z" transform="translate(-430.9 -437.67)"/><circle class="cls-2" cx="154.43" cy="53.76" r="3.27"/><circle class="cls-2" cx="568.64" cy="517.53" r="4.91" transform="translate(-490.75 -363.08) rotate(-7.13)"/><circle class="cls-2" cx="560.48" cy="527.88" r="4.91" transform="translate(-623.34 -70.73) rotate(-31.22)"/><circle class="cls-2" cx="121.81" cy="98.68" r="4.91"/><circle class="cls-2" cx="545.18" cy="545.49" r="4.91" transform="translate(-494.4 -365.77) rotate(-7.13)"/><circle class="cls-2" cx="536.23" cy="555.23" r="4.91" transform="translate(-501.18 -359.91) rotate(-7.79)"/><circle class="cls-2" cx="527.85" cy="565.87" r="4.91" transform="translate(-668.15 244.22) rotate(-55.61)"/><circle class="cls-2" cx="575.03" cy="507.61" r="3.39" transform="translate(-606.18 -89.33) rotate(-29.45)"/><circle class="cls-2" cx="88.51" cy="138.18" r="4.69"/><path class="cls-3" d="M517.67,581.1a2.31,2.31,0,1,1-.39-3.25A2.31,2.31,0,0,1,517.67,581.1Z" transform="translate(-430.9 -437.67)"/><circle class="cls-2" cx="511.26" cy="587.65" r="4.97" transform="translate(-662.77 383.4) rotate(-66.41)"/><circle class="cls-3" cx="79.83" cy="149.3" r="1.86"/><circle class="cls-2" cx="498.86" cy="600.38" r="6.32" transform="translate(-516.38 -354.84) rotate(-8.75)"/><circle class="cls-2" cx="484.3" cy="623.53" r="6.32" transform="matrix(1, -0.04, 0.04, 1, -454.25, -418.81)"/><path class="cls-3" d="M569.8,505.34h5.85a.45.45,0,0,1,.45.45v.37a.45.45,0,0,1-.45.45H569.8a0,0,0,0,1,0,0v-1.27A0,0,0,0,1,569.8,505.34Z" transform="translate(5.16 -683.72) rotate(38.24)"/><path class="cls-3" d="M562.77,514.76h5.85a.45.45,0,0,1,.45.45v.37a.45.45,0,0,1-.45.45h-5.85a0,0,0,0,1,0,0v-1.27A0,0,0,0,1,562.77,514.76Z" transform="translate(9.48 -677.35) rotate(38.24)"/><path class="cls-3" d="M554.38,524.92h5.85a.45.45,0,0,1,.45.45v.37a.45.45,0,0,1-.45.45h-5.85a0,0,0,0,1,0,0v-1.27a0,0,0,0,1,0,0Z" transform="translate(13.96 -669.98) rotate(38.24)"/><path class="cls-3" d="M547.09,533.77h5.85a.45.45,0,0,1,.45.45v.37a.45.45,0,0,1-.45.45h-5.85a0,0,0,0,1,0,0v-1.27a0,0,0,0,1,0,0Z" transform="translate(17.88 -663.56) rotate(38.24)"/><path class="cls-3" d="M539.31,543.23h7.16a.45.45,0,0,1,.45.45v.37a.45.45,0,0,1-.45.45h-7.16a0,0,0,0,1,0,0v-1.27a0,0,0,0,1,0,0Z" transform="translate(22.21 -657.13) rotate(38.24)"/><path class="cls-3" d="M530.44,553h7.16a.45.45,0,0,1,.45.45v.37a.45.45,0,0,1-.45.45h-7.16a0,0,0,0,1,0,0V553A0,0,0,0,1,530.44,553Z" transform="translate(26.38 -649.54) rotate(38.24)"/><path class="cls-3" d="M521.83,563.5H529a.45.45,0,0,1,.45.45v.37a.45.45,0,0,1-.45.45h-7.16a0,0,0,0,1,0,0V563.5a0,0,0,0,1,0,0Z" transform="translate(31 -641.97) rotate(38.24)"/><path class="cls-3" d="M484,625.05a.81.81,0,0,1-.31-.64l-.11-16.35-4.54-3.58a.82.82,0,0,1,1-1.29l4.85,3.83a.79.79,0,0,1,.31.63l.11,16.75a.81.81,0,0,1-.81.82A.82.82,0,0,1,484,625.05Z" transform="translate(-430.9 -437.67)"/><rect class="cls-3" x="524.18" y="587.67" width="1.86" height="23.3" transform="translate(52.66 -634.09) rotate(38.24)"/><circle class="cls-2" cx="528.28" cy="586.97" r="6.09" transform="translate(-612.24 -197.19) rotate(-21.99)"/><circle class="cls-2" cx="513.86" cy="605.28" r="6.09" transform="translate(-610.69 -218.74) rotate(-20.55)"/><circle class="cls-2" cx="501.14" cy="621.41" r="6.09" transform="translate(-518.33 -355.59) rotate(-8.62)"/><rect class="cls-3" x="479.72" y="603.23" width="20.54" height="4.36" rx="1.55" transform="translate(48.9 -611.05) rotate(38.24)"/><rect class="cls-3" x="500.95" y="615.82" width="22.53" height="4.45" rx="1.58" transform="translate(61.49 -622.09) rotate(38.24)"/></svg>