<svg id="Layer_1" data-name="Layer 1" xmlns="http://www.w3.org/2000/svg" viewBox="0 0 214.26 239.31"><defs><style>.cls-1{fill:#aee0e8;}.cls-2{fill:#a03810;}.cls-3{fill:#4f1a07;}.cls-4{fill:#d44915;}.cls-5{fill:#fdddd2;}.cls-6{fill:#0f0909;}.cls-7{fill:#a7a7a9;}.cls-8{fill:#fff;}.cls-9{fill:#e0e0e2;}.cls-10{fill:#3f3e3d;}.cls-11{fill:#cacacd;}.cls-12{fill:#89898a;}.cls-13{fill:#b9b9eb;}.cls-14{fill:#efeff0;}.cls-15{fill:#c1c1c2;}.cls-16{fill:#686869;}.cls-17{fill:#e0e0e1;}.cls-18{fill:#8f8f8f;}</style></defs><path class="cls-1" d="M458.61,479c-29.37,23.54-32,91.63-23.38,126.79s156.38,61.79,187.29,32,28.43-117.2,3.09-149.16S501.15,444.87,458.61,479Z" transform="translate(-430.9 -412.67)"/><path class="cls-2" d="M472.57,642.56c-10.86-7.06-19-16.92-22.91-27.78-4.1-11.42-3.05-22.81,3-32.08,7.09-10.92,20.54-19,35.14-21h0c3.69-.71,6.08-1.83,7.1-3.34.82-1.22.82-2.79.82-4.45v-.94a38.61,38.61,0,0,1,5.74-20.9c4.14-6.37,10.43-8.62,18.69-6.66,7.2,1.71,15,6.34,21.59,10.65,3.21,2.08,5.72,3.83,7.91,5.49a2.29,2.29,0,0,1,.54,3.08L544.71,553l-.09.14c-1.3,2-2.51,4.09-1.65,5.53l0,.06c1.5,2.52,3,5.13,12.16,2.73h0l.1,0,.09,0h0l.07,0h0l.59-.17h0a18.92,18.92,0,0,1,1.91-.4,4.61,4.61,0,0,1,4.08,1.5c.87,1,1.7,2.81.75,5.92,0,.11-.08.21-.13.32a22,22,0,0,1-1.4,2.51,32.37,32.37,0,0,1-14.09,11.55h0s-1,.42-1.54.64l-.87.38c-3.72,1.63-7.56,3.3-5.7,11.29V595c4,14.16,2.16,29.72-4.92,40.62-6,9.31-15.79,15-27.44,16.15C495.5,652.85,483.38,649.57,472.57,642.56Z" transform="translate(-430.9 -412.67)"/><path class="cls-3" d="M628.79,423.87c-.06-.72-2.09-1.4-3.44-2.61a5.92,5.92,0,0,1-2.1-3.51,3.27,3.27,0,0,0-1.36-2.1,3.23,3.23,0,0,0-2.47-.38,6,6,0,0,1-4.06-.5c-1.65-.74-3.1-2.31-3.79-2.08A81.8,81.8,0,0,1,603.75,427c-4.31,6.15-9.13,12.17-9.13,12.17a10.17,10.17,0,0,1-1,9.74l4.75,3.08,4.74,3.08a13.88,13.88,0,0,1,1.44-2.15,9.43,9.43,0,0,1,7-2.77s3.53-6.85,7.4-13.29A82.28,82.28,0,0,1,628.79,423.87Z" transform="translate(-430.9 -412.67)"/><path class="cls-4" d="M536.85,595.56a.29.29,0,0,1,0-.09c-2.49-10.67,4.28-12.64,7.91-14.31.52-.2,1.54-.64,1.54-.64a30,30,0,0,0,13.09-10.69,19,19,0,0,0,1.26-2.26c1.25-4.1-1.48-4.6-2.25-4.47a13.76,13.76,0,0,0-1.7.36l-.61.17-.09,0-.17.05h0c-10.88,2.88-13.1-1-14.78-3.82s.51-6.14,1.78-8.1l5.48-8.44c-2.38-1.8-5-3.59-7.77-5.39-14.1-9.15-29.19-16.86-37.1-4.66a36,36,0,0,0-5.36,19.6c-.08,4,.85,9-9.79,11h0c-13.83,1.92-26.83,9.5-33.67,20-11.86,18.27-1.85,43,19.27,56.68s46.54,12,58.4-6.26c6.82-10.5,8.46-25.42,4.62-38.81" transform="translate(-430.9 -412.67)"/><path class="cls-5" d="M533.85,562l3.52-5.41A14.56,14.56,0,0,0,539,563c1,1.58,2.55,1.66-.43,11.25s-6.23,27.22-6.91,30.56-3.22,8.22-7,4.59l-13.74-12L526,574.09" transform="translate(-430.9 -412.67)"/><polyline class="cls-6" points="103.24 149.53 89.43 140.57 164.02 33.51 173.82 39.87 103.24 149.53"/><polygon class="cls-7" points="113.24 106.39 125.77 114.53 126.14 113.94 113.64 105.82 113.24 106.39"/><polygon class="cls-7" points="110.34 110.55 123.03 118.78 123.4 118.2 110.74 109.98 110.34 110.55"/><polygon class="cls-7" points="100.34 124.91 113.56 133.49 113.94 132.91 100.74 124.33 100.34 124.91"/><polyline class="cls-8" points="62.31 182.93 62.11 182.8 164.66 34.92 164.85 35.05 62.31 182.93 62.31 182.93"/><polyline class="cls-8" points="67.39 186.23 67.19 186.1 168 37.09 168.2 37.22 67.39 186.23 67.39 186.23"/><polyline class="cls-8" points="69.88 187.85 69.69 187.72 169.62 38.13 169.81 38.26 69.88 187.85 69.88 187.85"/><polyline class="cls-8" points="75.04 191.2 74.85 191.07 172.64 40.09 172.84 40.22 75.04 191.2 75.04 191.2"/><polyline class="cls-8" points="72.43 189.5 72.23 189.37 171.15 39.13 171.34 39.26 72.43 189.5 72.43 189.5"/><polyline class="cls-8" points="64.88 184.6 64.69 184.47 166.27 35.96 166.46 36.09 64.88 184.6 64.88 184.6"/><path class="cls-9" d="M606.83,418.58a.79.79,0,0,1,1.09-.23l3.05,2c.36.24-.5,1.56-.87,1.32l-3-2a.79.79,0,0,1-.23-1.1h0" transform="translate(-430.9 -412.67)"/><path class="cls-10" d="M603.85,416.65a2.64,2.64,0,0,1,3.65-.77c1.21.79.9,2,.11,3.21s-1.76,2-3,1.21a2.65,2.65,0,0,1-.78-3.65" transform="translate(-430.9 -412.67)"/><path class="cls-9" d="M602.74,424.88a.79.79,0,0,1,1.09-.23l3,2c.36.24-.5,1.56-.87,1.32l-3-2a.8.8,0,0,1-.23-1.1h0" transform="translate(-430.9 -412.67)"/><path class="cls-10" d="M599.76,423a2.64,2.64,0,0,1,3.65-.77c1.21.79.9,2,.11,3.21s-1.76,2-3,1.2a2.63,2.63,0,0,1-.78-3.64" transform="translate(-430.9 -412.67)"/><path class="cls-9" d="M598.26,431.78a.79.79,0,0,1,1.09-.23l3,2c.36.24-.5,1.56-.87,1.32l-3-2a.79.79,0,0,1-.23-1.1h0" transform="translate(-430.9 -412.67)"/><path class="cls-10" d="M595.28,429.85a2.64,2.64,0,0,1,3.65-.77c1.21.79.9,2,.11,3.21s-1.76,2-3,1.2a2.63,2.63,0,0,1-.78-3.64" transform="translate(-430.9 -412.67)"/><path class="cls-9" d="M625.52,430.33a.79.79,0,0,0-.23-1.1l-3-2c-.37-.24-1.23,1.09-.87,1.32l3,2a.79.79,0,0,0,1.09-.23h0" transform="translate(-430.9 -412.67)"/><path class="cls-10" d="M628.5,432.26a2.63,2.63,0,0,0-.78-3.64c-1.22-.79-2.18,0-3,1.2s-1.11,2.42.12,3.21a2.62,2.62,0,0,0,3.64-.77" transform="translate(-430.9 -412.67)"/><path class="cls-9" d="M621.63,436.33a.8.8,0,0,0-.24-1.1l-3-2c-.37-.24-1.23,1.09-.86,1.33l3,2a.8.8,0,0,0,1.1-.23h0" transform="translate(-430.9 -412.67)"/><path class="cls-10" d="M624.6,438.26a2.63,2.63,0,0,0-.77-3.64c-1.22-.79-2.19,0-3,1.2s-1.11,2.42.11,3.21a2.62,2.62,0,0,0,3.64-.77" transform="translate(-430.9 -412.67)"/><path class="cls-9" d="M617.15,443.22a.79.79,0,0,0-.23-1.09l-3-2c-.36-.23-1.22,1.09-.86,1.33l3,2a.79.79,0,0,0,1.09-.24h0" transform="translate(-430.9 -412.67)"/><path class="cls-10" d="M620.13,445.16a2.64,2.64,0,0,0-.78-3.65c-1.22-.79-2.19,0-3,1.21s-1.11,2.42.11,3.21a2.64,2.64,0,0,0,3.65-.77" transform="translate(-430.9 -412.67)"/><polyline class="cls-8" points="165.96 35.73 165.76 35.61 176.78 15.94 176.97 16.07 165.96 35.73 165.96 35.73"/><polyline class="cls-8" points="167.68 36.85 167.48 36.72 180.81 9.63 181.01 9.76 167.68 36.85 167.68 36.85"/><polyline class="cls-8" points="169.31 37.91 169.11 37.78 189.87 15.23 190.07 15.36 169.31 37.91 169.31 37.91"/><polyline class="cls-8" points="170.84 38.9 170.64 38.77 185.63 21.29 185.82 21.42 170.84 38.9 170.84 38.9"/><polyline class="cls-8" points="172.3 39.85 172.1 39.72 181.24 27.96 181.44 28.09 172.3 39.85 172.3 39.85"/><polyline class="cls-8" points="164.31 34.69 164.12 34.57 172.25 22.7 172.45 22.83 164.31 34.69 164.31 34.69"/><path class="cls-7" d="M604.05,435.38a1.53,1.53,0,1,1-.45-2.11,1.52,1.52,0,0,1,.45,2.11" transform="translate(-430.9 -412.67)"/><path class="cls-11" d="M603.34,434.92a.68.68,0,0,1-1,.2.69.69,0,1,1,1-.2Z" transform="translate(-430.9 -412.67)"/><path class="cls-7" d="M608.53,428.48a1.53,1.53,0,1,1-.45-2.11,1.52,1.52,0,0,1,.45,2.11" transform="translate(-430.9 -412.67)"/><path class="cls-11" d="M607.82,428a.68.68,0,0,1-1.15-.74.69.69,0,0,1,1-.21.68.68,0,0,1,.2.95Z" transform="translate(-430.9 -412.67)"/><path class="cls-7" d="M612.72,422a1.53,1.53,0,1,1-.45-2.11,1.52,1.52,0,0,1,.45,2.11" transform="translate(-430.9 -412.67)"/><path class="cls-11" d="M612,421.56a.69.69,0,1,1-1.15-.75.69.69,0,0,1,1.15.75Z" transform="translate(-430.9 -412.67)"/><path class="cls-7" d="M623.22,428.83a1.53,1.53,0,1,1-.45-2.11,1.52,1.52,0,0,1,.45,2.11" transform="translate(-430.9 -412.67)"/><path class="cls-11" d="M622.51,428.38a.69.69,0,1,1-1.15-.75.69.69,0,0,1,1.15.75Z" transform="translate(-430.9 -412.67)"/><path class="cls-7" d="M619.32,434.83a1.53,1.53,0,1,1-.45-2.11,1.52,1.52,0,0,1,.45,2.11" transform="translate(-430.9 -412.67)"/><path class="cls-11" d="M618.62,434.38a.7.7,0,0,1-1,.2.69.69,0,0,1,.75-1.15.7.7,0,0,1,.2.95Z" transform="translate(-430.9 -412.67)"/><path class="cls-7" d="M614.84,441.73a1.53,1.53,0,1,1-.45-2.11,1.52,1.52,0,0,1,.45,2.11" transform="translate(-430.9 -412.67)"/><path class="cls-11" d="M614.14,441.28a.7.7,0,0,1-.95.2.69.69,0,0,1,.75-1.15.7.7,0,0,1,.2.95Z" transform="translate(-430.9 -412.67)"/><path class="cls-9" d="M522.76,541.69a2.43,2.43,0,1,1-.71-3.37,2.43,2.43,0,0,1,.71,3.37" transform="translate(-430.9 -412.67)"/><path class="cls-12" d="M521.46,540.84a.88.88,0,1,1-.26-1.22.88.88,0,0,1,.26,1.22Z" transform="translate(-430.9 -412.67)"/><path class="cls-13" d="M521,540.52c-.12.19-.25.1-.41,0l-1.5-.75a.39.39,0,0,1-.06-.53h0a.37.37,0,0,1,.5-.15l1.3,1.06c.16.11.29.19.17.37h0" transform="translate(-430.9 -412.67)"/><rect class="cls-3" x="509.9" y="556.6" width="27.13" height="13.84" rx="6.92" transform="translate(-39.64 -606.84) rotate(32.99)"/><rect class="cls-14" x="514.45" y="558.52" width="18.02" height="10.01" rx="5.01" transform="translate(-39.64 -606.84) rotate(32.99)"/><circle class="cls-15" cx="85.49" cy="139.73" r="0.97"/><path class="cls-15" d="M514.86,557.57a.57.57,0,0,1-.78.17.57.57,0,1,1,.78-.17Z" transform="translate(-430.9 -412.67)"/><circle class="cls-15" cx="102" cy="156.61" r="0.57"/><circle class="cls-15" cx="79.72" cy="148.63" r="0.97"/><circle class="cls-15" cx="105.59" cy="152.78" r="0.97"/><circle class="cls-15" cx="99.81" cy="161.67" r="0.97"/><rect class="cls-3" x="494.14" y="580.89" width="27.13" height="13.84" rx="6.92" transform="translate(-28.95 -594.34) rotate(32.99)"/><rect class="cls-14" x="498.69" y="582.8" width="18.02" height="10.01" rx="5.01" transform="matrix(0.84, 0.54, -0.54, 0.84, -28.95, -594.34)"/><circle class="cls-15" cx="69.72" cy="164.02" r="0.97"/><path class="cls-15" d="M499.1,581.86a.57.57,0,0,1-.79.16.56.56,0,0,1-.16-.78.56.56,0,0,1,.78-.17A.58.58,0,0,1,499.1,581.86Z" transform="translate(-430.9 -412.67)"/><circle class="cls-15" cx="86.24" cy="180.9" r="0.57"/><circle class="cls-15" cx="63.95" cy="172.91" r="0.97"/><circle class="cls-15" cx="89.82" cy="177.06" r="0.97"/><circle class="cls-15" cx="84.05" cy="185.96" r="0.97"/><path class="cls-15" d="M508,606.88l-17.87-11.6a1.56,1.56,0,0,1-.46-2.16h0a1.56,1.56,0,0,1,2.16-.46l17.87,11.6a1.56,1.56,0,0,1,.46,2.16h0A1.56,1.56,0,0,1,508,606.88Z" transform="translate(-430.9 -412.67)"/><rect class="cls-15" x="479.79" y="606.42" width="28.3" height="5.16" rx="2.58" transform="translate(-19.63 -583.43) rotate(32.99)"/><path class="cls-16" d="M502.39,615.16l-17.51-11.37a.58.58,0,0,1-.17-.78h0a.57.57,0,0,1,.78-.16L503,614.22a.55.55,0,0,1,.16.77h0A.55.55,0,0,1,502.39,615.16Z" transform="translate(-430.9 -412.67)"/><circle class="cls-17" cx="99.39" cy="210.98" r="3.51"/><circle class="cls-17" cx="514.04" cy="624.5" r="3.51" transform="translate(-720.56 302.92) rotate(-57.01)"/><circle class="cls-17" cx="74.07" cy="224.12" r="3.51"/><circle class="cls-17" cx="91.18" cy="225.21" r="3.51"/><circle class="cls-18" cx="91.18" cy="225.21" r="1.51"/><rect class="cls-7" x="593.1" y="448.9" width="13.14" height="1.24" rx="0.62" transform="translate(-89.42 -666.72) rotate(32.99)"/><polygon class="cls-7" points="105.08 118.11 118.04 126.53 118.42 125.94 105.47 117.54 105.08 118.11"/><polygon class="cls-7" points="108.08 113.79 107.69 114.36 120.51 122.69 120.89 122.1 108.08 113.79"/><polygon class="cls-7" points="130.34 81.84 141.96 89.38 142.33 88.79 130.74 81.27 130.34 81.84"/><polygon class="cls-7" points="134.32 76.13 145.72 83.53 146.09 82.95 134.72 75.56 134.32 76.13"/><polygon class="cls-7" points="102.63 121.62 115.73 130.12 116.11 129.54 103.03 121.05 102.63 121.62"/><polygon class="cls-7" points="98.14 128.06 111.48 136.72 111.86 136.14 98.54 127.49 98.14 128.06"/><polygon class="cls-7" points="126.52 87.33 138.34 95 138.72 94.41 126.92 86.75 126.52 87.33"/><polygon class="cls-7" points="116.28 102.03 128.65 110.06 129.02 109.47 116.68 101.46 116.28 102.03"/><polygon class="cls-7" points="119.9 96.83 119.5 97.4 131.7 105.32 132.07 104.73 119.9 96.83"/><polygon class="cls-7" points="123.36 91.87 122.96 92.44 134.97 100.24 135.34 99.65 123.36 91.87"/><polygon class="cls-7" points="138.51 70.11 149.69 77.36 150.06 76.78 138.91 69.54 138.51 70.11"/><polygon class="cls-7" points="94.57 133.18 94.17 133.75 107.73 142.55 108.11 141.97 94.57 133.18"/><polygon class="cls-7" points="92.69 135.89 92.29 136.47 105.94 145.33 106.32 144.75 92.69 135.89"/><polygon class="cls-7" points="96.53 130.38 96.13 130.95 109.58 139.69 109.95 139.1 96.53 130.38"/><polygon class="cls-7" points="104.75 147.19 91.02 138.28 90.62 138.85 104.37 147.78 104.75 147.19"/><polygon class="cls-7" points="147.69 56.94 158.37 63.87 158.75 63.28 148.09 56.37 147.69 56.94"/><polygon class="cls-7" points="153.01 49.31 152.61 49.88 163.03 56.64 163.4 56.05 153.01 49.31"/><polygon class="cls-7" points="142.97 63.72 153.9 70.82 154.28 70.23 143.37 63.15 142.97 63.72"/><polygon class="cls-7" points="168.23 48.55 158.12 41.98 157.72 42.55 167.85 49.13 168.23 48.55"/><polygon class="cls-7" points="163.25 34.62 173.09 41.01 173.66 40.12 163.85 33.75 163.25 34.62"/></svg>