<svg id="Layer_1" data-name="Layer 1" xmlns="http://www.w3.org/2000/svg" viewBox="0 0 218.06 224.41"><defs><style>.cls-1{fill:#d8d6ec;}.cls-2{fill:#303038;}.cls-3{fill:#ee4748;}.cls-4{fill:#e33736;}.cls-5{fill:#f4f4f4;}.cls-6{fill:#f8f7f0;}</style></defs><path class="cls-1" d="M458.61,464.26c-29.37,23.53-32,91.62-23.38,126.78s156.38,61.79,187.29,32S651,505.81,625.61,473.85,501.15,430.17,458.61,464.26Z" transform="translate(-427.1 -427.16)"/><path class="cls-2" d="M540.87,452.85l-4.77.46s-.81-1.87-1.66-2a5.16,5.16,0,0,0-5.07,2.86c-1.22,2.72,1.36,4.44,2.85,4.7s4.8.48,4.65-2.45l4.53-.55A2.39,2.39,0,0,0,540.87,452.85Z" transform="translate(-427.1 -427.16)"/><path class="cls-2" d="M541.74,455.55h0a1.49,1.49,0,0,1-.2.42l0,.07-4.45.54a2.63,2.63,0,0,1-.15,1c-.7,1.95-3.53,1.68-4.71,1.47a4.45,4.45,0,0,1-2.9-2,3.06,3.06,0,0,1-.2-2.66,1.48,1.48,0,0,1,.12-.29,5.35,5.35,0,0,1,5.26-3c.81.12,1.53,1.53,1.73,2l4.73-.45.06.05A2.57,2.57,0,0,1,541.74,455.55Zm-.45.16a2.19,2.19,0,0,0-.49-2.68l-4.81.47,0-.12c-.22-.5-.91-1.8-1.52-1.89a5,5,0,0,0-4.89,2.76,2.75,2.75,0,0,0,.06,2.63,4.14,4.14,0,0,0,2.66,1.83c1.1.19,3.71.45,4.32-1.25a2.53,2.53,0,0,0,.13-1v-.17Z" transform="translate(-427.1 -427.16)"/><path class="cls-2" d="M543.68,446.34l-4.07.34s-.19-1.65-2.69-1.44a4,4,0,0,0-4,3.77c0,1.77,3.21,3,5,2.78s2.06-2.24,2.06-2.24l3.1-.35Z" transform="translate(-427.1 -427.16)"/><path class="cls-2" d="M543.26,449.36l-3.1.35a3.63,3.63,0,0,1-.14.49A2.51,2.51,0,0,1,538,452a6.51,6.51,0,0,1-4.37-1.4,2.12,2.12,0,0,1-.81-1.56,3.57,3.57,0,0,1,.21-1.2,4.41,4.41,0,0,1,3.92-2.75c2.15-.18,2.7,1,2.83,1.43l4.16-.35Zm-3.4,0L543,449l.5-2.51-4,.33,0-.16c0-.06-.22-1.48-2.5-1.29a4.08,4.08,0,0,0-3.62,2.52,3.11,3.11,0,0,0-.19,1.08,1.77,1.77,0,0,0,.69,1.3,6.11,6.11,0,0,0,4.11,1.31,2.12,2.12,0,0,0,1.76-1.54,3.6,3.6,0,0,0,.15-.55Z" transform="translate(-427.1 -427.16)"/><path class="cls-3" d="M539.21,458.25a35.48,35.48,0,0,1,1.66-8.89,10.74,10.74,0,0,1,8.33-7.27l.74-2a29.07,29.07,0,0,1-3,.35,3.15,3.15,0,0,1-2.67-2.7,12.59,12.59,0,0,1,1.86-8.94c1.94-2.65,5.46-1.56,7.23-.12s3.4,9.29,3.9,11.33-.47,2.81-1.85,4.42-1.13,4.18-2.45,8.16-2,7.14-4.11,7.76a24.66,24.66,0,0,1-5.54.59Z" transform="translate(-427.1 -427.16)"/><path class="cls-4" d="M487.63,638.56s5.74,5.73,19.25,10.52,35.18,2.49,49-5.43,18.65-28.69,16.33-39-5.23-11-3.48-14.28,2-5,.35-5.35-5.57-5.55-5.57-5.55.14-.79-2.07.46a3.44,3.44,0,0,1-4-.5s-.65-17,1-22.62,4.91-7.15,6.91-7.27,3.46-.32,3.44-1.54-2.86-.85.4-10.64,5.77-22.46-5-29.75-45.47,11-45.47,11L505,550.35a10.47,10.47,0,0,1,6.73,3.86c3,3.62,8.84,17.35,8.84,17.35L496.94,632.1l-13.39-4.41S483.12,632.25,487.63,638.56Z" transform="translate(-427.1 -427.16)"/><path class="cls-3" d="M510.06,566s3.28-10.9.83-14.9-5.23-.41-5.87-.75a1.91,1.91,0,0,1,0-2.72c.84-.78,2.16-4.14,1.73-9.88s-1.2-24.45,20.55-33.63c0,0,20-7.74,30.82-2.32s8.55,18.8,5.54,26.36-3.31,10.71-2.36,12.45-.11,2.1-1.56,2.5-5.55-1.36-8.74,6.7-2,20,.28,24.93,6.07,5.07,8,4.38,2.93-2.2,3.69-1.74,1.39,1.06-.14,3.48-1.66,5.36.16,11.4,6.25,16.4-2.94,33.07-32.37,20.1-44.6,20.23-31.45-5.6-32.31-21,7.53-24.15,10-31.17.59-9.08,1.18-10.45.84-1.83,2.54-1.13S505.26,584.74,510.06,566Z" transform="translate(-427.1 -427.16)"/><path class="cls-2" d="M517.31,562.89a3.33,3.33,0,0,0-1.47,2.06c-.16,1.25,2.08,1.67,2.83-.27s-1.45-4.75-3.82-2.25-4.39,13.81-5.39,18.45-4.57,12.52-5.65,8.22c0,0,1.27.34,1.64-1.85s-2.68-2.07-3.61.34,1.65,4.39,4,3.45,4.31-5.35,5.83-11.58S513.69,562.75,517.31,562.89Z" transform="translate(-427.1 -427.16)"/><path class="cls-2" d="M517.34,547.88s6-4.52,14.75-1.45c0,0,3.95-19.4,7.19-44.83s7.86-48.48,7.86-48.48.42-1.43-1.24-1.2-6.14.76-6.14.76-1.12-.5-2.65,5.27S519.35,539.5,517.34,547.88Z" transform="translate(-427.1 -427.16)"/><path class="cls-2" d="M517.34,547.88l2.39.86s7.14-3.55,13.77-1.06c0,0,.13.42.57-1.56s7.17-51,9.75-67.89,3.91-25.46,3.91-25.46l-.73-.59-22,87.13Z" transform="translate(-427.1 -427.16)"/><path class="cls-2" d="M551.94,449.6a1.19,1.19,0,0,1-.77-1.21,1.27,1.27,0,0,1,1-1.16l6.35-.73s-.22-.68.7-.91,4.39-.45,4.39-.45a1.91,1.91,0,0,1,1.61.58,4.13,4.13,0,0,1,.86,2.63c-.17.59-.82.73-2.32.88s-3.29,1-4.33,0Z" transform="translate(-427.1 -427.16)"/><path class="cls-2" d="M566.25,448.47c-.23.64-1,.78-2.44.94a11.74,11.74,0,0,0-1.25.22c-1.15.25-2.34.51-3.16-.2l-7.51.34a1.35,1.35,0,0,1-.89-1.38,1.23,1.23,0,0,1,.08-.44,1.51,1.51,0,0,1,1.08-.89l6.19-.71a.91.91,0,0,1,0-.31,1,1,0,0,1,.81-.62c.92-.22,4.28-.45,4.42-.46a2.11,2.11,0,0,1,1.76.65,4.26,4.26,0,0,1,.89,2.79Zm-14.28.95,7.56-.35.05.05c.69.65,1.77.42,2.91.17a11.89,11.89,0,0,1,1.28-.23c1.51-.16,2-.28,2.17-.76a4,4,0,0,0-.83-2.48,1.77,1.77,0,0,0-1.44-.51s-3.49.23-4.38.45a.74.74,0,0,0-.56.4.45.45,0,0,0,0,.29l.06.2-6.56.75h0a1.23,1.23,0,0,0-.82.67,1.14,1.14,0,0,0,0,.33A1,1,0,0,0,552,449.42Z" transform="translate(-427.1 -427.16)"/><path class="cls-2" d="M554.79,446.17s-1.49-.31-.3-2.58l7.61-1.38a5.61,5.61,0,0,1,1.94-2.42c1.22-.67,4,.2,4.73,1.71s-1.68,7.35-5.83,4.17Z" transform="translate(-427.1 -427.16)"/><path class="cls-2" d="M568.76,443.77a4.43,4.43,0,0,1-2.67,2.89,3.54,3.54,0,0,1-3.2-.81l-8.14.49a1.21,1.21,0,0,1-.74-.56,2.46,2.46,0,0,1,.32-2.27l0-.07,7.61-1.39a5.55,5.55,0,0,1,2-2.41,3.46,3.46,0,0,1,2.61,0,3.92,3.92,0,0,1,2.36,1.8A3.44,3.44,0,0,1,568.76,443.77Zm-14,2.22,8.19-.5.06,0a3.26,3.26,0,0,0,2.94.8,4.12,4.12,0,0,0,2.44-2.68,3.06,3.06,0,0,0,.18-2.07,3.48,3.48,0,0,0-2.15-1.61,3.14,3.14,0,0,0-2.33,0,5.48,5.48,0,0,0-1.87,2.32l0,.09-.1,0-7.53,1.37a2.09,2.09,0,0,0-.28,1.86A.82.82,0,0,0,554.8,446Z" transform="translate(-427.1 -427.16)"/><path class="cls-2" d="M527.35,594.09s-10.18.31-12.15.35-1.89,1.64-1.89,1.64c-.71,5-.13,9.34,1.07,15.82s.33,17.32-1.83,25.37.18,8.23.18,8.23a47.34,47.34,0,0,0,7.46-.14c2.17-5.06-.46-23.06,2.69-30.48s5.55-16.13,5.77-18.55S527.35,594.09,527.35,594.09Zm-12.56,7.47a.65.65,0,0,1-.62-.7l.27-4.71a.65.65,0,0,1,.7-.62.66.66,0,0,1,.62.7l-.27,4.71A.65.65,0,0,1,514.79,601.56Zm2.33-.17a.67.67,0,0,1-.63-.7l.27-4.72a.67.67,0,0,1,.7-.62.66.66,0,0,1,.63.7l-.27,4.71A.67.67,0,0,1,517.12,601.39Zm2.93-.25a.67.67,0,0,1-.62-.7l.27-4.72a.66.66,0,0,1,.7-.62.65.65,0,0,1,.62.7l-.27,4.71A.66.66,0,0,1,520.05,601.14Zm5.07-5.45-.27,4.72a.68.68,0,0,1-.71.62.66.66,0,0,1-.62-.7l.27-4.71a.67.67,0,0,1,1.33.07Z" transform="translate(-427.1 -427.16)"/><path class="cls-2" d="M506,644.65a52.43,52.43,0,0,1-16.42-3.79c-9.22-3.65-9.09-11.91-9.09-11.91s3.33-5.43,11.64-10.42,18.78-.69,20.44,4.6,2.16,14.67,1,17.8S506,644.65,506,644.65Z" transform="translate(-427.1 -427.16)"/><path class="cls-5" d="M515.22,598.77a.52.52,0,0,1-.59.09c-.92-.44-1.14-3.77-.64-9.91,1.85-22.91,5.82-48.56,11.8-76.24,8.3-38.45,14.24-59.67,14.3-59.88l.33.1c0,.21-6,21.41-14.29,59.85-6,27.66-9.94,53.3-11.79,76.2-.68,8.34.16,9.43.44,9.57a.2.2,0,0,0,.21,0Z" transform="translate(-427.1 -427.16)"/><path class="cls-5" d="M517.27,599.82c-.28,0-1.18-.83-1-9.59.15-9.52,4.67-43.94,13.9-87.58,9.2-43.42,10.71-49.48,10.72-49.54l.34.09c0,.06-1.53,6.12-10.71,49.52-9.24,43.62-13.76,78-13.9,87.52-.13,8.54.74,9.22.77,9.24h0Z" transform="translate(-427.1 -427.16)"/><path class="cls-5" d="M520.62,599.57a.46.46,0,0,1-.41-.17c-.79-.75-1.85-4.37,0-20.15,2.44-21,8.84-60.12,14.58-89s8-37.28,8-37.36l.34.09c0,.08-2.28,8.56-8,37.34s-12.13,67.95-14.57,89c-1.83,15.83-.71,19.12-.15,19.8.11.13.19.14.19.14Z" transform="translate(-427.1 -427.16)"/><path class="cls-5" d="M524.55,599.07l-.35,0c0-.15-1-15.24,5.35-53.35s14.79-93.07,14.87-93.62l.35.05c-.09.55-8.52,55.54-14.88,93.63S524.54,598.93,524.55,599.07Z" transform="translate(-427.1 -427.16)"/><path class="cls-2" d="M536.55,561.18s1-.2.92,1.67-2.78,1.81-3.18-.48,3.83-5.08,7.23-2.21,2.56,10.27,1.88,15-.68,12.34,1.69,13.38,3.18-1.84,3.18-1.84a2.09,2.09,0,0,1-.84-2.26c.24-1.68,3.39-1.58,4-.13s-2.08,6.27-6.86,5-4.88-7-4.61-12.78,2.3-15.3-.76-16.47S536.55,561.18,536.55,561.18Z" transform="translate(-427.1 -427.16)"/><path class="cls-4" d="M427.1,565.53,625.53,522s2.16-.63,2.75,1.09,1.31,4.53,2.46,4.73,3.91.5,3.79.77S624,531,624,531a1,1,0,0,1,.18-.68,5,5,0,0,0,.48-2.7c-.17-1-.42-1.9-.42-1.9a1.6,1.6,0,0,0-1.54-.32l-195,42.26Z" transform="translate(-427.1 -427.16)"/><path class="cls-2" d="M447.67,560.43l8.45-2s.56,0,.85,1.16.34,1.66.34,1.66a1.25,1.25,0,0,1-.65.65c-.46.15-8.36,2-8.36,2s.38.77-.34,1-3.68.8-3.68.8-1.44.42-1.19,1.66,2.14.68,3.06.51a15,15,0,0,1,2.46-.5c.32.08.41,1.39.4,1.59s-10.2,2.4-10.2,2.4-1.47.44-1.68-.41-1.15-5.06-1.15-5.06l12-2.59-.57-1.89S447.14,560.7,447.67,560.43Z" transform="translate(-427.1 -427.16)"/><rect class="cls-6" x="446.97" y="549.84" width="179.05" height="0.33" transform="translate(-531.34 -301.17) rotate(-12.22)"/></svg>