<?xml version="1.0" encoding="utf-8"?>
<!-- Generator: Adobe Illustrator 24.2.0, SVG Export Plug-In . SVG Version: 6.00 Build 0)  -->
<svg version="1.1" id="Layer_1" xmlns="http://www.w3.org/2000/svg" xmlns:xlink="http://www.w3.org/1999/xlink" x="0px" y="0px"
	 viewBox="0 0 214.3 204" style="enable-background:new 0 0 214.3 204;" xml:space="preserve">
<style type="text/css">
	.st0{fill:#C5DF94;}
	.st1{fill:#26180F;}
	.st2{fill:#0A0A0A;}
	.st3{fill:#3C2417;}
	.st4{fill:#EABE7B;}
	.st5{fill:#916728;}
	.st6{fill:#231F20;}
	.st7{fill:#A87C51;}
	.st8{fill:#858687;}
	.st9{fill:#BCBDBF;}
	.st10{fill:#FDDFC1;}
	.st11{fill:#9D7A54;}
	.st12{fill:#FFFFFF;}
	.st13{fill:#C2986B;}
	.st14{fill:#7F8489;}
	.st15{fill:#E2E4E8;}
</style>
<path class="st0" d="M27.7,20.6c-29.4,23.5-32,91.6-23.4,126.8s156.4,61.8,187.3,32s28.5-117.2,3.1-149.2S70.2-13.5,27.7,20.6z"/>
<path class="st1" d="M122.2,93.5c0.8,2.8,2.2,5.4,4.2,7.5c0,0,1.1,1.2-3.6,4.4l-6.8-6L122.2,93.5z"/>
<path d="M115.6,99.8c-0.1-0.1-0.2-0.2-0.2-0.4c0-0.1,0.1-0.3,0.2-0.4l6.2-5.9c0.1-0.1,0.3-0.2,0.5-0.1c0.2,0,0.3,0.2,0.3,0.4
	c0.8,2.7,2.2,5.2,4.1,7.3c0.2,0.3,0.3,0.6,0.2,0.9c-0.1,1.1-1.5,2.6-3.9,4.2c-0.2,0.1-0.4,0.1-0.6,0L115.6,99.8L115.6,99.8z
	 M121.9,94.5l-5.2,5l6.1,5.4c2.9-2,3.3-3.2,3.1-3.5C124.2,99.4,122.8,97,121.9,94.5z M126,101.4L126,101.4z"/>
<polygon class="st1" points="181,37 177.1,34.4 173.8,31.1 87.8,112.6 93.2,117.9 98.4,123.2 "/>
<path class="st2" d="M192.6,9.7l-0.3-0.2c-0.7-0.5-1.7-0.4-2.2,0.3l-14.3,16.6c-0.2,0.2-0.3,0.4-0.3,0.6l-1,3.5
	c-0.2,0.5,0,1.1,0.4,1.5l2.3,2.4l2.3,2.4c0.4,0.4,1,0.5,1.5,0.4l3.5-1c0.2-0.1,0.4-0.2,0.6-0.4l16.7-14.2c0.7-0.5,0.8-1.5,0.3-2.2
	l-0.2-0.3C199.2,15.5,196,12.4,192.6,9.7z"/>
<path class="st3" d="M26.7,185.6c17.6,17.7,48.4,26.1,65.2,9.3s8.3-36.2,14.8-43.5s19.2-4.5,25-18.9s-11.8-32.4-11.8-32.4
	s-18-17.7-32.3-11.9s-11.7,18.4-19,24.9S41.9,111,25,127.8S9,167.9,26.7,185.6z"/>
<path class="st4" d="M27.1,186.1c-0.7-0.6-1.4-1.3-2-1.9c-8.9-9-14.5-20.1-15.9-31.3c-1.4-11.8,2.2-22.7,10.3-30.7
	c10.5-10.5,21.9-11.2,31-11.7c5.5-0.3,9.9-0.6,12.5-2.9s4-5.8,5.4-9.3c2.2-5.7,4.7-12.1,13.7-15.7c13.1-5.2,29.2,8.6,32.2,11.4
	c0.4,0.4,0.7,0.6,0.7,0.6c3.1,3.3,5.8,7,8.1,10.9c4.9,8.4,6.2,16,3.8,22c-3.6,9-10.1,11.5-15.7,13.7c-3.5,1.4-6.9,2.6-9.3,5.4
	s-2.7,7-3,12.5c-0.6,9.1-1.3,20.4-11.8,31c-7.8,7.8-18,11.4-29.5,10.3C46.8,199.4,36,194.3,27.1,186.1L27.1,186.1z"/>
<path class="st5" d="M114.1,94.4c0.4,0.4,0.6,0.6,0.6,0.6s17.6,18,11.8,32.4s-18.5,11.6-25,18.9s2.1,26.7-14.8,43.5
	c-16.2,16.2-41.6,12.1-59.2-4c-0.7-0.6-1.3-1.2-2-1.9C7.9,166.1,3,139.4,19.9,122.6s36.2-8.1,43.5-14.6s4.6-19.2,19-24.9
	C95.2,78,110.8,91.3,114.1,94.4 M114.8,93.6c-3.8-3.5-8-6.4-12.5-8.9c-7.7-4-14.5-4.9-20.2-2.7c-9.3,3.7-11.8,10.2-14,16
	c-1.4,3.5-2.6,6.8-5.3,9.1s-6.8,2.5-12.2,2.8c-5.1,0.1-10.1,0.8-15,2.1c-6.2,1.8-11.8,5.1-16.4,9.7c-4.1,4.1-7.2,9.1-9,14.6
	c-1.7,5.3-2.2,11-1.5,16.5c1.4,11.3,7,22.5,16,31.5c0.7,0.7,1.3,1.3,2,1.9c9,8.2,19.9,13.4,30.7,14.4c5.4,0.5,10.8-0.1,16-1.8
	c5.3-1.8,10.1-4.8,14-8.7c4.6-4.5,8-10.1,9.8-16.3c1.3-4.9,2-9.9,2.2-15c0.3-5.4,0.6-9.7,2.9-12.2s5.7-3.9,9.1-5.2
	c5.8-2.2,12.3-4.7,16-14c2.5-6.2,1.2-14-3.8-22.5c-2.3-4-5.1-7.6-8.2-11l0,0C115.4,94.2,115.1,93.9,114.8,93.6L114.8,93.6z"/>
<path class="st6" d="M101.5,117.3c0,0,8.9,9.9-3.9,27.4s-19.7,13.2-23.6,9.9s-7.4-12,5-23.5C78.9,131.1,96.7,136.7,101.5,117.3z"/>
<path d="M73.3,154.8c-2.2-2-3.4-4.9-3.5-7.8c-0.2-6.4,4.7-12.3,8.8-16.2l0.2-0.2l0.3,0.1c0.1,0,7.4,2.2,13.7-1.3
	c4-2.2,6.8-6.3,8.2-12.1l0.2-0.9l0.6,0.7c1.7,2.1,2.7,4.7,3,7.4c0.6,4.3-0.2,11.5-6.9,20.6c-6,8.2-11.3,12.5-16.1,13.1
	c-3.6,0.4-6.2-1.3-8.3-3L73.3,154.8z M79.1,131.7c-7,6.6-8.3,11.9-8.2,15.2c0,2.8,1.3,5.5,3.5,7.4c2,1.7,4.4,3.2,7.5,2.8
	c4.4-0.5,9.6-4.8,15.4-12.7c3.6-4.9,7.7-12.3,6.7-19.8c-0.3-2.2-1-4.3-2.2-6.1c-1.6,5.5-4.4,9.5-8.5,11.7
	C87.3,133.6,80.6,132.1,79.1,131.7z"/>
<ellipse transform="matrix(0.7087 -0.7055 0.7055 0.7087 -61.8029 96.5212)" class="st7" cx="86" cy="123.1" rx="16.2" ry="15"/>
<ellipse transform="matrix(0.7087 -0.7055 0.7055 0.7087 -61.8029 96.5212)" class="st3" cx="86" cy="123.1" rx="14.7" ry="13.6"/>
<ellipse transform="matrix(0.7087 -0.7055 0.7055 0.7087 -61.8101 96.5247)" class="st4" cx="86" cy="123.1" rx="13" ry="12"/>
<ellipse transform="matrix(0.7087 -0.7055 0.7055 0.7087 -61.8029 96.5212)" cx="86" cy="123.1" rx="11.4" ry="10.6"/>
<path d="M77.9,131.8l-0.3-0.3c-4.3-4.3-4-11.7,0.6-16.3c2.2-2.2,5.1-3.5,8.3-3.7c5.8-0.3,10.8,4.2,11.1,10c0,0.4,0,0.8,0,1.2
	c-0.3,6.4-5.5,11.6-11.9,11.9C82.7,134.7,80,133.7,77.9,131.8z M93.4,115c-1.9-1.7-4.4-2.6-7-2.5c-2.9,0.1-5.6,1.3-7.6,3.3
	c-4.3,4.2-4.5,10.9-0.6,14.9c1.9,1.9,4.6,2.9,7.3,2.8c2.9-0.1,5.6-1.3,7.6-3.4l0,0c2-2,3.3-4.7,3.4-7.6c0.1-2.7-0.9-5.4-2.8-7.3
	L93.4,115z"/>
<rect x="185.6" y="9.4" transform="matrix(0.7087 -0.7055 0.7055 0.7087 46.4633 134.6654)" class="st8" width="1.4" height="3.4"/>
<path class="st9" d="M182.7,10.9L182.7,10.9c-0.7-0.7-0.7-1.8,0-2.5l1.3-1.3c0.7-0.7,1.8-0.7,2.5,0l0,0c0.7,0.7,0.7,1.8,0,2.5
	l-1.3,1.3C184.5,11.6,183.4,11.6,182.7,10.9z"/>
<rect x="180.6" y="15.4" transform="matrix(0.7087 -0.7055 0.7055 0.7087 40.7661 132.8857)" class="st8" width="1.4" height="3.4"/>
<path class="st9" d="M177.7,16.9L177.7,16.9c-0.7-0.7-0.7-1.8,0-2.5l1.3-1.3c0.7-0.7,1.8-0.7,2.5,0l0,0c0.7,0.7,0.7,1.8,0,2.5
	l-1.3,1.3C179.5,17.6,178.4,17.6,177.7,16.9z"/>
<rect x="175.7" y="21.4" transform="matrix(0.7086 -0.7056 0.7056 0.7086 35.1397 131.2159)" class="st8" width="1.4" height="3.4"/>
<path class="st9" d="M172.7,22.9L172.7,22.9c-0.7-0.7-0.7-1.8,0-2.5l1.3-1.3c0.7-0.7,1.8-0.7,2.5,0l0,0c0.7,0.7,0.7,1.8,0,2.5
	l-1.3,1.3C174.5,23.6,173.4,23.6,172.7,22.9z"/>
<polygon class="st3" points="179.3,36.6 176.1,33.3 172.8,30.1 86.8,111.6 92.1,116.9 97.4,122.2 "/>
<path class="st6" d="M191.6,8.7l-0.3-0.2c-0.7-0.5-1.7-0.4-2.2,0.3l-14.3,16.6c-0.2,0.2-0.3,0.4-0.3,0.6l-1,3.5
	c-0.2,0.5,0,1.1,0.3,1.5l2.3,2.4l2.3,2.4c0.4,0.4,1,0.5,1.5,0.4l3.5-1c0.2-0.1,0.5-0.2,0.6-0.4l16.7-14.2c0.7-0.5,0.8-1.5,0.3-2.2
	l-0.2-0.3C198.1,14.5,195,11.4,191.6,8.7z"/>
<path class="st3" d="M56.9,154.5c-0.4-0.4-0.8-0.8-1.2-1.2l-0.2-0.2c-6.5-6.5-7.3-11.9-7.4-13l-3.5-3.5c-0.1-0.1-0.1-0.2-0.1-0.4
	c0-0.1,0.1-0.3,0.1-0.4l3.3-3.3c0.1-0.1,0.2-0.1,0.4-0.2c0.1,0,0.2,0,0.3,0.1l27.4,27.6c0.2,0.2,0.2,0.5,0,0.7l-3.3,3.3
	c-0.2,0.2-0.5,0.2-0.7,0l-3.5-3.5C67.6,160.7,62.8,160,56.9,154.5z"/>
<path d="M48.3,133.1l13.8,13.8l13.7,13.8l-3.3,3.3l-3.6-3.6c0,0-5.1-0.2-11.6-6.2c-0.4-0.4-0.8-0.7-1.2-1.2l-0.2-0.2
	c-7.1-7.1-7.2-12.8-7.2-12.8l-3.6-3.6L48.3,133.1 M49.1,132.4c-0.4-0.4-1-0.4-1.4,0l-3.3,3.3c-0.4,0.4-0.4,1,0,1.4c0,0,0,0,0,0
	l3.3,3.3c0.2,1.5,1.2,6.8,7.5,13.1l0.2,0.2c0.4,0.4,0.8,0.8,1.2,1.2c5.7,5.2,10.4,6.2,11.9,6.4l3.3,3.3l0,0c0.4,0.4,1,0.4,1.4,0
	l3.3-3.3c0.2-0.2,0.3-0.5,0.3-0.7c0-0.3-0.1-0.5-0.3-0.7l-13.7-13.8L49.1,132.4L49.1,132.4L49.1,132.4z"/>
<path class="st10" d="M55.5,142l11.8,11.9c0.3,0.3,0.3,0.8,0,1.2l0,0c-0.3,0.3-0.8,0.3-1.2,0l-11.8-11.9c-0.3-0.3-0.3-0.8,0-1.2l0,0
	C54.7,141.7,55.2,141.7,55.5,142z"/>
<path class="st11" d="M66.4,155.6L66.4,155.6L53.9,143c-0.2-0.2-0.2-0.6,0-0.8l0.8-0.7c0.1-0.1,0.2-0.2,0.4-0.2
	c0.1,0,0.3,0.1,0.4,0.2l12.5,12.6c0.2,0.2,0.2,0.6,0,0.8l-0.8,0.8C67,155.8,66.6,155.8,66.4,155.6L66.4,155.6z M66.7,155.2
	C66.7,155.2,66.8,155.2,66.7,155.2l0.8-0.8c0,0,0,0,0-0.1L55,141.8c0,0,0,0-0.1,0l-0.8,0.7c0,0,0,0.1,0,0.1L66.7,155.2z"/>
<path class="st10" d="M54.6,146.4c-0.4,0.4-1.1,0.3-1.4-0.1c-0.4-0.4-0.3-1.1,0.1-1.4c0.4-0.3,1-0.3,1.4,0.1
	C55,145.3,55,146,54.6,146.4C54.6,146.4,54.6,146.4,54.6,146.4z"/>
<path class="st11" d="M53,146.7L53,146.7c-0.5-0.5-0.5-1.3,0.1-1.8c0.2-0.2,0.6-0.4,0.9-0.4c0.3,0,0.7,0.1,0.9,0.4
	c0.2,0.2,0.4,0.6,0.4,0.9c0,0.3-0.2,0.7-0.4,0.9l0,0C54.3,147.1,53.5,147.2,53,146.7z M54.4,145.1c-0.1-0.1-0.3-0.2-0.5-0.2
	c-0.2,0-0.4,0.1-0.6,0.3c-0.3,0.3-0.4,0.8-0.1,1.1c0,0,0,0,0,0c0.3,0.3,0.8,0.3,1.1-0.1c0,0,0,0,0,0c0.2-0.2,0.3-0.4,0.3-0.6
	C54.7,145.5,54.6,145.3,54.4,145.1L54.4,145.1z"/>
<path class="st10" d="M56.6,148.4c-0.4,0.4-1.1,0.3-1.4-0.1c-0.4-0.4-0.3-1.1,0.1-1.4c0.4-0.3,1-0.3,1.3,0.1
	C57,147.3,57,148,56.6,148.4C56.6,148.4,56.6,148.4,56.6,148.4z"/>
<path class="st11" d="M55,148.7L55,148.7c-0.5-0.5-0.5-1.3,0.1-1.8c0,0,0,0,0,0c0.2-0.3,0.6-0.4,0.9-0.4c0.7,0,1.2,0.5,1.3,1.2
	c0,0,0,0.1,0,0.1c0,0.3-0.2,0.7-0.4,0.9l0,0c-0.2,0.2-0.6,0.4-0.9,0.4C55.5,149.1,55.2,148.9,55,148.7z M56.4,147.1
	c-0.1-0.1-0.3-0.2-0.5-0.2c-0.2,0-0.4,0.1-0.6,0.3c-0.3,0.3-0.3,0.8-0.1,1.1c0,0,0,0,0,0c0.1,0.1,0.3,0.2,0.5,0.2
	c0.2,0,0.4-0.1,0.6-0.3l0,0c0.2-0.2,0.3-0.4,0.3-0.6C56.7,147.5,56.6,147.3,56.4,147.1L56.4,147.1z"/>
<path class="st10" d="M58.6,150.4c-0.4,0.4-1.1,0.3-1.4-0.1c-0.4-0.4-0.3-1.1,0.1-1.4c0.4-0.3,1-0.3,1.3,0.1
	C59,149.4,59,150,58.6,150.4z"/>
<path class="st11" d="M56.9,150.7L56.9,150.7c-0.2-0.2-0.4-0.6-0.4-0.9c0-0.3,0.2-0.7,0.4-0.9c0.5-0.5,1.3-0.5,1.8,0
	c0.5,0.5,0.5,1.3,0,1.8l0,0C58.3,151.2,57.5,151.2,56.9,150.7z M58.4,149.1c-0.3-0.3-0.8-0.2-1.1,0.1c-0.2,0.2-0.2,0.4-0.3,0.6
	c0,0.2,0.1,0.4,0.2,0.5c0.3,0.3,0.8,0.3,1.1,0c0,0,0,0,0,0l0,0C58.7,150,58.7,149.5,58.4,149.1L58.4,149.1z"/>
<path class="st10" d="M60.6,152.4c-0.4,0.4-1.1,0.3-1.4-0.1c-0.4-0.4-0.3-1.1,0.1-1.4c0.4-0.3,1-0.3,1.4,0.1
	C61,151.4,61,152,60.6,152.4C60.6,152.4,60.6,152.4,60.6,152.4z"/>
<path class="st11" d="M58.9,152.7L58.9,152.7c-0.2-0.2-0.4-0.6-0.4-0.9c0-0.3,0.2-0.7,0.4-0.9c0.2-0.2,0.6-0.4,0.9-0.4
	c0.3,0,0.7,0.1,0.9,0.3c0.2,0.2,0.4,0.6,0.4,0.9c0,0.3-0.2,0.7-0.4,0.9l0,0c-0.2,0.2-0.6,0.4-0.9,0.4
	C59.5,153.1,59.2,152.9,58.9,152.7z M60.4,151.1c-0.1-0.1-0.3-0.2-0.5-0.2c-0.5,0-0.8,0.4-0.8,0.8c0,0.4,0.3,0.7,0.6,0.7
	c0,0,0.1,0,0.1,0c0.2,0,0.4-0.1,0.6-0.3c0.2-0.2,0.2-0.4,0.3-0.6C60.7,151.5,60.6,151.3,60.4,151.1L60.4,151.1z"/>
<path class="st10" d="M62.6,154.4c-0.4,0.4-1.1,0.3-1.4-0.1s-0.3-1.1,0.1-1.4c0.4-0.3,1-0.3,1.3,0C63,153.3,63,154,62.6,154.4
	C62.6,154.4,62.6,154.4,62.6,154.4z"/>
<path class="st11" d="M60.9,154.7L60.9,154.7c-0.5-0.5-0.5-1.3,0.1-1.8c0.2-0.2,0.6-0.4,0.9-0.4c0.3,0,0.7,0.1,0.9,0.4
	c0.5,0.5,0.5,1.3-0.1,1.8c0,0,0,0,0,0c-0.2,0.2-0.6,0.4-0.9,0.4C61.5,155.1,61.2,155,60.9,154.7z M62.4,153.1
	c-0.1-0.1-0.3-0.2-0.5-0.2c-0.2,0-0.4,0.1-0.6,0.3c-0.3,0.3-0.4,0.8-0.1,1.1c0,0,0,0,0,0c0.1,0.1,0.3,0.2,0.5,0.2
	c0.2,0,0.4-0.1,0.6-0.3C62.7,154,62.7,153.5,62.4,153.1C62.4,153.1,62.4,153.1,62.4,153.1L62.4,153.1z"/>
<path class="st10" d="M64.6,156.5c-0.4,0.4-1.1,0.3-1.4-0.1c-0.4-0.4-0.3-1.1,0.1-1.4c0.4-0.3,1-0.3,1.3,0.1
	C65,155.4,65,156,64.6,156.5C64.6,156.4,64.6,156.4,64.6,156.5z"/>
<path class="st11" d="M62.9,156.7L62.9,156.7c-0.2-0.2-0.4-0.6-0.4-0.9c0-0.3,0.2-0.7,0.4-0.9c0.2-0.2,0.6-0.4,0.9-0.4
	c0.3,0,0.7,0.1,0.9,0.3c0.2,0.2,0.4,0.6,0.4,0.9c0,0.3-0.2,0.7-0.4,0.9l0,0c-0.2,0.2-0.6,0.4-0.9,0.4
	C63.5,157.1,63.2,157,62.9,156.7z M64.4,155.1c-0.1-0.1-0.3-0.2-0.5-0.2c-0.2,0-0.4,0.1-0.6,0.2c-0.2,0.2-0.3,0.4-0.3,0.6
	c0,0.2,0.1,0.4,0.2,0.5c0.1,0.1,0.3,0.2,0.5,0.2c0.2,0,0.4-0.1,0.6-0.3l0,0c0.2-0.2,0.3-0.4,0.3-0.6
	C64.6,155.5,64.6,155.3,64.4,155.1L64.4,155.1z"/>
<path class="st12" d="M172.8,30.2l6.3,6.4c0.2,0.2,0.2,0.6,0,0.8l0,0c-0.2,0.2-0.6,0.2-0.8,0l-6.3-6.4c-0.2-0.2-0.2-0.6,0-0.8l0,0
	C172.3,30,172.6,30,172.8,30.2z"/>
<path d="M178.4,37.9L178.4,37.9L178.4,37.9l-6.8-6.8c-0.1-0.1-0.2-0.3-0.2-0.5c0-0.2,0.1-0.4,0.2-0.5l0.5-0.5
	c0.1-0.1,0.3-0.2,0.5-0.2c0.2,0,0.4,0.1,0.5,0.2l6.8,6.9c0.1,0.1,0.2,0.3,0.2,0.5c0,0.2-0.1,0.4-0.2,0.5l-0.5,0.5
	c-0.1,0.1-0.3,0.2-0.5,0.2C178.7,38.2,178.5,38.1,178.4,37.9z M172.5,30.6l6.4,6.4v0L172.5,30.6L172.5,30.6z"/>
<path class="st12" d="M166.7,36.3l6.3,6.3c0.2,0.2,0.2,0.6,0,0.8l0,0c-0.2,0.2-0.6,0.2-0.8,0l-6.3-6.3c-0.2-0.2-0.2-0.6,0-0.8l0,0
	C166.1,36.1,166.5,36.1,166.7,36.3z"/>
<path d="M172.2,44.1L172.2,44.1L172.2,44.1l-6.8-6.8c-0.3-0.3-0.3-0.7,0-1l0.5-0.5c0.3-0.3,0.7-0.3,1,0c0,0,0,0,0,0l6.8,6.8
	c0.3,0.3,0.3,0.7,0,1l-0.5,0.5C172.9,44.4,172.5,44.4,172.2,44.1z M166.3,36.7l6.4,6.4l0.1-0.1L166.3,36.7L166.3,36.7z"/>
<path class="st12" d="M160.9,41.9l6.5,6.6c0.2,0.2,0.2,0.6,0,0.8l0,0c-0.2,0.2-0.6,0.2-0.8,0l-6.5-6.6c-0.2-0.2-0.2-0.6,0-0.8l0,0
	C160.3,41.7,160.7,41.7,160.9,41.9z"/>
<path d="M166.6,49.9L166.6,49.9L166.6,49.9l-7-7.1c-0.3-0.3-0.3-0.7,0-1l0.5-0.5c0.3-0.3,0.7-0.3,1,0l7,7.1c0.3,0.3,0.3,0.7,0,1
	c0,0,0,0,0,0l-0.5,0.5c-0.1,0.1-0.3,0.2-0.5,0.2C166.9,50.1,166.7,50,166.6,49.9z M160.5,42.3l6.6,6.6l0.1-0.1L160.5,42.3
	L160.5,42.3z"/>
<path class="st12" d="M155,47.3l7,7c0.2,0.2,0.2,0.6,0,0.8l0,0c-0.2,0.2-0.6,0.2-0.8,0l-7-7c-0.2-0.2-0.2-0.6,0-0.8l0,0
	C154.4,47.1,154.8,47.1,155,47.3z"/>
<path d="M161.2,55.7L161.2,55.7L161.2,55.7l-7.5-7.5c-0.1-0.1-0.2-0.3-0.2-0.5c0-0.2,0.1-0.4,0.2-0.5l0.5-0.5
	c0.1-0.1,0.3-0.2,0.5-0.2c0.2,0,0.4,0.1,0.5,0.2l7.5,7.5c0.1,0.1,0.2,0.3,0.2,0.5c0,0.2-0.1,0.4-0.2,0.5l-0.5,0.5
	C161.9,56,161.5,56,161.2,55.7C161.2,55.7,161.2,55.7,161.2,55.7z M154.6,47.7l7,7.1l0.1-0.1L154.6,47.7L154.6,47.7z"/>
<path class="st12" d="M149.6,52.4l7.2,7.3c0.2,0.2,0.2,0.6,0,0.8l0,0c-0.2,0.2-0.6,0.2-0.8,0l-7.2-7.3c-0.2-0.2-0.2-0.6,0-0.8l0,0
	C149.1,52.2,149.4,52.2,149.6,52.4z"/>
<path d="M156,61.1L156,61.1L156,61.1l-7.7-7.8c-0.3-0.3-0.3-0.7,0-1l0.5-0.5c0.3-0.3,0.7-0.3,1,0l7.7,7.8c0.3,0.3,0.3,0.7,0,1
	l-0.5,0.5C156.7,61.4,156.3,61.4,156,61.1z M149.2,52.8l7.3,7.3l0.1-0.1L149.2,52.8L149.2,52.8z"/>
<path class="st12" d="M144.4,57.4l7.4,7.4c0.2,0.2,0.2,0.6,0,0.8l0,0c-0.2,0.2-0.6,0.2-0.8,0l-7.4-7.4c-0.2-0.2-0.2-0.6,0-0.8l0,0
	C143.9,57.2,144.2,57.2,144.4,57.4z"/>
<path d="M151,66.3L151,66.3L151,66.3l-7.9-7.9c-0.1-0.1-0.2-0.3-0.2-0.5c0-0.2,0.1-0.4,0.2-0.5l0.5-0.5c0.3-0.3,0.7-0.3,1,0l7.9,7.9
	c0.1,0.1,0.2,0.3,0.2,0.5c0,0.2-0.1,0.4-0.2,0.5l-0.5,0.5C151.7,66.5,151.3,66.5,151,66.3z M144,57.8l7.5,7.5l0.1-0.1L144,57.8
	L144,57.8z"/>
<path class="st12" d="M139.7,61.9l7.7,7.7c0.2,0.2,0.2,0.6,0,0.8l0,0c-0.2,0.2-0.6,0.2-0.8,0l-7.7-7.7c-0.2-0.2-0.2-0.6,0-0.8l0,0
	C139.1,61.7,139.5,61.7,139.7,61.9z"/>
<path d="M146.5,71L146.5,71l-8.2-8.2c-0.1-0.1-0.2-0.3-0.2-0.5c0-0.2,0.1-0.4,0.2-0.5l0.5-0.5c0.3-0.3,0.7-0.3,1,0l8.2,8.2
	c0.1,0.1,0.2,0.3,0.2,0.5c0,0.2-0.1,0.4-0.2,0.5l-0.5,0.5C147.2,71.3,146.8,71.3,146.5,71z M147.2,70.3L147.2,70.3z M139.2,62.3
	l7.8,7.8l0.1-0.1l-7.8-7.8L139.2,62.3z M139,62.5L139,62.5z"/>
<path class="st12" d="M135,66.2l7.9,8c0.2,0.2,0.2,0.6,0,0.8l0,0c-0.2,0.2-0.6,0.2-0.8,0l-7.9-8c-0.2-0.2-0.2-0.6,0-0.8l0,0
	C134.5,66,134.8,66,135,66.2z"/>
<path d="M142.1,75.6L142.1,75.6L142.1,75.6l-8.5-8.5c-0.1-0.1-0.2-0.3-0.2-0.5c0-0.2,0.1-0.4,0.2-0.5l0.5-0.5
	c0.1-0.1,0.3-0.2,0.5-0.2c0.2,0,0.4,0.1,0.5,0.2l8.4,8.5c0.3,0.3,0.3,0.7,0,1l-0.5,0.5c-0.1,0.1-0.3,0.2-0.5,0.2
	C142.5,75.8,142.3,75.7,142.1,75.6z M134.6,66.6l8,8l0.1-0.1L134.6,66.6L134.6,66.6z M134.4,66.8L134.4,66.8z"/>
<path class="st12" d="M130.6,70.5l8.1,8.1c0.2,0.2,0.2,0.6,0,0.8l0,0c-0.2,0.2-0.6,0.2-0.8,0l-8.1-8.1c-0.2-0.2-0.2-0.6,0-0.8l0,0
	C130,70.3,130.4,70.3,130.6,70.5z"/>
<path d="M137.8,80.1L137.8,80.1L137.8,80.1l-8.6-8.6c-0.1-0.1-0.2-0.3-0.2-0.5c0-0.2,0.1-0.4,0.2-0.5l0.5-0.5
	c0.1-0.1,0.3-0.2,0.5-0.2c0.2,0,0.4,0.1,0.5,0.2l8.6,8.6c0.3,0.3,0.3,0.7,0,1l-0.5,0.5C138.6,80.4,138.1,80.4,137.8,80.1z M130.1,71
	l8.2,8.2l0.1-0.1L130.1,71L130.1,71z"/>
<path class="st12" d="M126.4,74.4l8.3,8.4c0.2,0.2,0.2,0.6,0,0.8l0,0c-0.2,0.2-0.6,0.2-0.8,0l-8.3-8.4c-0.2-0.2-0.2-0.6,0-0.8l0,0
	C125.8,74.2,126.2,74.2,126.4,74.4z"/>
<path d="M133.9,84.2L133.9,84.2L133.9,84.2l-8.8-8.9c-0.3-0.3-0.3-0.7,0-1l0.5-0.5c0.3-0.3,0.7-0.3,1,0l8.8,8.9
	c0.1,0.1,0.2,0.3,0.2,0.5c0,0.2-0.1,0.4-0.2,0.5l-0.5,0.5C134.7,84.5,134.2,84.5,133.9,84.2z M126,74.8l8.4,8.5l0.1-0.1L126,74.8
	L126,74.8z"/>
<path class="st12" d="M122.6,78l8.6,8.6c0.2,0.2,0.2,0.6,0,0.8l0,0c-0.2,0.2-0.6,0.2-0.8,0l-8.6-8.6c-0.2-0.2-0.2-0.6,0-0.8l0,0
	C122,77.8,122.4,77.8,122.6,78z"/>
<path d="M130.3,88L130.3,88L130.3,88l-9.1-9.1c-0.1-0.1-0.2-0.3-0.2-0.5c0-0.2,0.1-0.4,0.2-0.5l0.5-0.5c0.3-0.3,0.7-0.3,1,0l9,9.1
	c0.1,0.1,0.2,0.3,0.2,0.5c0,0.2-0.1,0.4-0.2,0.5l-0.5,0.5c-0.1,0.1-0.3,0.2-0.5,0.2C130.6,88.2,130.5,88.1,130.3,88z M122.2,78.4
	l8.6,8.7l0.1-0.1L122.2,78.4L122.2,78.4z"/>
<path class="st12" d="M118.9,81.4l8.8,8.9c0.2,0.2,0.2,0.6,0,0.8l0,0c-0.2,0.2-0.6,0.2-0.8,0l-8.8-8.9c-0.2-0.2-0.2-0.6,0-0.8l0,0
	C118.3,81.2,118.7,81.2,118.9,81.4z"/>
<path d="M126.9,91.7L126.9,91.7L126.9,91.7l-9.3-9.4c-0.1-0.1-0.2-0.3-0.2-0.5c0-0.2,0.1-0.4,0.2-0.5l0.5-0.5c0.3-0.3,0.7-0.3,1,0
	l9.3,9.4c0.3,0.3,0.3,0.7,0,1l-0.5,0.5c-0.1,0.1-0.3,0.2-0.5,0.2C127.2,91.9,127,91.8,126.9,91.7z M118.5,81.8l8.9,9l0.1-0.1
	L118.5,81.8L118.5,81.8z"/>
<path class="st12" d="M115.4,84.7l9.1,9.1c0.2,0.2,0.2,0.6,0,0.8l0,0c-0.2,0.2-0.6,0.2-0.8,0l-9.1-9.1c-0.2-0.2-0.2-0.6,0-0.8l0,0
	C114.8,84.4,115.2,84.4,115.4,84.7z"/>
<path d="M123.6,95.2L123.6,95.2L123.6,95.2l-9.6-9.6c-0.3-0.3-0.3-0.7,0-1l0.5-0.5c0.1-0.1,0.3-0.2,0.5-0.2c0.2,0,0.4,0.1,0.5,0.2
	l9.6,9.6c0.1,0.1,0.2,0.3,0.2,0.5c0,0.2-0.1,0.4-0.2,0.5l-0.5,0.5c-0.1,0.1-0.3,0.2-0.5,0.2C123.9,95.4,123.8,95.3,123.6,95.2z
	 M115,85.1l9.1,9.2l0.1-0.1l-9.1-9.2L115,85.1z"/>
<path class="st12" d="M111.9,87.9l9.2,9.3c0.2,0.2,0.2,0.6,0,0.8l0,0c-0.2,0.2-0.6,0.2-0.8,0l-9.2-9.3c-0.2-0.2-0.2-0.6,0-0.8l0,0
	C111.4,87.7,111.7,87.7,111.9,87.9z"/>
<path d="M120.3,98.6L120.3,98.6L120.3,98.6l-9.7-9.8c-0.3-0.3-0.3-0.7,0-1l0.5-0.5c0.1-0.1,0.3-0.2,0.5-0.2c0.2,0,0.4,0.1,0.5,0.2
	l9.7,9.8c0.3,0.3,0.3,0.7,0,1l-0.5,0.5C121.1,98.9,120.6,98.9,120.3,98.6C120.4,98.7,120.3,98.7,120.3,98.6z M111.5,88.3l9.3,9.4
	l0.1-0.1L111.5,88.3L111.5,88.3z M111.3,88.5L111.3,88.5z"/>
<path class="st12" d="M109,90.9l9.2,9.3c0.2,0.2,0.2,0.6,0,0.8l0,0c-0.2,0.2-0.6,0.2-0.8,0l-9.2-9.3c-0.2-0.2-0.2-0.6,0-0.8l0,0
	C108.4,90.7,108.7,90.7,109,90.9z"/>
<path d="M117.4,101.6L117.4,101.6l-9.7-9.8c-0.1-0.1-0.2-0.3-0.2-0.5c0-0.2,0.1-0.4,0.2-0.5l0.5-0.5c0.3-0.3,0.7-0.3,1,0l9.7,9.8
	c0.1,0.1,0.2,0.3,0.2,0.5c0,0.2-0.1,0.4-0.2,0.5l-0.5,0.5c-0.1,0.1-0.3,0.2-0.5,0.2C117.7,101.8,117.5,101.7,117.4,101.6z
	 M108.6,91.3l9.3,9.3l0.1-0.1L108.6,91.3L108.6,91.3z"/>
<path class="st12" d="M106.2,93.7l9.2,9.3c0.2,0.2,0.2,0.6,0,0.8l0,0c-0.2,0.2-0.6,0.2-0.8,0l-9.2-9.3c-0.2-0.2-0.2-0.6,0-0.8l0,0
	C105.6,93.5,106,93.5,106.2,93.7z"/>
<path d="M114.6,104.4L114.6,104.4L114.6,104.4l-9.7-9.8c-0.1-0.1-0.2-0.3-0.2-0.5c0-0.2,0.1-0.4,0.2-0.5l0.5-0.5
	c0.1-0.1,0.3-0.2,0.5-0.2c0.2,0,0.4,0.1,0.5,0.2l9.7,9.8c0.1,0.1,0.2,0.3,0.2,0.5c0,0.2-0.1,0.4-0.2,0.5l-0.5,0.5
	c-0.1,0.1-0.3,0.2-0.5,0.2C114.9,104.6,114.7,104.5,114.6,104.4z M105.8,94.1l9.3,9.3l0.1-0.1L105.8,94.1L105.8,94.1z"/>
<path class="st12" d="M103.4,96.4l9.2,9.3c0.2,0.2,0.2,0.6,0,0.8l0,0c-0.2,0.2-0.6,0.2-0.8,0l-9.2-9.3c-0.2-0.2-0.2-0.6,0-0.8l0,0
	C102.8,96.2,103.2,96.2,103.4,96.4z"/>
<path d="M111.8,107.1L111.8,107.1l-9.7-9.8c-0.3-0.3-0.3-0.7,0-1l0.5-0.5c0.3-0.3,0.7-0.3,1,0l9.7,9.8c0.1,0.1,0.2,0.3,0.2,0.5
	c0,0.2-0.1,0.4-0.2,0.5l-0.5,0.5C112.6,107.4,112.1,107.4,111.8,107.1z M103,96.8l9.3,9.3l0.1-0.1L103,96.8L103,96.8z"/>
<path class="st12" d="M100.8,98.7l9.6,9.6c0.2,0.2,0.2,0.6,0,0.8l0,0c-0.2,0.2-0.6,0.2-0.8,0l-9.6-9.6c-0.2-0.2-0.2-0.6,0-0.8l0,0
	C100.2,98.5,100.6,98.5,100.8,98.7z"/>
<path d="M109.5,109.7L109.5,109.7L109.5,109.7L99.5,99.6c-0.3-0.3-0.3-0.7,0-1l0.5-0.5c0.1-0.1,0.3-0.2,0.5-0.2
	c0.2,0,0.4,0.1,0.5,0.2l10,10.1c0.1,0.1,0.2,0.3,0.2,0.5c0,0.2-0.1,0.4-0.2,0.5l-0.5,0.5C110.2,110,109.8,110,109.5,109.7z
	 M100.4,99.1l9.6,9.7l0.1-0.1L100.4,99.1L100.4,99.1z M110.3,108.5L110.3,108.5z"/>
<path class="st12" d="M98.3,101.2l9.6,9.6c0.2,0.2,0.2,0.6,0,0.8l0,0c-0.2,0.2-0.6,0.2-0.8,0l-9.6-9.6c-0.2-0.2-0.2-0.6,0-0.8l0,0
	C97.7,100.9,98.1,100.9,98.3,101.2z"/>
<path d="M107.1,112.2L107.1,112.2L97,102.1c-0.1-0.1-0.2-0.3-0.2-0.5c0-0.2,0.1-0.4,0.2-0.5l0.5-0.5c0.1-0.1,0.3-0.2,0.5-0.2
	c0.2,0,0.4,0.1,0.5,0.2l10.1,10.1c0.1,0.1,0.2,0.3,0.2,0.5c0,0.2-0.1,0.4-0.2,0.5l-0.5,0.5c-0.1,0.1-0.3,0.2-0.5,0.2
	C107.4,112.4,107.2,112.3,107.1,112.2z M107.8,111.5L107.8,111.5z M97.9,101.6l9.6,9.7l0.1-0.1L97.9,101.6L97.9,101.6z"/>
<path class="st12" d="M95.8,103.4l9.8,9.8c0.2,0.2,0.2,0.6,0,0.8l0,0c-0.2,0.2-0.6,0.2-0.8,0l-9.8-9.8c-0.2-0.2-0.2-0.6,0-0.8l0,0
	C95.2,103.2,95.6,103.2,95.8,103.4z"/>
<path d="M104.8,114.7L104.8,114.7L104.8,114.7l-10.3-10.3c-0.1-0.1-0.2-0.3-0.2-0.5c0-0.2,0.1-0.4,0.2-0.5l0.5-0.5
	c0.3-0.3,0.7-0.3,1,0l10.3,10.3c0.1,0.1,0.2,0.3,0.2,0.5c0,0.2-0.1,0.4-0.2,0.5l-0.5,0.5C105.5,115,105.1,115,104.8,114.7
	C104.8,114.7,104.8,114.7,104.8,114.7z M95.4,103.8l9.9,9.9l0.1-0.1L95.4,103.8L95.4,103.8z"/>
<path class="st12" d="M93.4,105.6l10,10.1c0.2,0.2,0.2,0.6,0,0.8l0,0c-0.2,0.2-0.6,0.2-0.8,0l-10-10.1c-0.2-0.2-0.2-0.6,0-0.8l0,0
	C92.8,105.4,93.2,105.4,93.4,105.6z"/>
<path d="M102.6,117.1L102.6,117.1L102.6,117.1l-10.5-10.6c-0.1-0.1-0.2-0.3-0.2-0.5c0-0.2,0.1-0.4,0.2-0.5l0.5-0.5
	c0.1-0.1,0.3-0.2,0.5-0.2c0.2,0,0.4,0.1,0.5,0.2l10.5,10.6c0.3,0.3,0.3,0.7,0,1l-0.5,0.5c-0.1,0.1-0.3,0.2-0.5,0.2
	C102.9,117.3,102.7,117.2,102.6,117.1z M93,106l10.1,10.1l0.1-0.1l-10.1-10.1L93,106z M92.9,105.7L92.9,105.7z"/>
<path class="st12" d="M91.3,107.7l10,10.1c0.2,0.2,0.2,0.6,0,0.8l0,0c-0.2,0.2-0.6,0.2-0.8,0l-10-10.1c-0.2-0.2-0.2-0.6,0-0.8l0,0
	C90.7,107.5,91.1,107.5,91.3,107.7z"/>
<path d="M100.5,119.2L100.5,119.2L100.5,119.2L90,108.6c-0.1-0.1-0.2-0.3-0.2-0.5c0-0.2,0.1-0.4,0.2-0.5l0.5-0.5
	c0.1-0.1,0.3-0.2,0.5-0.2c0.2,0,0.4,0.1,0.5,0.2l10.5,10.6c0.3,0.3,0.3,0.7,0,1l-0.5,0.5C101.3,119.4,100.8,119.5,100.5,119.2
	C100.5,119.2,100.5,119.2,100.5,119.2z M90.9,108.1l10.1,10.2l0.1-0.2L91,108L90.9,108.1z"/>
<path class="st12" d="M89.4,109.6l10,10.1c0.2,0.2,0.2,0.6,0,0.8l0,0c-0.2,0.2-0.6,0.2-0.8,0l-10-10.1c-0.2-0.2-0.2-0.6,0-0.8l0,0
	C88.8,109.3,89.2,109.3,89.4,109.6z"/>
<path d="M98.6,121.1L98.6,121.1l-10.5-10.6c-0.3-0.3-0.3-0.7,0-1l0.5-0.5c0.3-0.3,0.7-0.3,1,0l10.5,10.6c0.3,0.3,0.3,0.7,0,1
	l-0.5,0.5C99.3,121.3,98.9,121.3,98.6,121.1z M89,110l10.1,10.1l0.1-0.1l-10.1-10.1L89,110z"/>
<path class="st12" d="M87.4,111.4l10.2,10.3c0.2,0.2,0.2,0.6,0,0.8l0,0c-0.2,0.2-0.6,0.2-0.8,0l-10.2-10.3c-0.2-0.2-0.2-0.6,0-0.8
	l0,0C86.8,111.2,87.2,111.2,87.4,111.4z"/>
<path d="M96.8,123.1L96.8,123.1L96.8,123.1l-10.7-10.8c-0.3-0.3-0.3-0.7,0-1l0.5-0.5c0.1-0.1,0.3-0.2,0.5-0.2c0.2,0,0.4,0.1,0.5,0.2
	l10.7,10.8c0.3,0.3,0.3,0.7,0,1l-0.5,0.5C97.5,123.4,97.1,123.4,96.8,123.1z M87,111.8l10.3,10.3l0.1-0.1l-10.2-10.3L87,111.8z
	 M97.6,121.9L97.6,121.9z"/>
<polygon class="st13" points="54.8,145.1 54.5,144.8 172.6,31.5 177,25.5 177.4,25.9 173,31.8 173,31.8 "/>
<polygon class="st13" points="56.8,147.1 56.4,146.8 173.6,32.4 182.5,20.1 182.9,20.4 174,32.8 174,32.8 "/>
<polygon class="st13" points="58.8,149.1 58.4,148.8 174.7,33.5 188.2,14.6 188.6,14.9 175,33.8 175,33.8 "/>
<polygon class="st13" points="64.6,155 64.2,154.6 177.6,36.4 177.6,36.4 183.6,32 183.9,32.5 177.9,36.8 "/>
<polygon class="st13" points="62.6,153 62.2,152.6 176.6,35.5 189.1,26.5 189.4,27 177,35.8 "/>
<polygon class="st13" points="60.6,151 60.3,150.6 175.6,34.4 175.6,34.4 194.5,20.9 194.8,21.3 175.9,34.8 "/>
<path class="st9" d="M184,30.4c-0.6,0.5-0.7,1.4-0.2,2c0,0,0,0,0,0c0.5,0.6,1.4,0.6,1.9,0.1c0,0,0,0,0.1-0.1c0.6-0.5,0.7-1.4,0.2-2
	c0,0,0,0,0,0C185.5,29.8,184.6,29.8,184,30.4C184.1,30.4,184.1,30.4,184,30.4z"/>
<path class="st14" d="M183.8,32.6l-0.1-0.1c-0.6-0.7-0.5-1.7,0.2-2.3c0.3-0.3,0.8-0.5,1.2-0.5c0.4,0,0.8,0.2,1.1,0.5
	c0.6,0.7,0.5,1.7-0.2,2.3c-0.3,0.3-0.8,0.5-1.2,0.5C184.4,33,184,32.9,183.8,32.6z M185.8,30.5c-0.2-0.2-0.4-0.3-0.6-0.3
	c-0.3,0-0.6,0.1-0.9,0.3l0,0c-0.5,0.4-0.5,1.1-0.2,1.6c0.2,0.2,0.4,0.3,0.7,0.3c0.3,0,0.6-0.1,0.9-0.3
	C186.2,31.8,186.2,31.1,185.8,30.5L185.8,30.5z"/>
<path class="st9" d="M189.5,24.9c-0.6,0.5-0.7,1.4-0.2,2c0,0,0,0,0,0c0.5,0.6,1.4,0.6,1.9,0.1c0,0,0,0,0.1-0.1
	c0.6-0.4,0.7-1.3,0.3-1.9c-0.4-0.6-1.3-0.7-1.9-0.3C189.7,24.8,189.6,24.9,189.5,24.9L189.5,24.9z"/>
<path class="st14" d="M189.3,27.1l-0.1-0.1c-0.6-0.7-0.5-1.7,0.2-2.3l0,0c0.3-0.3,0.8-0.5,1.2-0.5c0.4,0,0.8,0.2,1.1,0.5
	c0.6,0.7,0.5,1.7-0.2,2.3c-0.3,0.3-0.8,0.5-1.2,0.5C189.9,27.5,189.5,27.4,189.3,27.1z M191.3,25c-0.2-0.2-0.4-0.3-0.6-0.3
	c-0.3,0-0.6,0.1-0.9,0.3l0,0c-0.5,0.4-0.5,1.1-0.2,1.6c0.2,0.2,0.4,0.3,0.7,0.3c0.3,0,0.6-0.1,0.9-0.3
	C191.7,26.3,191.7,25.6,191.3,25L191.3,25z"/>
<path class="st9" d="M195.1,19.4c-0.6,0.5-0.7,1.4-0.2,2c0,0,0,0,0,0c0.5,0.6,1.4,0.6,1.9,0.1c0,0,0,0,0.1-0.1
	c0.6-0.5,0.7-1.4,0.2-2c0,0,0,0,0,0C196.6,18.9,195.7,18.8,195.1,19.4C195.1,19.4,195.1,19.4,195.1,19.4z"/>
<path class="st14" d="M194.8,21.7c0,0-0.1-0.1-0.1-0.1c-0.6-0.7-0.5-1.7,0.2-2.3l0,0c0.3-0.3,0.8-0.5,1.2-0.5c0.4,0,0.8,0.2,1.1,0.5
	c0.6,0.7,0.5,1.7-0.2,2.3c-0.3,0.3-0.8,0.5-1.2,0.5C195.4,22,195.1,21.9,194.8,21.7z M195.2,19.7c-0.5,0.4-0.5,1.1-0.2,1.6
	c0.2,0.2,0.4,0.3,0.7,0.3c0.3,0,0.6-0.1,0.9-0.3c0.5-0.4,0.6-1.1,0.2-1.6c-0.2-0.2-0.4-0.3-0.7-0.3
	C195.8,19.3,195.5,19.4,195.2,19.7L195.2,19.7z"/>
<ellipse transform="matrix(0.7086 -0.7056 0.7056 0.7086 34.638 132.7699)" class="st9" cx="178.1" cy="24.4" rx="1.4" ry="1.3"/>
<path class="st14" d="M176.9,25.8c-0.3-0.3-0.5-0.7-0.5-1.1c0-0.5,0.1-0.9,0.5-1.2c0.6-0.7,1.6-0.8,2.3-0.2c0.3,0.3,0.5,0.7,0.5,1.1
	c0,0.5-0.1,0.9-0.5,1.2l0,0C178.7,26.3,177.6,26.4,176.9,25.8L176.9,25.8z M178.9,23.6L178.9,23.6c-0.5-0.4-1.2-0.3-1.6,0.1
	c-0.2,0.2-0.3,0.6-0.3,0.9c0,0.3,0.1,0.5,0.3,0.7l0,0c0.5,0.4,1.2,0.3,1.6-0.1l0,0c0.2-0.2,0.3-0.6,0.3-0.9
	C179.2,24.1,179.1,23.8,178.9,23.6L178.9,23.6z"/>
<path class="st15" d="M178.3,24.7c-0.2,0.2-0.6,0.3-0.8,0.1c0,0,0,0,0,0c-0.2-0.2-0.2-0.6,0-0.8c0,0,0,0,0,0
	c0.2-0.2,0.6-0.3,0.8-0.1C178.5,24.1,178.5,24.4,178.3,24.7C178.3,24.7,178.3,24.7,178.3,24.7z"/>
<path class="st9" d="M184.6,19.9c-0.5,0.6-1.4,0.7-2,0.2c0,0,0,0,0,0c-0.6-0.5-0.6-1.4-0.1-1.9c0,0,0,0,0.1-0.1
	c0.5-0.6,1.4-0.7,2-0.2c0,0,0,0,0,0C185.1,18.4,185.2,19.3,184.6,19.9C184.6,19.9,184.6,19.9,184.6,19.9z"/>
<path class="st14" d="M182.4,20.3c-0.3-0.3-0.5-0.7-0.5-1.1c0-0.5,0.2-0.9,0.5-1.2c0.6-0.7,1.6-0.8,2.3-0.2c0.3,0.3,0.5,0.7,0.5,1.1
	c0,0.5-0.1,0.9-0.5,1.2l0,0C184.2,20.8,183.1,20.9,182.4,20.3L182.4,20.3z M184.4,18.2L184.4,18.2c-0.5-0.4-1.2-0.3-1.6,0.1
	c-0.2,0.2-0.3,0.6-0.3,0.9c0,0.3,0.1,0.5,0.3,0.7c0.5,0.4,1.2,0.3,1.6-0.1l0,0c0.2-0.2,0.3-0.6,0.3-0.9
	C184.7,18.6,184.6,18.3,184.4,18.2L184.4,18.2z"/>
<path class="st9" d="M190.1,14.4c-0.6,0.5-1.4,0.4-1.9-0.1s-0.4-1.4,0.1-1.9c0.5-0.5,1.3-0.5,1.8,0C190.7,13,190.7,13.8,190.1,14.4
	C190.1,14.4,190.1,14.4,190.1,14.4z"/>
<path class="st14" d="M187.9,14.8c-0.3-0.3-0.5-0.6-0.5-1c0-0.5,0.2-0.9,0.5-1.2c0.6-0.7,1.6-0.8,2.3-0.2c0.3,0.3,0.5,0.7,0.5,1.1
	c0,0.5-0.2,0.9-0.5,1.2l0,0C189.7,15.3,188.6,15.4,187.9,14.8L187.9,14.8z M189.9,12.7L189.9,12.7c-0.5-0.4-1.2-0.3-1.6,0.2
	c-0.2,0.2-0.3,0.5-0.3,0.9c0,0.3,0.1,0.5,0.3,0.7l0,0c0.5,0.4,1.2,0.3,1.6-0.2l0,0c0.2-0.2,0.3-0.5,0.3-0.9
	C190.2,13.1,190.1,12.9,189.9,12.7L189.9,12.7z"/>
<path class="st15" d="M183.7,19.1c-0.2,0.2-0.6,0.3-0.8,0.1c-0.2-0.2-0.2-0.6,0-0.8c0,0,0,0,0,0c0.2-0.2,0.6-0.2,0.8,0
	C183.9,18.5,183.9,18.9,183.7,19.1L183.7,19.1z"/>
<path class="st15" d="M189.2,13.6c-0.2,0.2-0.6,0.3-0.8,0.1c-0.2-0.2-0.2-0.6,0-0.8c0,0,0,0,0,0c0.2-0.2,0.5-0.3,0.8-0.1
	C189.4,13,189.4,13.3,189.2,13.6C189.2,13.6,189.2,13.6,189.2,13.6L189.2,13.6z"/>
<path class="st15" d="M190.6,26c-0.2,0.2-0.6,0.3-0.8,0.1c-0.2-0.2-0.2-0.6,0-0.8c0,0,0,0,0,0c0.2-0.2,0.6-0.2,0.8,0
	C190.8,25.4,190.8,25.8,190.6,26L190.6,26z"/>
<path class="st15" d="M196.1,20.5c-0.2,0.2-0.6,0.3-0.8,0.1c-0.3-0.2-0.3-0.6-0.1-0.8c0.2-0.3,0.6-0.3,0.8-0.1
	C196.3,19.9,196.3,20.2,196.1,20.5C196.1,20.5,196.1,20.5,196.1,20.5z"/>
<path class="st15" d="M185,31.5c-0.2,0.2-0.6,0.3-0.8,0.1c-0.2-0.2-0.2-0.6,0-0.8c0,0,0,0,0,0c0.2-0.2,0.6-0.3,0.8-0.1c0,0,0,0,0,0
	C185.3,30.9,185.3,31.3,185,31.5C185,31.5,185,31.5,185,31.5z"/>
<path class="st15" d="M182.8,9.6L182.8,9.6c-0.2-0.2-0.2-0.5,0-0.7l1.7-1.7c0.2-0.2,0.5-0.2,0.7,0l0,0c0.2,0.2,0.2,0.5,0,0.7
	l-1.7,1.7C183.3,9.8,183,9.8,182.8,9.6C182.8,9.6,182.8,9.6,182.8,9.6z"/>
<path class="st15" d="M177.8,15.7L177.8,15.7c-0.2-0.2-0.2-0.5,0-0.7l1.7-1.7c0.2-0.2,0.5-0.2,0.7,0l0,0c0.2,0.2,0.2,0.5,0,0.7
	l-1.7,1.7C178.3,15.9,178,15.9,177.8,15.7z"/>
<path class="st15" d="M172.8,21.7L172.8,21.7c-0.2-0.2-0.2-0.5,0-0.7l1.7-1.7c0.2-0.2,0.5-0.2,0.7,0l0,0c0.2,0.2,0.2,0.5,0,0.7
	l-1.7,1.7C173.3,21.9,173,21.9,172.8,21.7z"/>
<path class="st8" d="M187.6,35.4l-1.2-1.2c-0.3-0.3-0.3-0.7,0-1c0,0,0,0,0,0l0,0c0.3-0.3,0.7-0.3,1,0c0,0,0,0,0,0l1.2,1.2
	c0.3,0.3,0.3,0.7,0,1c0,0,0,0,0,0l0,0C188.4,35.7,187.9,35.7,187.6,35.4C187.7,35.4,187.7,35.4,187.6,35.4z"/>
<path class="st9" d="M187.1,37.4L187.1,37.4c0.7,0.7,1.8,0.7,2.5,0l1.3-1.3c0.7-0.7,0.7-1.8,0-2.5l0,0c-0.7-0.7-1.8-0.7-2.5,0
	l-1.3,1.3C186.4,35.6,186.4,36.7,187.1,37.4z"/>
<path class="st15" d="M187.2,36.1L187.2,36.1c-0.2-0.2-0.2-0.5,0-0.7l1.7-1.7c0.2-0.2,0.5-0.2,0.7,0l0,0c0.2,0.2,0.2,0.5,0,0.7
	l-1.7,1.7C187.7,36.3,187.4,36.3,187.2,36.1z"/>
<path class="st8" d="M193.7,30.5l-1.2-1.2c-0.3-0.3-0.3-0.7,0-1l0,0c0.3-0.3,0.7-0.3,1,0c0,0,0,0,0,0l1.2,1.2c0.3,0.3,0.3,0.7,0,1
	c0,0,0,0,0,0l0,0C194.5,30.8,194,30.8,193.7,30.5z"/>
<path class="st9" d="M193.2,32.5L193.2,32.5c0.7,0.7,1.8,0.7,2.5,0l1.3-1.3c0.7-0.7,0.7-1.8,0-2.5l0,0c-0.7-0.7-1.8-0.7-2.5,0
	l-1.3,1.3C192.5,30.7,192.5,31.8,193.2,32.5z"/>
<path class="st15" d="M193.3,31.2L193.3,31.2c-0.2-0.2-0.2-0.5,0-0.7l1.7-1.7c0.2-0.2,0.5-0.2,0.7,0l0,0c0.2,0.2,0.2,0.5,0,0.7
	l-1.7,1.7C193.8,31.4,193.5,31.4,193.3,31.2z"/>
<path class="st8" d="M199.6,25.3l-1.2-1.2c-0.3-0.3-0.3-0.7,0-1c0,0,0,0,0,0l0,0c0.3-0.3,0.7-0.3,1,0c0,0,0,0,0,0l1.2,1.2
	c0.3,0.3,0.3,0.7,0,1c0,0,0,0,0,0l0,0C200.4,25.6,199.9,25.6,199.6,25.3C199.6,25.3,199.6,25.3,199.6,25.3z"/>
<path class="st9" d="M199.1,27.3L199.1,27.3c0.7,0.7,1.8,0.7,2.5,0l1.3-1.3c0.7-0.7,0.7-1.8,0-2.5l0,0c-0.7-0.7-1.8-0.7-2.5,0
	l-1.3,1.3C198.4,25.5,198.4,26.6,199.1,27.3z"/>
<path class="st15" d="M199.2,26.1L199.2,26.1c-0.2-0.2-0.2-0.5,0-0.7l1.7-1.7c0.2-0.2,0.5-0.2,0.7,0l0,0c0.2,0.2,0.2,0.5,0,0.7
	l-1.7,1.7C199.7,26.3,199.4,26.3,199.2,26.1z"/>
</svg>
