<?xml version="1.0" encoding="utf-8"?>
<!-- Generator: Adobe Illustrator 24.2.0, SVG Export Plug-In . SVG Version: 6.00 Build 0)  -->
<svg version="1.1" id="Layer_1" xmlns="http://www.w3.org/2000/svg" xmlns:xlink="http://www.w3.org/1999/xlink" x="0px" y="0px"
	 viewBox="0 0 214.4 191.2" style="enable-background:new 0 0 214.4 191.2;" xml:space="preserve">
<style type="text/css">
	.st0{fill:#C5DF94;}
	.st1{fill:#C08356;}
	.st2{fill:#FFFFFF;}
	.st3{fill:#E0A265;}
	.st4{fill:#D59A63;}
	.st5{fill:none;}
	.st6{fill:#282F39;}
	.st7{fill:#AE7E5D;}
</style>
<path class="st0" d="M27.2,20.2C-1.6,43.3-4.2,110,4.2,144.4s153.3,60.6,183.6,31.3s27.9-114.9,3-146.2S68.9-13.2,27.2,20.2z"/>
<polygon class="st1" points="214.4,73.2 200.2,65.5 33,66.8 42.8,147.8 52.5,147.8 214.4,147.8 "/>
<polygon class="st1" points="174.3,66.1 174.3,163.9 188.5,176.9 188.5,73.2 "/>
<polygon class="st2" points="47.5,74.1 162.2,73.4 169.1,76.8 169.1,79.5 47.1,81 "/>
<polygon points="38.4,81.1 70.2,80.7 70.2,78 63.3,73.9 38.8,74.2 "/>
<polygon class="st1" points="47.3,80.9 169,79.4 168.9,84.3 47,85.9 "/>
<polygon points="159.8,75.7 155.4,73.7 153.4,73.7 153.4,74.3 157.8,76.3 159.8,76.3 "/>
<polygon points="156.6,75.7 152.1,73.6 150.1,73.6 150.1,74.2 154.6,76.2 156.6,76.3 "/>
<polygon points="153.3,75.6 148.9,73.6 146.9,73.6 146.9,74.2 151.3,76.2 153.3,76.2 "/>
<polygon points="149.4,75.6 145,73.6 143,73.6 143,74.2 147.4,76.2 149.4,76.2 "/>
<polygon points="146.2,75.6 141.8,73.6 139.8,73.6 139.8,74.2 144.2,76.2 146.2,76.2 "/>
<polygon points="141.7,75.6 137.2,73.6 135.2,73.6 135.2,74.2 139.6,76.2 141.7,76.2 "/>
<polygon points="138.4,75.6 134,73.6 132,73.6 132,74.2 136.4,76.2 138.4,76.2 "/>
<polygon points="135.2,75.6 130.8,73.5 128.8,73.5 128.8,74.1 133.2,76.2 135.2,76.2 "/>
<polygon points="130.7,75.5 126.2,73.5 124.2,73.5 124.2,74.1 128.6,76.1 130.6,76.1 "/>
<polygon points="127.4,75.5 123,73.5 121,73.5 121,74.1 125.4,76.1 127.4,76.1 "/>
<polygon points="123.2,75.5 118.8,73.5 116.8,73.5 116.8,74.1 121.2,76.1 123.2,76.1 "/>
<polygon points="120,75.5 115.6,73.5 113.5,73.5 113.5,74.1 117.9,76.1 120,76.1 "/>
<polygon points="116.7,75.5 112.3,73.5 110.3,73.4 110.3,74.1 114.7,76.1 116.7,76.1 "/>
<polygon points="113.2,75.4 108.8,73.4 106.7,73.4 106.7,74 111.1,76.1 113.2,76.1 "/>
<polygon points="109.9,75.4 105.5,73.4 103.5,73.4 103.5,74 107.9,76 109.9,76 "/>
<polygon points="105.4,75.4 101,73.4 98.9,73.4 98.9,74 103.4,76 105.4,76 "/>
<polygon points="102.2,75.4 97.7,73.4 95.7,73.4 95.7,74 100.1,76 102.2,76 "/>
<polygon points="98.9,75.4 94.5,73.4 92.5,73.4 92.5,74 96.9,76 98.9,76 "/>
<polygon points="95.7,75.4 91.3,73.4 89.2,73.3 89.2,73.9 93.7,76 95.7,76 "/>
<polygon points="92.4,75.3 88,73.3 86,73.3 86,73.9 90.4,75.9 92.4,76 "/>
<polygon points="87.9,75.3 83.5,73.3 81.5,73.3 81.5,73.9 85.9,75.9 87.9,75.9 "/>
<polygon points="84.7,75.3 80.2,73.3 78.2,73.3 78.2,73.9 82.6,75.9 84.7,75.9 "/>
<polygon points="81.4,75.3 77,73.3 75,73.3 75,73.9 79.4,75.9 81.4,75.9 "/>
<polygon points="76.9,75.3 72.5,73.3 70.4,73.3 70.4,73.9 74.9,75.9 76.9,75.9 "/>
<polygon points="72.3,75.3 67.9,73.2 65.9,73.2 65.9,73.8 70.3,75.9 72.3,75.9 "/>
<polygon class="st2" points="66.5,75.3 62.1,73.3 60.1,73.3 60.1,73.9 64.5,75.9 66.5,75.9 "/>
<polygon class="st2" points="63.3,75.3 58.9,73.3 56.8,73.3 56.8,73.9 61.3,75.9 63.3,75.9 "/>
<polygon class="st2" points="60,75.3 55.6,73.3 53.6,73.3 53.6,73.9 58,75.9 60,75.9 "/>
<polygon class="st2" points="55.5,75.3 51.1,73.3 49.1,73.3 49.1,73.9 53.5,75.9 55.5,75.9 "/>
<polygon class="st2" points="51,75.3 46.5,73.2 44.5,73.2 44.5,73.8 49,75.9 51,75.9 "/>
<polygon class="st2" points="50.4,84.9 168.9,84.3 175.9,87.8 175.8,90.4 50,91.8 "/>
<polygon points="49,91.8 80.8,91.4 80.8,88.7 73.9,84.6 49.4,84.9 "/>
<polygon points="170.4,86.8 166,84.8 164,84.8 164,85.4 168.4,87.4 170.4,87.4 "/>
<polygon points="167.2,86.8 162.8,84.7 160.7,84.7 160.7,85.3 165.1,87.3 167.2,87.4 "/>
<polygon points="163.9,86.7 159.5,84.7 157.5,84.7 157.5,85.3 161.9,87.3 163.9,87.3 "/>
<polygon points="160.1,86.7 155.6,84.7 153.6,84.7 153.6,85.3 158,87.3 160,87.3 "/>
<polygon points="156.8,86.7 152.4,84.7 150.4,84.7 150.4,85.3 154.8,87.3 156.8,87.3 "/>
<polygon points="152.3,86.7 147.9,84.7 145.8,84.7 145.8,85.3 150.2,87.3 152.3,87.3 "/>
<polygon points="149,86.7 144.6,84.7 142.6,84.7 142.6,85.2 147,87.3 149,87.3 "/>
<polygon points="145.8,86.7 141.4,84.6 139.4,84.6 139.4,85.2 143.8,87.2 145.8,87.3 "/>
<polygon points="141.3,86.6 136.8,84.6 134.8,84.6 134.8,85.2 139.2,87.2 141.3,87.2 "/>
<polygon points="138,86.6 133.6,84.6 131.6,84.6 131.6,85.2 136,87.2 138,87.2 "/>
<polygon points="133.8,86.6 129.4,84.6 127.4,84.6 127.4,85.2 131.8,87.2 133.8,87.2 "/>
<polygon points="130.6,86.6 126.2,84.6 124.1,84.6 124.1,85.2 128.6,87.2 130.6,87.2 "/>
<polygon points="127.3,86.6 122.9,84.6 120.9,84.5 120.9,85.2 125.3,87.2 127.3,87.2 "/>
<polygon points="123.8,86.6 119.3,84.5 117.3,84.5 117.3,85.1 121.7,87.2 123.8,87.2 "/>
<polygon points="120.5,86.5 116.1,84.5 114.1,84.5 114.1,85.1 118.5,87.1 120.5,87.1 "/>
<polygon points="116,86.5 111.6,84.5 109.6,84.5 109.6,85.1 114,87.1 116,87.1 "/>
<polygon points="112.8,86.5 108.3,84.5 106.3,84.5 106.3,85.1 110.7,87.1 112.8,87.1 "/>
<polygon points="109.5,86.5 105.1,84.5 103.1,84.5 103.1,85.1 107.5,87.1 109.5,87.1 "/>
<polygon points="106.3,86.5 101.9,84.4 99.8,84.4 99.8,85.1 104.2,87.1 106.3,87.1 "/>
<polygon points="103,86.4 98.6,84.4 96.6,84.4 96.6,85 101,87.1 103,87.1 "/>
<polygon points="98.5,86.4 94.1,84.4 92.1,84.4 92.1,85 96.5,87 98.5,87 "/>
<polygon points="95.3,86.4 90.8,84.4 88.8,84.4 88.8,85 93.2,87 95.3,87 "/>
<polygon points="92,86.4 87.6,84.4 85.6,84.4 85.6,85 90,87 92,87 "/>
<polygon points="87.5,86.4 83.1,84.4 81.1,84.4 81.1,85 85.5,87 87.5,87 "/>
<polygon points="82.9,86.4 78.5,84.3 76.5,84.3 76.5,84.9 80.9,86.9 82.9,87 "/>
<polygon class="st2" points="75.8,86.4 71.4,84.4 69.4,84.4 69.4,85 73.8,87 75.8,87 "/>
<polygon class="st3" points="175.6,147.9 43.7,147.9 43.7,152 53.4,167.4 53.4,171.4 185.3,171.4 185.3,167.4 "/>
<polygon class="st2" points="72.6,86.4 68.2,84.4 66.2,84.4 66.2,85 70.6,87 72.6,87 "/>
<polygon class="st2" points="69.3,86.4 64.9,84.4 62.9,84.4 62.9,85 67.3,87 69.3,87 "/>
<polygon class="st2" points="64.8,86.4 60.4,84.4 58.4,84.4 58.4,85 62.8,87 64.8,87 "/>
<polygon class="st2" points="60.3,86.4 55.9,84.3 53.8,84.3 53.8,84.9 58.3,86.9 60.3,87 "/>
<rect x="26.6" y="79.7" class="st3" width="25.9" height="100.4"/>
<rect x="29.1" y="89.8" class="st4" width="20.7" height="80.3"/>
<polygon class="st1" points="16.8,66.8 16.8,167.2 26.5,180.1 26.5,79.7 "/>
<polygon class="st3" points="49.7,99.6 175.8,98.2 176.1,90.1 50,91.5 "/>
<rect x="188.5" y="73.2" class="st3" width="25.9" height="103.7"/>
<rect x="190.5" y="83.6" class="st4" width="22" height="82.9"/>
<line class="st5" x1="69.6" y1="163.5" x2="69.6" y2="167.5"/>
<polygon points="59.5,144.5 54.4,144.5 64.1,159.9 64.1,164 69.3,164 69.3,159.9 "/>
<polygon class="st3" points="52.5,79.7 42.8,66.8 16.8,66.8 26.5,79.7 "/>
<polygon class="st3" points="164.1,53.5 46.4,53.5 47,66.5 167.1,66.5 "/>
<polygon class="st1" points="161.7,55.5 48.8,55.5 49.5,67.8 164.6,67.8 "/>
<path class="st3" d="M147.8,68H66.3l-1.9-8.6h81.9L147.8,68z M66.6,67.6h80.8l-1.6-7.9H64.7L66.6,67.6z"/>
<polyline class="st6" points="64.1,160.1 54.4,144.5 54.4,148.7 64.1,163.9 "/>
<polygon points="69.3,144.5 64.1,144.5 73.8,159.9 73.8,164 79,164 79,159.9 "/>
<polyline class="st6" points="73.8,160.1 64.1,144.5 64.1,148.7 73.8,163.9 "/>
<polygon points="79,144.5 73.8,144.5 83.5,159.9 83.5,164 88.7,164 88.7,159.9 "/>
<polyline class="st6" points="83.6,160.1 73.8,144.5 73.8,148.7 83.6,163.9 "/>
<polygon points="95.2,144.5 90,144.5 99.7,159.9 99.7,164 104.9,164 104.9,159.9 "/>
<polyline class="st6" points="99.8,160.1 90.1,144.5 90.1,148.7 99.8,163.9 "/>
<polygon points="104.9,144.5 99.7,144.5 109.4,159.9 109.4,164 114.6,164 114.6,159.9 "/>
<polyline class="st6" points="109.5,160.1 99.8,144.5 99.8,148.7 109.5,163.9 "/>
<polygon points="117.8,144.5 112.7,144.5 122.4,159.9 122.4,164 127.6,164 127.6,159.9 "/>
<polyline class="st6" points="122.4,160.1 112.7,144.5 112.7,148.7 122.4,163.9 "/>
<polygon points="127.6,144.5 122.4,144.5 132.1,159.9 132.1,164 137.3,164 137.3,159.9 "/>
<polyline class="st6" points="132.2,160.1 122.4,144.5 122.4,148.7 132.2,163.9 "/>
<polygon points="137.3,144.5 132.1,144.5 141.8,159.9 141.8,164 147,164 147,159.9 "/>
<polyline class="st6" points="141.9,160.1 132.2,144.5 132.2,148.7 141.9,163.9 "/>
<polygon points="153.5,144.5 148.3,144.5 158,159.9 158,164 163.2,164 163.2,159.9 "/>
<polyline class="st6" points="158.1,160.1 148.4,144.5 148.4,148.7 158.1,163.9 "/>
<polygon points="163.2,144.5 158,144.5 167.7,159.9 167.7,164 172.9,164 172.9,159.9 "/>
<polyline class="st6" points="167.8,160.1 158.1,144.5 158.1,148.7 167.8,163.9 "/>
<path class="st7" d="M77,131.4c-0.1,0.1-0.2,0.2-0.3,0.3c-0.2,0.3-0.4,0.6-0.5,0.9c-0.2,0.4-0.2,0.9-0.2,1.4c0,0.1,0,0.3,0,0.4
	c0,0.2,0.1,0.3,0.1,0.4c0.1,0.2,0.2,0.3,0.4,0.5l0.5,0.5c0.2,0.1,0.3,0.3,0.4,0.5c0,0.1,0,0.2,0,0.3c0,0.1,0,0.2,0,0.3
	c0,0.4-0.1,0.7-0.2,1.1c-0.1,0.4-0.2,0.8-0.4,1.2c-0.2,0.4-0.4,0.8-0.5,1.2c-0.4,0.8-0.7,1.6-0.9,2.5c-0.1,0.9-0.2,27.1-0.1,28
	s0.3,1.8,0.4,2.6c0.2,0.8,0.3,1.7,0.3,2.5c0,0.8,0,1.6-0.1,2.4s-0.1,1.5-0.1,2.1c-0.1,1.3-0.3,2.4-0.4,3.2c-0.1,0.4-0.1,0.7-0.2,0.9
	s-0.1,0.3-0.1,0.3h-2.6c0,0,0-0.1-0.1-0.3s-0.1-0.5-0.2-0.9c-0.1-0.8-0.3-1.8-0.4-3.2c-0.1-0.7-0.1-1.4-0.1-2.1s-0.1-1.5,0-2.4
	c0-0.8,0.1-1.7,0.3-2.5c0.2-0.9,0.3-1.7,0.4-2.6c0.1-0.9,0.1-27.1-0.1-28c-0.2-0.9-0.5-1.7-0.9-2.5c-0.2-0.4-0.4-0.8-0.5-1.2
	c-0.2-0.4-0.3-0.8-0.4-1.2c-0.1-0.4-0.2-0.7-0.2-1.1c0-0.1,0-0.2,0-0.3c0-0.1,0-0.2,0.1-0.3c0.1-0.2,0.2-0.4,0.4-0.5l0.5-0.5
	c0.2-0.1,0.3-0.3,0.4-0.5c0.1-0.1,0.1-0.3,0.1-0.4c0-0.1,0-0.3,0-0.4c0-0.5-0.1-0.9-0.2-1.4c-0.1-0.3-0.3-0.6-0.5-0.9
	c-0.2-0.2-0.3-0.3-0.3-0.3H77z"/>
<path class="st7" d="M174.4,131.4c0,0-0.1,0.1-0.3,0.3c-0.2,0.3-0.3,0.6-0.5,0.9c-0.2,0.4-0.2,0.9-0.2,1.4c0,0.1,0,0.3,0,0.4
	c0,0.2,0.1,0.3,0.1,0.4c0.1,0.2,0.2,0.3,0.4,0.5l0.5,0.5c0.2,0.1,0.3,0.3,0.4,0.5c0,0.1,0,0.2,0,0.3c0,0.1,0,0.2,0,0.3
	c0,0.4-0.1,0.7-0.2,1.1c-0.1,0.4-0.2,0.8-0.4,1.2c-0.2,0.4-0.4,0.8-0.5,1.2c-0.4,0.8-0.7,1.6-0.9,2.5c-0.2,0.9-0.2,27.1-0.1,28
	s0.3,1.8,0.4,2.6c0.2,0.8,0.3,1.7,0.3,2.5c0,0.8,0,1.6-0.1,2.4s-0.1,1.5-0.1,2.1c-0.1,1.3-0.3,2.4-0.4,3.2c-0.1,0.4-0.1,0.7-0.2,0.9
	s-0.1,0.3-0.1,0.3H170c0,0,0-0.1-0.1-0.3s-0.1-0.5-0.2-0.9c-0.1-0.8-0.3-1.8-0.4-3.2c-0.1-0.7-0.1-1.4-0.2-2.1s-0.1-1.5-0.1-2.4
	c0-0.8,0.1-1.7,0.3-2.5c0.2-0.9,0.3-1.7,0.4-2.6s0.1-27.1-0.1-28c-0.2-0.9-0.5-1.7-0.9-2.5c-0.2-0.4-0.4-0.8-0.5-1.2
	c-0.2-0.4-0.3-0.8-0.4-1.2c-0.1-0.4-0.2-0.7-0.2-1.1c0-0.1,0-0.2,0-0.3c0-0.1,0-0.2,0-0.3c0.1-0.2,0.2-0.4,0.4-0.5
	c0.2-0.2,0.4-0.3,0.5-0.5c0.2-0.1,0.3-0.3,0.4-0.5c0.1-0.1,0.1-0.3,0.1-0.4c0-0.1,0-0.3,0-0.4c0-0.5-0.1-0.9-0.2-1.4
	c-0.1-0.3-0.3-0.6-0.5-0.9c-0.2-0.2-0.3-0.3-0.3-0.3L174.4,131.4z"/>
<polygon class="st7" points="176.5,124.4 68.7,124.4 68.7,132.1 75.1,138.6 183,138.6 183,130.9 "/>
<path class="st7" d="M83.5,137.9c-0.1,0.1-0.2,0.2-0.3,0.3c-0.2,0.3-0.4,0.6-0.5,0.9c-0.2,0.4-0.2,0.9-0.2,1.4c0,0.1,0,0.3,0,0.4
	c0,0.2,0,0.3,0.1,0.4c0.1,0.2,0.2,0.3,0.4,0.5l0.5,0.5c0.2,0.1,0.3,0.3,0.4,0.5c0,0.1,0,0.2,0,0.3c0,0.1,0,0.2,0,0.3
	c0,0.4-0.1,0.7-0.2,1.1c-0.1,0.4-0.2,0.8-0.4,1.2c-0.2,0.4-0.4,0.8-0.5,1.2c-0.4,0.8-0.7,1.6-0.9,2.5c-0.2,0.9-0.2,27.1-0.1,28
	s0.3,1.8,0.4,2.6c0.2,0.8,0.3,1.7,0.3,2.5c0,0.8,0,1.6-0.1,2.4s-0.1,1.5-0.2,2.1c-0.1,1.3-0.3,2.4-0.4,3.2c-0.1,0.4-0.1,0.7-0.2,0.9
	s-0.1,0.3-0.1,0.3H79c0,0,0-0.1-0.1-0.3s-0.1-0.5-0.2-0.9c-0.1-0.8-0.3-1.9-0.4-3.2c-0.1-0.7-0.1-1.4-0.1-2.1s-0.1-1.5-0.1-2.4
	c0-0.8,0.1-1.7,0.3-2.5c0.2-0.9,0.4-1.7,0.4-2.6c0.1-0.9,0.1-27.1-0.1-28c-0.2-0.9-0.5-1.7-0.9-2.5c-0.2-0.4-0.4-0.8-0.5-1.2
	c-0.2-0.4-0.3-0.8-0.4-1.2c-0.1-0.4-0.2-0.7-0.2-1.1c0-0.1,0-0.2,0-0.3c0-0.1,0-0.2,0-0.3c0.1-0.2,0.2-0.4,0.4-0.5l0.5-0.5
	c0.2-0.1,0.3-0.3,0.4-0.5c0.1-0.1,0.1-0.3,0.1-0.4c0-0.1,0-0.3,0-0.4c0-0.8-0.3-1.6-0.7-2.3c-0.1-0.1-0.2-0.2-0.3-0.3H83.5z"/>
<path class="st7" d="M180.8,137.9c-0.1,0.1-0.2,0.2-0.3,0.3c-0.2,0.3-0.4,0.6-0.5,0.9c-0.2,0.4-0.2,0.9-0.2,1.4c0,0.1,0,0.3,0,0.4
	c0,0.2,0,0.3,0.1,0.4c0.1,0.2,0.2,0.3,0.4,0.5l0.5,0.5c0.2,0.1,0.3,0.3,0.4,0.5c0,0.1,0.1,0.2,0.1,0.3c0,0.1,0,0.2,0,0.3
	c0,0.4-0.1,0.7-0.2,1.1c-0.1,0.4-0.2,0.8-0.4,1.2c-0.2,0.4-0.4,0.8-0.5,1.2c-0.4,0.8-0.7,1.6-0.9,2.5c-0.2,0.9-0.2,27.1-0.1,28
	c0.1,0.9,0.2,1.7,0.4,2.6c0.2,0.8,0.3,1.7,0.3,2.5c0,0.8,0,1.6,0,2.4s-0.1,1.5-0.2,2.1c-0.1,1.3-0.3,2.4-0.4,3.2
	c-0.1,0.4-0.1,0.7-0.2,0.9s-0.1,0.3-0.1,0.3h-2.6c0,0,0-0.1-0.1-0.3s-0.1-0.5-0.2-0.9c-0.1-0.8-0.3-1.9-0.4-3.2
	c-0.1-0.7-0.1-1.4-0.1-2.1s-0.1-1.5-0.1-2.4c0-0.8,0.1-1.7,0.3-2.5c0.2-0.9,0.3-1.7,0.4-2.6s0.1-27.1-0.1-28
	c-0.2-0.9-0.5-1.7-0.9-2.5c-0.2-0.4-0.4-0.8-0.5-1.2c-0.2-0.4-0.3-0.8-0.4-1.2c-0.1-0.4-0.2-0.7-0.2-1.1c0-0.1,0-0.2,0-0.3
	c0-0.1,0-0.2,0-0.3c0.1-0.2,0.2-0.4,0.4-0.5c0.2-0.2,0.4-0.3,0.5-0.5c0.2-0.1,0.3-0.3,0.4-0.5c0.1-0.1,0.1-0.3,0.1-0.4
	c0-0.1,0-0.3,0-0.4c0-0.8-0.3-1.6-0.7-2.3c-0.1-0.1-0.2-0.2-0.3-0.3L180.8,137.9z"/>
<path class="st7" d="M77,131.4c-0.1,0.1-0.2,0.2-0.3,0.3c-0.2,0.3-0.4,0.6-0.5,0.9c-0.2,0.4-0.2,0.9-0.2,1.4c0,0.1,0,0.3,0,0.4
	c0,0.2,0.1,0.3,0.1,0.4c0.1,0.2,0.2,0.3,0.4,0.5l0.5,0.5c0.2,0.1,0.3,0.3,0.4,0.5c0,0.1,0,0.2,0,0.3c0,0.1,0,0.2,0,0.3
	c0,0.4-0.1,0.7-0.2,1.1c-0.1,0.4-0.2,0.8-0.4,1.2c-0.2,0.4-0.4,0.8-0.5,1.2c-0.4,0.8-0.7,1.6-0.9,2.5c-0.1,0.9-0.2,27.1-0.1,28
	s0.3,1.8,0.4,2.6c0.2,0.8,0.3,1.7,0.3,2.5c0,0.8,0,1.6-0.1,2.4s-0.1,1.5-0.1,2.1c-0.1,1.3-0.3,2.4-0.4,3.2c-0.1,0.4-0.1,0.7-0.2,0.9
	s-0.1,0.3-0.1,0.3h-2.6c0,0,0-0.1-0.1-0.3s-0.1-0.5-0.2-0.9c-0.1-0.8-0.3-1.8-0.4-3.2c-0.1-0.7-0.1-1.4-0.1-2.1s-0.1-1.5,0-2.4
	c0-0.8,0.1-1.7,0.3-2.5c0.2-0.9,0.3-1.7,0.4-2.6c0.1-0.9,0.1-27.1-0.1-28c-0.2-0.9-0.5-1.7-0.9-2.5c-0.2-0.4-0.4-0.8-0.5-1.2
	c-0.2-0.4-0.3-0.8-0.4-1.2c-0.1-0.4-0.2-0.7-0.2-1.1c0-0.1,0-0.2,0-0.3c0-0.1,0-0.2,0.1-0.3c0.1-0.2,0.2-0.4,0.4-0.5l0.5-0.5
	c0.2-0.1,0.3-0.3,0.4-0.5c0.1-0.1,0.1-0.3,0.1-0.4c0-0.1,0-0.3,0-0.4c0-0.5-0.1-0.9-0.2-1.4c-0.1-0.3-0.3-0.6-0.5-0.9
	c-0.2-0.2-0.3-0.3-0.3-0.3H77z"/>
<path class="st7" d="M174.4,131.4c0,0-0.1,0.1-0.3,0.3c-0.2,0.3-0.3,0.6-0.5,0.9c-0.2,0.4-0.2,0.9-0.2,1.4c0,0.1,0,0.3,0,0.4
	c0,0.2,0.1,0.3,0.1,0.4c0.1,0.2,0.2,0.3,0.4,0.5l0.5,0.5c0.2,0.1,0.3,0.3,0.4,0.5c0,0.1,0,0.2,0,0.3c0,0.1,0,0.2,0,0.3
	c0,0.4-0.1,0.7-0.2,1.1c-0.1,0.4-0.2,0.8-0.4,1.2c-0.2,0.4-0.4,0.8-0.5,1.2c-0.4,0.8-0.7,1.6-0.9,2.5c-0.2,0.9-0.2,27.1-0.1,28
	s0.3,1.8,0.4,2.6c0.2,0.8,0.3,1.7,0.3,2.5c0,0.8,0,1.6-0.1,2.4s-0.1,1.5-0.1,2.1c-0.1,1.3-0.3,2.4-0.4,3.2c-0.1,0.4-0.1,0.7-0.2,0.9
	s-0.1,0.3-0.1,0.3H170c0,0,0-0.1-0.1-0.3s-0.1-0.5-0.2-0.9c-0.1-0.8-0.3-1.8-0.4-3.2c-0.1-0.7-0.1-1.4-0.2-2.1s-0.1-1.5-0.1-2.4
	c0-0.8,0.1-1.7,0.3-2.5c0.2-0.9,0.3-1.7,0.4-2.6s0.1-27.1-0.1-28c-0.2-0.9-0.5-1.7-0.9-2.5c-0.2-0.4-0.4-0.8-0.5-1.2
	c-0.2-0.4-0.3-0.8-0.4-1.2c-0.1-0.4-0.2-0.7-0.2-1.1c0-0.1,0-0.2,0-0.3c0-0.1,0-0.2,0-0.3c0.1-0.2,0.2-0.4,0.4-0.5
	c0.2-0.2,0.4-0.3,0.5-0.5c0.2-0.1,0.3-0.3,0.4-0.5c0.1-0.1,0.1-0.3,0.1-0.4c0-0.1,0-0.3,0-0.4c0-0.5-0.1-0.9-0.2-1.4
	c-0.1-0.3-0.3-0.6-0.5-0.9c-0.2-0.2-0.3-0.3-0.3-0.3L174.4,131.4z"/>
<polygon class="st7" points="176.5,124.4 68.7,124.4 68.7,132.1 75.1,138.6 183,138.6 183,130.9 "/>
<path class="st7" d="M83.5,137.9c-0.1,0.1-0.2,0.2-0.3,0.3c-0.2,0.3-0.4,0.6-0.5,0.9c-0.2,0.4-0.2,0.9-0.2,1.4c0,0.1,0,0.3,0,0.4
	c0,0.2,0,0.3,0.1,0.4c0.1,0.2,0.2,0.3,0.4,0.5l0.5,0.5c0.2,0.1,0.3,0.3,0.4,0.5c0,0.1,0,0.2,0,0.3c0,0.1,0,0.2,0,0.3
	c0,0.4-0.1,0.7-0.2,1.1c-0.1,0.4-0.2,0.8-0.4,1.2c-0.2,0.4-0.4,0.8-0.5,1.2c-0.4,0.8-0.7,1.6-0.9,2.5c-0.2,0.9-0.2,27.1-0.1,28
	s0.3,1.8,0.4,2.6c0.2,0.8,0.3,1.7,0.3,2.5c0,0.8,0,1.6-0.1,2.4s-0.1,1.5-0.2,2.1c-0.1,1.3-0.3,2.4-0.4,3.2c-0.1,0.4-0.1,0.7-0.2,0.9
	s-0.1,0.3-0.1,0.3H79c0,0,0-0.1-0.1-0.3s-0.1-0.5-0.2-0.9c-0.1-0.8-0.3-1.9-0.4-3.2c-0.1-0.7-0.1-1.4-0.1-2.1s-0.1-1.5-0.1-2.4
	c0-0.8,0.1-1.7,0.3-2.5c0.2-0.9,0.4-1.7,0.4-2.6c0.1-0.9,0.1-27.1-0.1-28c-0.2-0.9-0.5-1.7-0.9-2.5c-0.2-0.4-0.4-0.8-0.5-1.2
	c-0.2-0.4-0.3-0.8-0.4-1.2c-0.1-0.4-0.2-0.7-0.2-1.1c0-0.1,0-0.2,0-0.3c0-0.1,0-0.2,0-0.3c0.1-0.2,0.2-0.4,0.4-0.5l0.5-0.5
	c0.2-0.1,0.3-0.3,0.4-0.5c0.1-0.1,0.1-0.3,0.1-0.4c0-0.1,0-0.3,0-0.4c0-0.8-0.3-1.6-0.7-2.3c-0.1-0.1-0.2-0.2-0.3-0.3H83.5z"/>
<path class="st7" d="M180.8,137.9c-0.1,0.1-0.2,0.2-0.3,0.3c-0.2,0.3-0.4,0.6-0.5,0.9c-0.2,0.4-0.2,0.9-0.2,1.4c0,0.1,0,0.3,0,0.4
	c0,0.2,0,0.3,0.1,0.4c0.1,0.2,0.2,0.3,0.4,0.5l0.5,0.5c0.2,0.1,0.3,0.3,0.4,0.5c0,0.1,0.1,0.2,0.1,0.3c0,0.1,0,0.2,0,0.3
	c0,0.4-0.1,0.7-0.2,1.1c-0.1,0.4-0.2,0.8-0.4,1.2c-0.2,0.4-0.4,0.8-0.5,1.2c-0.4,0.8-0.7,1.6-0.9,2.5c-0.2,0.9-0.2,27.1-0.1,28
	c0.1,0.9,0.2,1.7,0.4,2.6c0.2,0.8,0.3,1.7,0.3,2.5c0,0.8,0,1.6,0,2.4s-0.1,1.5-0.2,2.1c-0.1,1.3-0.3,2.4-0.4,3.2
	c-0.1,0.4-0.1,0.7-0.2,0.9s-0.1,0.3-0.1,0.3h-2.6c0,0,0-0.1-0.1-0.3s-0.1-0.5-0.2-0.9c-0.1-0.8-0.3-1.9-0.4-3.2
	c-0.1-0.7-0.1-1.4-0.1-2.1s-0.1-1.5-0.1-2.4c0-0.8,0.1-1.7,0.3-2.5c0.2-0.9,0.3-1.7,0.4-2.6s0.1-27.1-0.1-28
	c-0.2-0.9-0.5-1.7-0.9-2.5c-0.2-0.4-0.4-0.8-0.5-1.2c-0.2-0.4-0.3-0.8-0.4-1.2c-0.1-0.4-0.2-0.7-0.2-1.1c0-0.1,0-0.2,0-0.3
	c0-0.1,0-0.2,0-0.3c0.1-0.2,0.2-0.4,0.4-0.5c0.2-0.2,0.4-0.3,0.5-0.5c0.2-0.1,0.3-0.3,0.4-0.5c0.1-0.1,0.1-0.3,0.1-0.4
	c0-0.1,0-0.3,0-0.4c0-0.8-0.3-1.6-0.7-2.3c-0.1-0.1-0.2-0.2-0.3-0.3L180.8,137.9z"/>
<path class="st3" d="M183,130.9c0-1.2-6.5-8.3-7.6-8.3H71.1c-1.2,0-2.1,0.9-2.1,2.1c0,0,0,0,0,0c0,0,8.7,5,8.7,6.2H183z"/>
</svg>
