<svg id="Layer_1" data-name="Layer 1" xmlns="http://www.w3.org/2000/svg" viewBox="0 0 239.69 192.25"><defs><style>.cls-1{fill:#fdd0b1;}.cls-2{fill:#e9ba23;}.cls-3{opacity:0.1;}.cls-4{fill:#977b17;}.cls-5{fill:#887014;}.cls-6{fill:#bd971c;}.cls-7{fill:#bf991d;}.cls-8{fill:#fff;opacity:0.5;}</style></defs><path class="cls-1" d="M457.87,463c-29.37,23.53-32,91.63-23.38,126.78s156.38,61.8,187.29,32,28.43-117.19,3.09-149.15S500.41,428.94,457.87,463Z" transform="translate(-420.16 -442.42)"/><path class="cls-2" d="M628.64,497.27C623,502.79,605.43,509,583.5,518c-29.67,12.24-148.37,56.26-148.37,56.26l.61,2,.61,2s120.47-38.31,151.29-46.89c22.77-6.34,40.52-11.91,48.18-11s16.34,8.37,16.34,8.37L637.21,482S634.3,491.76,628.64,497.27Z" transform="translate(-420.16 -442.42)"/><path class="cls-3" d="M435.13,574.28l4.42-1.64c22.17-7,119.52-37.87,146.76-45.46,22.78-6.34,40.52-11.9,48.19-11s16.34,8.37,16.34,8.37l1.32,4.14s-8.68-7.44-16.34-8.37-25.41,4.63-48.18,11c-30.82,8.58-151.29,46.89-151.29,46.89l-.61-2Z" transform="translate(-420.16 -442.42)"/><path class="cls-2" d="M422.79,573.59l1.95,6.3,2,6.29s9.62-2.8,9.09-9.74C432.31,570.43,422.79,573.59,422.79,573.59Z" transform="translate(-420.16 -442.42)"/><path class="cls-4" d="M429.21,585.44a2.61,2.61,0,0,1-1.72,3.27h0a2.61,2.61,0,0,1-3.27-1.72l-3.94-12.66a2.61,2.61,0,0,1,1.72-3.27h0a2.6,2.6,0,0,1,3.27,1.71Z" transform="translate(-420.16 -442.42)"/><path class="cls-5" d="M437.62,579.66a1.31,1.31,0,0,1-.87,1.64h0a1.3,1.3,0,0,1-1.63-.86l-2.15-6.9a1.32,1.32,0,0,1,.86-1.64h0a1.32,1.32,0,0,1,1.64.86Z" transform="translate(-420.16 -442.42)"/><rect class="cls-6" x="504.27" y="534.2" width="3.16" height="12.53" transform="translate(-557.89 -267.73) rotate(-17.28)"/><path class="cls-4" d="M529.37,597.6a2,2,0,0,1-1.31,2.49l-6.66,2.07a2,2,0,0,1-2.49-1.31l-17.67-56.76a2,2,0,0,1,1.31-2.49l6.66-2.07a2,2,0,0,1,2.5,1.31Z" transform="translate(-420.16 -442.42)"/><path class="cls-2" d="M508.92,531.89a1.69,1.69,0,0,1-1.11,2.12l-7.23,2.25a1.7,1.7,0,0,1-2.12-1.12h0a1.68,1.68,0,0,1,1.11-2.11l7.23-2.26a1.7,1.7,0,0,1,2.12,1.12Z" transform="translate(-420.16 -442.42)"/><rect class="cls-6" x="520.12" y="529.27" width="3.16" height="12.53" transform="translate(-555.62 -263.42) rotate(-17.27)"/><path class="cls-4" d="M545.22,592.67a2,2,0,0,1-1.31,2.49l-6.66,2.07a2,2,0,0,1-2.5-1.31l-17.66-56.75a2,2,0,0,1,1.31-2.5l6.66-2.07a2,2,0,0,1,2.5,1.31Z" transform="translate(-420.16 -442.42)"/><path class="cls-2" d="M524.77,527a1.69,1.69,0,0,1-1.11,2.12l-7.24,2.26a1.68,1.68,0,0,1-2.11-1.12h0a1.69,1.69,0,0,1,1.11-2.12l7.23-2.25a1.69,1.69,0,0,1,2.12,1.11Z" transform="translate(-420.16 -442.42)"/><rect class="cls-6" x="535.97" y="524.34" width="3.16" height="12.53" transform="translate(-553.42 -258.98) rotate(-17.26)"/><path class="cls-4" d="M561.06,587.73a2,2,0,0,1-1.31,2.5l-6.66,2.07A2,2,0,0,1,550.6,591l-17.66-56.76a2,2,0,0,1,1.31-2.49l6.66-2.07A2,2,0,0,1,543.4,531Z" transform="translate(-420.16 -442.42)"/><path class="cls-2" d="M540.62,522a1.69,1.69,0,0,1-1.12,2.11l-7.23,2.25a1.69,1.69,0,0,1-2.12-1.11h0a1.69,1.69,0,0,1,1.12-2.12l7.23-2.25a1.69,1.69,0,0,1,2.12,1.12Z" transform="translate(-420.16 -442.42)"/><rect class="cls-6" x="573.74" y="552.8" width="2.52" height="7" transform="translate(-559.49 -246.44) rotate(-17.29)"/><path class="cls-2" d="M577.89,550.89a1.35,1.35,0,0,1-.89,1.69l-5.76,1.8a1.35,1.35,0,0,1-1.69-.89h0a1.34,1.34,0,0,1,.88-1.69l5.77-1.8a1.35,1.35,0,0,1,1.69.89Z" transform="translate(-420.16 -442.42)"/><path class="cls-7" d="M595.69,564.59l-111.3,34.64a20.26,20.26,0,0,1-12-38.69l111.29-34.63a20.26,20.26,0,0,1,12,38.68Zm-121.56,1.66a14.28,14.28,0,0,0,8.48,27.27l111.31-34.64a14.28,14.28,0,0,0-8.49-27.27Z" transform="translate(-420.16 -442.42)"/><path class="cls-2" d="M593.31,573.16l-94.81,29.5a10.46,10.46,0,0,1-6.22-20l94.82-29.51a10.46,10.46,0,0,1,6.21,20Zm-99.54,14.28A5.48,5.48,0,1,0,497,597.9l94.81-29.5a5.48,5.48,0,1,0-3.26-10.46Z" transform="translate(-420.16 -442.42)"/><rect class="cls-7" x="644.46" y="472.52" width="6.44" height="63.18" rx="2.03" transform="translate(997.97 344.57) rotate(162.27)"/><path class="cls-8" d="M637.39,487.85s.81,12.74-20.69,21C616.7,508.9,642.42,503.56,637.39,487.85Z" transform="translate(-420.16 -442.42)"/></svg>