<svg id="Layer_1" data-name="Layer 1" xmlns="http://www.w3.org/2000/svg" viewBox="0 0 214.26 200.5"><defs><style>.cls-1{fill:#9fd9cc;}.cls-2{fill:#f2ab2f;}.cls-3{fill:#ffbe58;}.cls-4{fill:#b76b06;}.cls-5{fill:#fcf8f6;}.cls-6{fill:#e67c0d;}</style></defs><path class="cls-1" d="M458.61,462.76c-29.37,23.53-32,91.62-23.38,126.78s156.38,61.79,187.29,32S651,504.31,625.61,472.35,501.15,428.67,458.61,462.76Z" transform="translate(-430.9 -439.68)"/><rect class="cls-2" x="77.85" y="32.54" width="12.17" height="128.04"/><polygon class="cls-3" points="92.26 19.95 75.61 19.95 77.85 32.54 90.02 32.54 92.26 19.95"/><polygon class="cls-3" points="92.26 173.18 75.61 173.18 77.85 160.58 90.02 160.58 92.26 173.18"/><rect class="cls-2" x="75.61" y="173.18" width="16.64" height="12.59"/><path class="cls-2" d="M584,483.49h0a64.46,64.46,0,0,0-58.94-38.35h-4.28v14.53h2.38a58.41,58.41,0,0,1,51.17,30.25h0a17.28,17.28,0,0,0,21.8,7.63l27-11.24a3.25,3.25,0,0,1,3.82,5L523.16,625.45h31.78l77.29-131.39a9,9,0,0,0-10.3-13.23l-26.85,7.82A9.28,9.28,0,0,1,584,483.49Z" transform="translate(-430.9 -439.68)"/><path class="cls-4" d="M544.48,627.71a.45.45,0,0,1-.19-.05.38.38,0,0,1-.11-.5l85.25-134a6.34,6.34,0,0,0-7.38-9.41l-28.65,9.71a10.54,10.54,0,0,1-13.08-5.73,62.25,62.25,0,0,0-56.89-37h-5.5a.36.36,0,1,1,0-.71h5.5A63,63,0,0,1,581,487.45a9.81,9.81,0,0,0,12.19,5.35l28.65-9.71A7.05,7.05,0,0,1,630,493.56l-85.25,134A.38.38,0,0,1,544.48,627.71Z" transform="translate(-430.9 -439.68)"/><rect class="cls-2" x="68.45" y="185.18" width="60.34" height="15.32" rx="7.66"/><rect class="cls-2" x="75.61" y="4.98" width="16.64" height="14.97"/><path class="cls-2" d="M523,439.68H506.65a2.73,2.73,0,0,0-2.73,2.73h0a2.73,2.73,0,0,0,2.73,2.73H523a2.73,2.73,0,0,0,2.73-2.73h0A2.73,2.73,0,0,0,523,439.68Z" transform="translate(-430.9 -439.68)"/><path class="cls-5" d="M529.76,623.91a.36.36,0,0,1-.36-.36V456.78a.36.36,0,0,1,.71,0V623.55A.36.36,0,0,1,529.76,623.91Z" transform="translate(-430.9 -439.68)"/><path class="cls-5" d="M535,616.78a.36.36,0,0,1-.36-.35V457.26a.36.36,0,0,1,.72,0V616.43A.36.36,0,0,1,535,616.78Z" transform="translate(-430.9 -439.68)"/><path class="cls-5" d="M539.73,610.61a.36.36,0,0,1-.35-.36V458.68a.36.36,0,0,1,.71,0V610.25A.36.36,0,0,1,539.73,610.61Z" transform="translate(-430.9 -439.68)"/><path class="cls-5" d="M545,603.48a.36.36,0,0,1-.36-.36v-143a.36.36,0,0,1,.72,0v143A.36.36,0,0,1,545,603.48Z" transform="translate(-430.9 -439.68)"/><path class="cls-5" d="M550.19,596.83a.36.36,0,0,1-.36-.36v-134a.36.36,0,1,1,.71,0v134A.36.36,0,0,1,550.19,596.83Z" transform="translate(-430.9 -439.68)"/><path class="cls-6" d="M555.41,589.7a.36.36,0,0,1-.36-.36v-124a.36.36,0,0,1,.72,0v124A.36.36,0,0,1,555.41,589.7Z" transform="translate(-430.9 -439.68)"/><path class="cls-6" d="M560.16,583.05a.36.36,0,0,1-.35-.36v-114a.36.36,0,1,1,.71,0v114A.36.36,0,0,1,560.16,583.05Z" transform="translate(-430.9 -439.68)"/><path class="cls-5" d="M565.39,576.4A.36.36,0,0,1,565,576V472.94a.36.36,0,1,1,.72,0V576A.36.36,0,0,1,565.39,576.4Z" transform="translate(-430.9 -439.68)"/><path class="cls-5" d="M570.14,570.22a.36.36,0,0,1-.36-.36V477.69a.36.36,0,1,1,.72,0v92.17A.36.36,0,0,1,570.14,570.22Z" transform="translate(-430.9 -439.68)"/><path class="cls-5" d="M575.37,563.57a.36.36,0,0,1-.36-.36V484.34a.36.36,0,1,1,.72,0v78.87A.36.36,0,0,1,575.37,563.57Z" transform="translate(-430.9 -439.68)"/><path class="cls-5" d="M580.12,556.92a.36.36,0,0,1-.36-.36V492.89a.36.36,0,0,1,.72,0v63.67A.36.36,0,0,1,580.12,556.92Z" transform="translate(-430.9 -439.68)"/><path class="cls-6" d="M585.35,549.79a.36.36,0,0,1-.36-.36V494.79a.36.36,0,0,1,.71,0v54.64A.36.36,0,0,1,585.35,549.79Z" transform="translate(-430.9 -439.68)"/><path class="cls-6" d="M590.57,543.14a.36.36,0,0,1-.36-.36v-47a.36.36,0,0,1,.72,0v47A.36.36,0,0,1,590.57,543.14Z" transform="translate(-430.9 -439.68)"/><path class="cls-5" d="M595.8,536a.36.36,0,0,1-.36-.36V495.74a.36.36,0,0,1,.72,0v39.91A.36.36,0,0,1,595.8,536Z" transform="translate(-430.9 -439.68)"/><path class="cls-5" d="M600.55,529.84a.36.36,0,0,1-.36-.36V493.84a.36.36,0,0,1,.72,0v35.64A.36.36,0,0,1,600.55,529.84Z" transform="translate(-430.9 -439.68)"/><path class="cls-6" d="M605.78,523.18a.36.36,0,0,1-.36-.35V491.94a.36.36,0,0,1,.71,0v30.89A.35.35,0,0,1,605.78,523.18Z" transform="translate(-430.9 -439.68)"/><path class="cls-5" d="M610.53,516.53a.36.36,0,0,1-.36-.36V490a.36.36,0,0,1,.36-.36.36.36,0,0,1,.36.36v26.13A.36.36,0,0,1,610.53,516.53Z" transform="translate(-430.9 -439.68)"/><path class="cls-6" d="M615.75,509.88a.36.36,0,0,1-.35-.36V488.14a.36.36,0,1,1,.71,0v21.38A.36.36,0,0,1,615.75,509.88Z" transform="translate(-430.9 -439.68)"/><path class="cls-5" d="M620.5,503.23a.36.36,0,0,1-.35-.36V486.24a.36.36,0,1,1,.71,0v16.63A.36.36,0,0,1,620.5,503.23Z" transform="translate(-430.9 -439.68)"/><path class="cls-5" d="M625.26,497.05a.36.36,0,0,1-.36-.36V484.82a.36.36,0,1,1,.71,0v11.87A.36.36,0,0,1,625.26,497.05Z" transform="translate(-430.9 -439.68)"/></svg>