<svg id="Layer_1" data-name="Layer 1" xmlns="http://www.w3.org/2000/svg" viewBox="0 0 209.97 201.42"><defs><style>.cls-1{fill:#fdd0b1;}.cls-2{fill:#f6666a;}.cls-3{fill:#ccc;}.cls-4{fill:#30284b;}.cls-5{fill:#9e463c;}.cls-6{fill:#785141;}.cls-7{fill:#efcb4d;}.cls-8{fill:#1a1a1a;}.cls-9{fill:#f05a28;}.cls-10{fill:#f09555;}.cls-11{fill:#fff;}.cls-12{fill:#854e43;}</style></defs><path class="cls-1" d="M459.41,466.37C430.63,489.43,428,556.16,436.5,590.61S589.75,651.17,620,621.94s27.87-114.85,3-146.17S501.1,433,459.41,466.37Z" transform="translate(-432.26 -446.17)"/><path class="cls-2" d="M572.92,608.87l1.29-3a1.47,1.47,0,0,1,1.58-.87,38.45,38.45,0,0,0,1.48-10.57,38,38,0,0,0-2.3-13.08,1.47,1.47,0,0,1-1.13-.82l-1.41-3a1.47,1.47,0,0,1,.14-1.49,38.86,38.86,0,0,0-4.11-6c-.64-.78-1.31-1.52-2-2.24l-.8-.8c-.63-.61-1.27-1.19-1.94-1.76l2.33-.13-.35-6.15c-.83,0-1.49-.46-1.52-1l-.09-1.6-1.13.07c-1.51.06-3,.06-4.4,0l.4,5.4c-1-.6-2-1.15-3-1.67a1.46,1.46,0,0,1-1.07,0l-3.06-1.22a1.42,1.42,0,0,1-.81-.82,39,39,0,0,0-19.09-1.41,36.16,36.16,0,0,0-4.29,1,1.42,1.42,0,0,1-.86.87l-3.09,1.14a1.45,1.45,0,0,1-1.19-.08,38.67,38.67,0,0,0-15.4,12.79l1.13-18.48c-7.71-1.88-13-5.58-12.71-9.4a3.89,3.89,0,0,1,.13-.68l-2.21-.16-.15,1.35a1.18,1.18,0,0,1,.78,1.13l-.28,2.5a1.33,1.33,0,0,1-1.58.94c-.81-.09-1.4-.66-1.33-1.27l.28-2.5a1.25,1.25,0,0,1,1.29-1l.15-1.25-16.25-1.18h0l-2.37,38.75h.16l27.67,2c-.25.81-.47,1.63-.66,2.45a38.11,38.11,0,0,0,.75,20.31,1.47,1.47,0,0,1,1.39.79l1.52,2.92a1.48,1.48,0,0,1-.6,2c0,.1.1.21.16.31a38.64,38.64,0,0,0,15.51,16,1.45,1.45,0,0,1,1.44-.06l2.92,1.51a1.39,1.39,0,0,1,.74.92,39,39,0,0,0,27.73-.1,1.44,1.44,0,0,1,.61-.61l2.9-1.55a1.48,1.48,0,0,1,1.25-.06,38.65,38.65,0,0,0,15.68-16.16c.17-.34.34-.68.5-1A1.47,1.47,0,0,1,572.92,608.87Zm-94.35-30a1.24,1.24,0,0,1-1.26,1l-.13,1.47-.84-.08.13-1.53a1.16,1.16,0,0,1-.81-1.1l.21-2.51a1.35,1.35,0,0,1,1.56-1c.8.07,1.41.63,1.36,1.24Zm1.3-31a1.31,1.31,0,0,1-1.57.95c-.81-.09-1.4-.66-1.33-1.28l.28-2.49a1.25,1.25,0,0,1,1.29-1l.17-1.47.84.1-.18,1.53a1.16,1.16,0,0,1,.79,1.12Zm11.61,31.86a1.24,1.24,0,0,1-1.26,1l-.13,1.47-.84-.08.13-1.53a1.16,1.16,0,0,1-.81-1.1l.21-2.51a1.34,1.34,0,0,1,1.56-1c.8.07,1.41.63,1.36,1.24Zm9.58,1.38a1.46,1.46,0,0,1-.69-1.95l1.43-3a1.46,1.46,0,1,1,2.64,1.27l-1.43,3A1.46,1.46,0,0,1,501.06,581.18Z" transform="translate(-432.26 -446.17)"/><path class="cls-3" d="M616.68,534.83H618A4.5,4.5,0,0,0,616.68,534.83Z" transform="translate(-432.26 -446.17)"/><path class="cls-3" d="M504.13,611.59a1.46,1.46,0,0,1-1.93-.56l-.55,1,2.67-.16c-.06-.1-.11-.21-.16-.31Z" transform="translate(-432.26 -446.17)"/><path class="cls-3" d="M573.7,610.79l-.1,0c-.16.34-.33.68-.5,1l1.45.07.33-1.06A1.47,1.47,0,0,1,573.7,610.79Z" transform="translate(-432.26 -446.17)"/><path class="cls-4" d="M469.83,616l.58-1-.58.08Z" transform="translate(-432.26 -446.17)"/><path class="cls-4" d="M467.44,616v-.57l-.47.07Z" transform="translate(-432.26 -446.17)"/><path class="cls-2" d="M591.21,553.41l.16,3c0,.56-.57,1-1.39,1.19l.35,6.16,1.57-.08a2.33,2.33,0,0,1,.05-.28c.27-1.37,1.46-1.05,1.55-.05a1.77,1.77,0,0,1,0,.24l7.68-.43-.35-6.18c-.83,0-1.49-.46-1.52-1l-.17-3c0-.56.58-1.06,1.4-1.19l-.44-7.68-10.86.61.43,7.68C590.52,552.42,591.18,552.85,591.21,553.41Z" transform="translate(-432.26 -446.17)"/><path class="cls-2" d="M578.18,564.4l-.35-6.16c-.83,0-1.49-.46-1.52-1l-.17-3a1.07,1.07,0,0,1,.59-.9,34.68,34.68,0,0,1-9.19,2.57l.1,1.78c0,.56-.58,1.06-1.4,1.19l.35,6.15Z" transform="translate(-432.26 -446.17)"/><path class="cls-2" d="M589.78,563.75l-.35-6.16c-.83,0-1.49-.47-1.52-1l-.17-3c0-.56.57-1.05,1.4-1.19l-.44-7.68-6.14.34a4.25,4.25,0,0,1,.38,1.52c.1,2.25-1.75,4.39-4.87,6.1l0,.35c.83,0,1.49.46,1.52,1l.17,3c0,.56-.57,1.06-1.4,1.19l.35,6.16Z" transform="translate(-432.26 -446.17)"/><path class="cls-2" d="M600.66,544.06l.44,7.68c.83,0,1.49.46,1.52,1l.17,3c0,.56-.58,1.06-1.4,1.19l.35,6.17,5.06-.28a10.69,10.69,0,0,1,1.6,0L607,543.61a11,11,0,0,1-1.61.18Z" transform="translate(-432.26 -446.17)"/><path class="cls-5" d="M577.16,553.16a2.34,2.34,0,0,1,.38-.09V553Z" transform="translate(-432.26 -446.17)"/><path class="cls-6" d="M566.59,565.05l-.35-6.15-.27,0a2.61,2.61,0,0,1-.28,0l.35,6.15Z" transform="translate(-432.26 -446.17)"/><path class="cls-6" d="M578.73,564.37l-.35-6.16-.27,0h-.28l.35,6.16Z" transform="translate(-432.26 -446.17)"/><path class="cls-6" d="M577.54,553v.1a1.27,1.27,0,0,1,.28,0h.27l0-.35Z" transform="translate(-432.26 -446.17)"/><path class="cls-6" d="M590,557.56l-.28,0h-.27l.35,6.16.55,0Z" transform="translate(-432.26 -446.17)"/><path class="cls-6" d="M589.41,552.38h.27l-.43-7.68-.55,0,.44,7.68Z" transform="translate(-432.26 -446.17)"/><path class="cls-7" d="M590,557.56c.82-.14,1.43-.63,1.39-1.19l-.16-3c0-.56-.69-1-1.53-1h-.27l-.27,0c-.83.14-1.43.63-1.4,1.19l.17,3c0,.56.69,1,1.52,1h.27Z" transform="translate(-432.26 -446.17)"/><path class="cls-6" d="M600.84,556.94l.35,6.18.55,0-.35-6.17-.27,0Z" transform="translate(-432.26 -446.17)"/><path class="cls-6" d="M600.82,551.73h.28l-.44-7.68-.55,0,.44,7.68Z" transform="translate(-432.26 -446.17)"/><path class="cls-7" d="M600.55,551.77c-.82.13-1.43.63-1.4,1.19l.17,3c0,.56.69,1,1.52,1h.28l.27,0c.82-.13,1.43-.63,1.4-1.19l-.17-3c0-.56-.69-1-1.52-1h-.28Z" transform="translate(-432.26 -446.17)"/><path class="cls-7" d="M606.8,562.8l-5.06.28-.55,0-7.68.43a14,14,0,0,1-.19,1.87l5.82-.32,2.5-.15h0l5.25-.3c2.58-.14,2.55-.56,2.53-1.07s0-.71-1-.8A10.69,10.69,0,0,0,606.8,562.8Z" transform="translate(-432.26 -446.17)"/><path class="cls-7" d="M589.78,563.75l-11,.62-.55,0-11.59.65-.55,0-2.33.13c.67.57,1.31,1.15,1.94,1.76l25.92-1.45c.12-.62.21-1.25.33-1.88l-1.57.08Z" transform="translate(-432.26 -446.17)"/><rect class="cls-4" x="150.73" y="129.53" width="1.46" height="4.85"/><path class="cls-4" d="M583,607l-4.8,5.07-1.36,1.44-.87-1.57-.75-1.37-.17-.31-.16.53-.33,1.06-.06.17,1.36,2.52-8.6,9.1a2.06,2.06,0,0,1,1.3.61l8-8.44c2,3.7,4.72,8.84,5,9.42.81,1.95,2.33,13.89,2.68,16.68a2.7,2.7,0,0,1,1.73,0c-.5-3-2.59-15.57-2.91-16.63-.22-.75-3.23-6.33-5.48-10.45l2.45-2.6,3-3.18v0l0,0,0,0v9.5h1.46v-8l1.87,2,8,8.51-.53.74a2.93,2.93,0,0,1,1.85,1.22l.23-.32,2.85,3a2.13,2.13,0,0,1,1.3-.62l-3.34-3.54,5.31-7.52,4.05-5.72,4.83,4.88-1,1.81a25.41,25.41,0,0,0-1.63,3.44,6,6,0,0,0-.29,3.73,1.55,1.55,0,0,1,.31,0,2.28,2.28,0,0,1,1.26.38,19.08,19.08,0,0,1,2.1-7.28c.13-.28.28-.56.43-.84l1,1,3,3h3.35l1-1.84,3.68-6.41,2.11,7.48,3.55,12.5a2.9,2.9,0,0,1,1.83-.41l-3.3-11.67-4.32-15.29,8.51,16.22.51,1a2.9,2.9,0,0,1,1.72-.76l-16.5-31.53V538.39l-.14,0h-1.48a1.56,1.56,0,0,1-.57-.11v52.08l-16.57,23.43L595.18,620l-6.82-7.21-3.91-4.13V582.93H583Zm36.79-12.26,3.72,13.16-5,8.45-.25.43V591.89Zm-3.68-.51v22.55l-.88-1-2.41-2.6c.25-.43.53-.86.82-1.3,1.59-2.38,1.78-13.47,1.8-16.75Zm-2.43,3.43c-.18,2.53-.88,11.61-1.35,12.87a14.3,14.3,0,0,1-.69,1.42L607.06,607Z" transform="translate(-432.26 -446.17)"/><path class="cls-8" d="M582.67,618.59a1.42,1.42,0,1,0,0,2.83h2.1a1.42,1.42,0,1,0,0-2.83h-2.1Z" transform="translate(-432.26 -446.17)"/><path class="cls-4" d="M598.77,625.77a2,2,0,0,0-.6,1.44,2.1,2.1,0,1,0,2.1-2.07h-.2A2.13,2.13,0,0,0,598.77,625.77Z" transform="translate(-432.26 -446.17)"/><path class="cls-4" d="M599.14,565.1l-.43,0L589,572.7h0a46.08,46.08,0,0,0,3.77-4.81,10.91,10.91,0,0,0,.55-2.47,14,14,0,0,0,.19-1.87,1.77,1.77,0,0,0,0-.24c-.09-1-1.28-1.32-1.55.05a2.33,2.33,0,0,0-.05.28c-.12.63-.21,1.26-.33,1.88a8.78,8.78,0,0,1-.54,1.86c-.54,1.28-5.21,5.94-5.21,5.94l-.09.19a1.19,1.19,0,0,1,.55,1,1.22,1.22,0,0,1-.16.6l.27-.16-.4.34,3.87-2.56-3.84,8a1.17,1.17,0,0,1,.49,1h0l4.68-9.89L601.64,565h0Z" transform="translate(-432.26 -446.17)"/><path class="cls-4" d="M581.89,573.32a1.2,1.2,0,0,0-1,.53,1.13,1.13,0,0,0-.16.94,1.19,1.19,0,0,0,1.15.91h3.2a1.2,1.2,0,0,0,1-.59,1.22,1.22,0,0,0,.16-.6,1.19,1.19,0,0,0-.55-1,1.17,1.17,0,0,0-.64-.19Z" transform="translate(-432.26 -446.17)"/><path class="cls-4" d="M579.08,574.15l1.66.64a1.13,1.13,0,0,1,.16-.94l-14.45-6.08c.7.72,1.37,1.46,2,2.24l9.26,3.61,3.56,7.28h0a1.15,1.15,0,0,1,.84-.35h.11l.07,0Z" transform="translate(-432.26 -446.17)"/><path class="cls-4" d="M586,580.78a1.2,1.2,0,0,0-.7-.23h-3.2a1.2,1.2,0,0,0-1.19,1.19,1.19,1.19,0,0,0,1.19,1.19h3.2a1.19,1.19,0,0,0,1.19-1.19h0A1.17,1.17,0,0,0,586,580.78Z" transform="translate(-432.26 -446.17)"/><path class="cls-4" d="M567.25,623.62h-.2a2.14,2.14,0,1,0,.2,0Z" transform="translate(-432.26 -446.17)"/><rect class="cls-6" x="477.37" y="548.79" width="0.62" height="28.33" transform="translate(-400.92 -471.33) rotate(3.12)"/><path class="cls-6" d="M476.47,579.75l-.13,1.53.84.08.13-1.47H477A1.93,1.93,0,0,1,476.47,579.75Z" transform="translate(-432.26 -446.17)"/><path class="cls-7" d="M477.43,575.15a1.35,1.35,0,0,0-1.56,1l-.21,2.51a1.16,1.16,0,0,0,.81,1.1,1.93,1.93,0,0,0,.55.14h.29a1.24,1.24,0,0,0,1.26-1l.22-2.51C478.84,575.78,478.23,575.22,477.43,575.15Z" transform="translate(-432.26 -446.17)"/><rect class="cls-6" x="490.99" y="548.79" width="0.62" height="28.33" transform="matrix(1, 0.06, -0.06, 1, -395.19, -476.48)"/><rect class="cls-6" x="504.06" y="548.79" width="0.62" height="28.33" transform="matrix(1, 0.06, -0.06, 1, -395.16, -477.32)"/><path class="cls-6" d="M489.38,580.65l-.13,1.53.84.08.13-1.47h-.29A1.64,1.64,0,0,1,489.38,580.65Z" transform="translate(-432.26 -446.17)"/><path class="cls-7" d="M490.34,576.05a1.34,1.34,0,0,0-1.56,1l-.21,2.51a1.16,1.16,0,0,0,.81,1.1,1.64,1.64,0,0,0,.55.13h.29a1.24,1.24,0,0,0,1.26-1l.22-2.51C491.75,576.68,491.14,576.12,490.34,576.05Z" transform="translate(-432.26 -446.17)"/><path class="cls-6" d="M492.43,544.84h.29a2.34,2.34,0,0,1,.55.15l.15-1.35-.84-.06Z" transform="translate(-432.26 -446.17)"/><path class="cls-7" d="M492.43,544.84a1.25,1.25,0,0,0-1.29,1l-.28,2.5c-.07.61.52,1.18,1.33,1.27a1.33,1.33,0,0,0,1.58-.94l.28-2.5a1.18,1.18,0,0,0-.78-1.13,2.34,2.34,0,0,0-.55-.15Z" transform="translate(-432.26 -446.17)"/><path class="cls-6" d="M479.37,544.32l.18-1.53-.84-.1-.17,1.47h.29A1.54,1.54,0,0,1,479.37,544.32Z" transform="translate(-432.26 -446.17)"/><path class="cls-7" d="M479.37,544.32a1.54,1.54,0,0,0-.54-.15h-.29a1.25,1.25,0,0,0-1.29,1l-.28,2.49c-.07.62.52,1.19,1.33,1.28a1.31,1.31,0,0,0,1.57-.95l.29-2.5A1.16,1.16,0,0,0,479.37,544.32Z" transform="translate(-432.26 -446.17)"/><path class="cls-7" d="M472.22,582.26c-.05.69.71,1.3,1.69,1.37l27.19,2c.19-.82.41-1.64.66-2.45l-27.67-2h-.16C473,581.14,472.27,581.62,472.22,582.26Z" transform="translate(-432.26 -446.17)"/><path class="cls-7" d="M498.26,512.52a4.17,4.17,0,0,0-.63,1.86,5.28,5.28,0,0,0,1.72,4l.39-4.35a43.79,43.79,0,0,1,19.81-2.7h0c10.52,1.14,16.29,6.36,16.29,6.36l-.13,2.9a6.08,6.08,0,0,1,.49.62,5.1,5.1,0,0,0,2.12-3.5c.4-4.87-8.38-9.57-19.62-10.5-8.13-.67-15.32.82-18.82,3.55A5.87,5.87,0,0,1,498.26,512.52Z" transform="translate(-432.26 -446.17)"/><path class="cls-7" d="M516.58,537.34c-8.47-.69-15.91.95-19.23,3.89a1.9,1.9,0,0,0-.21.19l-20.63-1.5c-1-.07-1.81.43-1.86,1.12s.69,1.28,1.65,1.36h0l16.25,1.18.84.06,2.21.16a3.89,3.89,0,0,0-.13.68c-.31,3.82,5,7.52,12.71,9.4a45,45,0,0,0,6.91,1.1,36.92,36.92,0,0,0,15-1.54v-1.09h2.42a7.85,7.85,0,0,0,3.05-2.73c0-1.19,0-2.69,0-4.35a6.83,6.83,0,0,0-.91-1.25C531.7,540.72,524.8,538,516.58,537.34Zm16.73,11c-.33,4-8.6,6.62-18.48,5.8s-17.62-4.72-17.29-8.74,8.61-6.62,18.49-5.8S533.64,544.35,533.31,548.36Z" transform="translate(-432.26 -446.17)"/><path class="cls-2" d="M516,539.62c-9.88-.82-18.16,1.78-18.49,5.8s7.41,7.93,17.29,8.74,18.15-1.78,18.48-5.8S525.9,540.43,516,539.62Z" transform="translate(-432.26 -446.17)"/><path class="cls-2" d="M527.88,519.6a1.47,1.47,0,0,1,.86-.19,1.55,1.55,0,0,1,.93.49,2.23,2.23,0,0,1,.34.44l.37-.19c1.92-.9,3.36-.85,4.45-.24l.19.12a3.79,3.79,0,0,1,.69.58l.13-2.9s-5.77-5.22-16.29-6.36h0a43.79,43.79,0,0,0-19.81,2.7l-.39,4.35-2,22.83c3.32-2.94,10.76-4.58,19.23-3.89,8.22.68,15.12,3.38,18.08,6.69l.72-16.17c-.08-2.39-.4-4.14-1.47-4.69a1.61,1.61,0,0,0-.51-.16,4.59,4.59,0,0,0-2.69.8h0l0,.38a7.29,7.29,0,0,1-.92,2.9,2.26,2.26,0,0,1-2,1.36c-1.18-.13-2-1.79-2-3.89a6.73,6.73,0,0,1,.05-.89C526,521.72,526.88,520.13,527.88,519.6Z" transform="translate(-432.26 -446.17)"/><path class="cls-7" d="M542.47,517.72a43.88,43.88,0,0,1,19.31-5.21h0c10.58-.2,17,4.24,17,4.24l.33,3.91a5.46,5.46,0,0,0,2.14-4.21c-.22-4.89-9.54-8.43-20.8-7.91s-20.21,4.89-20,9.78a4.3,4.3,0,0,0,.75,2.18,3.43,3.43,0,0,1,1.38-.86Z" transform="translate(-432.26 -446.17)"/><path class="cls-5" d="M542.55,519.64l.34-.1-.42-1.82Z" transform="translate(-432.26 -446.17)"/><path class="cls-2" d="M575,534.32l-2.7-19-5.38,19.27L561.83,514l-5,21.87-4.74-20.81-1.72,6.42a7.54,7.54,0,0,1,.53,2.14c.27,2.5-.6,4.64-1.94,4.78a1.33,1.33,0,0,1-.44,0l-1.93,7.22L543.69,523a1.78,1.78,0,0,0-1,.28l.87,21.72c2.93-3.34,10.1-5.92,18.58-6.3,8.24-.38,15.44,1.42,18.79,4.32l-1.86-22.34-.33-3.91Z" transform="translate(-432.26 -446.17)"/><path class="cls-2" d="M548,519.4a2.09,2.09,0,0,1,1.81,1.08l2.31-6.46,4.49,14.42,5.14-15.93a43.88,43.88,0,0,0-19.31,5.21l.64,1.78a6,6,0,0,1,3.65.83A1.78,1.78,0,0,1,548,519.4Z" transform="translate(-432.26 -446.17)"/><path class="cls-7" d="M562.14,538.68c-8.48.38-15.65,3-18.58,6.3a5,5,0,0,0-1.41,3.47,5.4,5.4,0,0,0,2.4,3.91h1.89a4.41,4.41,0,0,1-2.15-3.25c-.18-4,7.7-7.65,17.6-8.11s18.07,2.45,18.26,6.47-7.7,7.66-17.6,8.11c-6,.28-11.35-.68-14.69-2.37v1a32.76,32.76,0,0,0,10.69,2.15c1.42.07,2.89.07,4.4,0l1.13-.07.09,1.6c0,.57.69,1,1.52,1a2.61,2.61,0,0,0,.28,0l.27,0c.82-.13,1.43-.63,1.4-1.19l-.1-1.78a34.68,34.68,0,0,0,9.19-2.57,1.07,1.07,0,0,0-.59.9l.17,3c0,.56.69,1,1.52,1h.28l.27,0c.83-.13,1.43-.63,1.4-1.19l-.17-3c0-.56-.69-1-1.52-1h-.27a1.27,1.27,0,0,0-.28,0,2.34,2.34,0,0,0-.38.09l.38-.19.53-.28c3.12-1.71,5-3.85,4.87-6.1a4.25,4.25,0,0,0-.38-1.52l6.14-.34.55,0,10.86-.61.55,0,4.72-.27a11,11,0,0,0,1.61-.18c1-.2.94-.52.92-.89s0-1-2.62-.79l-24,1.35-.31-.28C577.58,540.1,570.38,538.3,562.14,538.68Z" transform="translate(-432.26 -446.17)"/><path class="cls-2" d="M562.55,555.58c9.9-.45,17.78-4.08,17.6-8.11s-8.36-6.92-18.26-6.47-17.78,4.09-17.6,8.11a4.41,4.41,0,0,0,2.15,3.25h1.42v.85C551.2,554.9,556.56,555.86,562.55,555.58Z" transform="translate(-432.26 -446.17)"/><path class="cls-2" d="M561.78,512.51h0l-5.14,15.93L552.15,514l-2.31,6.46a4.9,4.9,0,0,1,.57,1l1.72-6.42,4.74,20.81,5-21.87,5.07,20.58,5.38-19.27,2.7,19,3.76-17.57S572.36,512.31,561.78,512.51Z" transform="translate(-432.26 -446.17)"/><path class="cls-2" d="M547.33,527.54a6.6,6.6,0,0,1-1.24-3.36l0-.38a7.22,7.22,0,0,0-1.65-.71,3.32,3.32,0,0,0-.72-.11l2.94,12.65,1.93-7.22A2.26,2.26,0,0,1,547.33,527.54Z" transform="translate(-432.26 -446.17)"/><path class="cls-9" d="M542.89,519.54l.22,0-.64-1.78Z" transform="translate(-432.26 -446.17)"/><path class="cls-7" d="M465.75,492.23l.1-.12c-2.27-1.53-3.54-3.22-3-4.25.72-1.39,4.43-1.06,8.29.74l.24.11.33.16c3.54,1.78,5.8,4.17,5.11,5.49s-4.43,1.05-8.29-.75a3,3,0,0,1-.31-.15c-1.53,1.3.14,1.26,1.8,3.31,1.28,1.57.37,2.59-.19,3v8.3c13,5.05,23.64,7.85,28.43,4.44a5.87,5.87,0,0,0,1.62-1.74c.07-.12.15-.23.21-.36,3.72-7.13-7.46-18.4-25.32-26.86s-33.94-9.56-37.66-2.43,9.19,17.31,27,24.63c1.13.47,2.26.93,3.37,1.37v-7.69C466.35,495.6,462.48,496.29,465.75,492.23Zm29.78,15.95s4.6-5-8.5-14.4C487,493.78,502.23,503.08,495.53,508.18Zm-50.09-15.7c-13.3-13.9,8.9-12,8.9-12C434.34,480.48,445.44,492.48,445.44,492.48Z" transform="translate(-432.26 -446.17)"/><path class="cls-10" d="M476.82,494.36c.69-1.32-1.57-3.71-5.11-5.49a2.43,2.43,0,0,1,.92.7,2.11,2.11,0,0,1-2.91,2.28,4.78,4.78,0,0,1-1.3,1.45l-.2.16a3,3,0,0,0,.31.15C472.39,495.41,476.1,495.74,476.82,494.36Z" transform="translate(-432.26 -446.17)"/><path class="cls-11" d="M454.34,480.48s-22.2-1.9-8.9,12C445.44,492.48,434.34,480.48,454.34,480.48Z" transform="translate(-432.26 -446.17)"/><path class="cls-11" d="M495.53,508.18c6.7-5.1-8.5-14.4-8.5-14.4C500.13,503.18,495.53,508.18,495.53,508.18Z" transform="translate(-432.26 -446.17)"/><path class="cls-4" d="M445.15,622.83l2.75-3.89,8.59-12.15,5.28,5.34c-.81,1.47-1.75,3.15-2.37,4.52-.2.44-.37.85-.5,1.22a6.78,6.78,0,0,0-.35,3.93l.35,0a2.52,2.52,0,0,1,1.41.42,19.62,19.62,0,0,1,1.46-5.94,26.15,26.15,0,0,1,1.3-2.81l2.24,2.26,2.13,2.16h3.66l1.83-3.2,3.34-5.82,1.49,5.24,4.66,16.47a3.24,3.24,0,0,1,2-.46l-4.59-16.23-3.7-13.11,6.71,12.8,3.09,5.88a3.21,3.21,0,0,1,1.86-.86L485,613.34l-14.59-27.81-.62.33V499.78c.56-.42,1.47-1.44.19-3-1.66-2-3.33-2-1.8-3.31l.2-.16a4.78,4.78,0,0,0,1.3-1.45l-.36-.14s.06-1.16-1.45-1.2a5.22,5.22,0,0,0-2.06,1.6l-.1.12c-3.27,4.06.6,3.37,1.69,7.21v87.68l-23.11,32.69-1.15,1.62A3.11,3.11,0,0,1,445.15,622.83Zm26.31-31,4.07,14.38L470.41,615l-.58,1v-27.2Zm-4-.57V616l-.47-.5-3.13-3.39c.28-.46.57-.93.9-1.41,1.74-2.61,1.94-14.74,2-18.33Zm-2.66,3.75c-.2,2.77-1,12.71-1.48,14.08a14.5,14.5,0,0,1-.75,1.56l-5-5.41Z" transform="translate(-432.26 -446.17)"/><path class="cls-4" d="M443.18,621.43a3.65,3.65,0,0,0-.74-.09,3,3,0,1,0,3.13,3,2.74,2.74,0,0,0-.42-1.47A3.11,3.11,0,0,0,443.18,621.43Z" transform="translate(-432.26 -446.17)"/><path class="cls-4" d="M485.16,620.53a3.06,3.06,0,1,0,4.12-1.71,3,3,0,0,0-1.49-.24,3.21,3.21,0,0,0-1.86.86A3.46,3.46,0,0,0,485.16,620.53Z" transform="translate(-432.26 -446.17)"/><path class="cls-4" d="M458.55,621.8a2.51,2.51,0,1,0,2.89,2.48,2.49,2.49,0,0,0-1.13-2.08,2.52,2.52,0,0,0-1.41-.42Z" transform="translate(-432.26 -446.17)"/><path class="cls-4" d="M482.42,630.56a3.51,3.51,0,0,0-1,.91,3.06,3.06,0,1,0,4.38-.83,3,3,0,0,0-1.4-.54A3.24,3.24,0,0,0,482.42,630.56Z" transform="translate(-432.26 -446.17)"/><path class="cls-4" d="M593.84,621.86a3.68,3.68,0,0,0-.58-.05,2.7,2.7,0,1,0,2.86,2.7,2.61,2.61,0,0,0-.43-1.43A2.93,2.93,0,0,0,593.84,621.86Z" transform="translate(-432.26 -446.17)"/><path class="cls-4" d="M619,527.64a.52.52,0,0,0,.28-.46.53.53,0,0,0-.53-.53h-.49v-2.83h-.47v0a.5.5,0,0,0,0-.13v-1.92a.5.5,0,0,0,0-.13v0h0a.42.42,0,0,0-.39-.28.43.43,0,0,0-.43.43v1.92a.33.33,0,0,0,0,.17h-.39v2.83h-.34a.53.53,0,0,0-.53.53.5.5,0,0,0,.23.42A7.23,7.23,0,0,1,619,527.64Z" transform="translate(-432.26 -446.17)"/><path class="cls-10" d="M621.45,528.64a7.93,7.93,0,0,0-2.43-1,7.23,7.23,0,0,0-3,0,7.72,7.72,0,0,0-2.88,1.2h.69l3.4-.11C618.66,528.66,620.08,528.64,621.45,528.64Z" transform="translate(-432.26 -446.17)"/><path class="cls-4" d="M608,622.23a2.12,2.12,0,1,0,.31,0A1.55,1.55,0,0,0,608,622.23Z" transform="translate(-432.26 -446.17)"/><path class="cls-4" d="M630.91,629.41a2.31,2.31,0,1,0,1.58.35,2.31,2.31,0,0,0-1.27-.38Z" transform="translate(-432.26 -446.17)"/><path class="cls-4" d="M634.33,619.15a2.29,2.29,0,1,0,2.63,2.26,2.32,2.32,0,0,0-2.32-2.28Z" transform="translate(-432.26 -446.17)"/><path class="cls-7" d="M621.18,533.68c8.63,0,15.15-.54,15.17-1.36,0-.43-1.82-.85-4.83-1.21,2.77-.35,4.45-.77,4.44-1.18,0-.79-6.22-1.31-14.51-1.29-1.37,0-2.79,0-4.25.05l-3.4.11c-8.71.34-15.29,1.18-15.28,2,0,.18.31.34.86.48-.3.11-.47.23-.47.36,0,.77,5.79,1.52,13.69,1.86C617.4,531.61,620.14,532.93,621.18,533.68Z" transform="translate(-432.26 -446.17)"/><path class="cls-4" d="M618.15,538.41l.14,0a1.77,1.77,0,0,0,1.22-2.92h0a3.67,3.67,0,0,0-1.53-.64h-1.27a7.5,7.5,0,0,0-.78.18,1.79,1.79,0,0,0-1,1.61,1.76,1.76,0,0,0,1.22,1.68,1.56,1.56,0,0,0,.57.11Z" transform="translate(-432.26 -446.17)"/><path class="cls-10" d="M618,534.83a3.67,3.67,0,0,1,1.53.64h0c.21-.05,1.82-.43,2.17-1.37a3.91,3.91,0,0,0-.5-.42c-1-.75-3.78-2.07-8.58-.19l-.16.06s.09,1.1,2.38,1.92a6.07,6.07,0,0,1,1.08-.46,7.5,7.5,0,0,1,.78-.18A4.5,4.5,0,0,1,618,534.83Z" transform="translate(-432.26 -446.17)"/><path class="cls-12" d="M535.62,552.43v-.07h-5.49v4.28h1.78a39.08,39.08,0,0,1,13.53,0h2.42v-4.28h-6.71v.06H539v-.06h-1.25v.07Z" transform="translate(-432.26 -446.17)"/><path class="cls-7" d="M556.77,559.28a1.47,1.47,0,0,0-.82-1.91l-3.05-1.22a1.47,1.47,0,0,0-1.9.82,1.39,1.39,0,0,0,0,1.08,1.42,1.42,0,0,0,.81.82l3.06,1.22a1.48,1.48,0,0,0,1.9-.81Z" transform="translate(-432.26 -446.17)"/><path class="cls-7" d="M556.17,628l-2.9,1.55a1.44,1.44,0,0,0-.61.61,1.47,1.47,0,0,0,2,2l2.9-1.55a1.46,1.46,0,0,0-.13-2.64A1.48,1.48,0,0,0,556.17,628Z" transform="translate(-432.26 -446.17)"/><path class="cls-7" d="M501.27,606.07a1.45,1.45,0,0,0-.62,2l.81,1.58c.17-.31.26-.49.26-.49l.55,1.76-.07.14a1.46,1.46,0,0,0,1.93.56h0a1.48,1.48,0,0,0,.6-2l-1.52-2.92a1.47,1.47,0,0,0-1.39-.79A1.73,1.73,0,0,0,501.27,606.07Z" transform="translate(-432.26 -446.17)"/><path class="cls-7" d="M575.62,610l1.28-3a1.45,1.45,0,0,0-.78-1.91,1.39,1.39,0,0,0-.33-.1,1.47,1.47,0,0,0-1.58.87l-1.29,3a1.47,1.47,0,0,0,.68,1.87l.1,0a1.47,1.47,0,0,0,1.18,0l.16-.53.17.31A1.39,1.39,0,0,0,575.62,610Z" transform="translate(-432.26 -446.17)"/><path class="cls-7" d="M503,580.5l1.43-3a1.46,1.46,0,1,0-2.64-1.27l-1.43,3A1.46,1.46,0,0,0,503,580.5Z" transform="translate(-432.26 -446.17)"/><path class="cls-7" d="M527.62,556.64a1.45,1.45,0,0,0-1.87-.86l-3.09,1.14a1.46,1.46,0,1,0,1,2.74l3.09-1.14a1.42,1.42,0,0,0,.86-.87A1.41,1.41,0,0,0,527.62,556.64Z" transform="translate(-432.26 -446.17)"/><path class="cls-7" d="M575.79,581.19a1.46,1.46,0,0,0,.69-2l-1.41-3a1.46,1.46,0,0,0-2-.69,1.38,1.38,0,0,0-.55.46,1.47,1.47,0,0,0-.14,1.49l1.41,3a1.46,1.46,0,0,0,1.95.69Z" transform="translate(-432.26 -446.17)"/><path class="cls-7" d="M524.19,629.32l-2.92-1.51a1.45,1.45,0,0,0-1.44.06,1.33,1.33,0,0,0-.53.57,1.46,1.46,0,0,0,.63,2l2.92,1.51a1.47,1.47,0,0,0,2-.63,1.43,1.43,0,0,0,.11-1A1.39,1.39,0,0,0,524.19,629.32Z" transform="translate(-432.26 -446.17)"/><path class="cls-4" d="M502.27,610.89l-.55-1.76s-.09.18-.26.49c-.29.51-.78,1.42-1.39,2.53-2.26,4.12-6.05,11.1-6.3,12-.33,1.06-2.42,13.63-2.91,16.63a2.7,2.7,0,0,1,1.73,0c.35-2.79,1.87-14.73,2.67-16.68.31-.75,4.73-9,6.39-12.05l.55-1Z" transform="translate(-432.26 -446.17)"/><path class="cls-4" d="M490.86,640.73A3,3,0,0,0,489,642.4a2.8,2.8,0,1,0,3.76-1.56l-.15-.06A2.7,2.7,0,0,0,490.86,640.73Z" transform="translate(-432.26 -446.17)"/><path class="cls-4" d="M584.18,641.89,584,642a3,3,0,1,0,3.77,1.56,3.06,3.06,0,0,0-1.88-1.67A2.7,2.7,0,0,0,584.18,641.89Z" transform="translate(-432.26 -446.17)"/><path class="cls-4" d="M528.74,519.41a1.47,1.47,0,0,0-.86.19c-1,.53-1.84,2.12-2,4.07a6.73,6.73,0,0,0-.05.89c0,2.1.81,3.76,2,3.89a2.26,2.26,0,0,0,2-1.36,7.29,7.29,0,0,0,.92-2.9l0-.38h0l-.28.15c-3.25,1.92-1.79-2.8-1.79-2.8a14.12,14.12,0,0,1,1.37-.82,2.23,2.23,0,0,0-.34-.44A1.55,1.55,0,0,0,528.74,519.41Z" transform="translate(-432.26 -446.17)"/><path class="cls-4" d="M535,520l-.19-.12c-1.09-.61-2.53-.66-4.45.24l-.37.19a14.12,14.12,0,0,0-1.37.82s-1.46,4.72,1.79,2.8l.28-.15a4.59,4.59,0,0,1,2.69-.8,1.61,1.61,0,0,1,.51.16c1.07.55,1.39,2.3,1.47,4.69.07,1.86,0,4.11,0,6.47.06,3.43.11,7.52.14,10.95,0,1.66,0,3.16,0,4.35,0,1.47,0,2.47,0,2.73v.07h2.14v-.07c0-1.29-.18-19.83,0-23.88.09-2.12-.23-5.29-1.56-7.25a6.08,6.08,0,0,0-.49-.62A3.79,3.79,0,0,0,535,520Z" transform="translate(-432.26 -446.17)"/><path class="cls-4" d="M546.09,524.18a6.6,6.6,0,0,0,1.24,3.36,2.26,2.26,0,0,0,1.23.87,1.33,1.33,0,0,0,.44,0c1.34-.14,2.21-2.28,1.94-4.78a7.54,7.54,0,0,0-.53-2.14,4.9,4.9,0,0,0-.57-1A2.09,2.09,0,0,0,548,519.4a1.78,1.78,0,0,0-1.27.93,14.12,14.12,0,0,1,1.37.82s1.46,4.72-1.79,2.8l-.28-.15Z" transform="translate(-432.26 -446.17)"/><path class="cls-4" d="M541.15,552.42v-.06c0-.85.06-10.87.19-18,.1-5.23-.35-9.89,1.35-11.06a1.78,1.78,0,0,1,1-.28,3.32,3.32,0,0,1,.72.11,7.22,7.22,0,0,1,1.65.71l.28.15c3.25,1.92,1.79-2.8,1.79-2.8a14.12,14.12,0,0,0-1.37-.82,6,6,0,0,0-3.65-.83l-.22,0-.34.1a3.43,3.43,0,0,0-1.38.86c-1.84,1.81-2.27,5.57-2.16,8,.18,4.06,0,22.67,0,23.89v.06Z" transform="translate(-432.26 -446.17)"/></svg>