<svg id="Layer_1" data-name="Layer 1" xmlns="http://www.w3.org/2000/svg" viewBox="0 0 214.26 192.25"><defs><style>.cls-1{fill:#f8d020;}.cls-2{fill:#e1e3e6;}.cls-3{fill:#00b096;}.cls-4{fill:#eceef0;}.cls-5{fill:#4d4d4d;}.cls-6{fill:#c9ccc8;}.cls-7{fill:#373738;}.cls-8{opacity:0.1;}.cls-9{fill:#b6b7b9;}.cls-10{fill:#979899;}.cls-11{fill:#cecfd2;}</style></defs><path class="cls-1" d="M458.61,462.76c-29.37,23.53-32,91.62-23.38,126.78s156.38,61.79,187.29,32S651,504.31,625.61,472.35,501.15,428.67,458.61,462.76Z" transform="translate(-430.9 -442.15)"/><path class="cls-2" d="M609.28,470a2.23,2.23,0,1,1-2.65.44,1.93,1.93,0,0,1,2.65-.44Z" transform="translate(-430.9 -442.15)"/><path class="cls-2" d="M614.08,464.52a2.22,2.22,0,1,1-2.65.43,1.94,1.94,0,0,1,2.65-.43Z" transform="translate(-430.9 -442.15)"/><ellipse class="cls-3" cx="457.53" cy="620.8" rx="4.88" ry="13.94" transform="translate(-738.42 81.52) rotate(-46.37)"/><rect class="cls-4" x="529.13" y="515.24" width="37.68" height="2" transform="translate(-634.69 114.57) rotate(-46.37)"/><path class="cls-5" d="M467.47,626.16c2.47-5.43,17-25.2,17-25.2l121.18-128L598,465.62,475.89,592.8S456.84,608.24,451.53,611a1.88,1.88,0,0,0-1.26.51c-1.61,1.63.78,6.59,5.34,11.07l0,.05.05,0c4.7,4.33,9.77,6.48,11.32,4.8A1.94,1.94,0,0,0,467.47,626.16Z" transform="translate(-430.9 -442.15)"/><path class="cls-6" d="M621,452.21l-3.07-2.92a1.2,1.2,0,0,0-1.62,0L598,465.62l7.65,7.29,15.45-19.07A1.2,1.2,0,0,0,621,452.21Z" transform="translate(-430.9 -442.15)"/><path class="cls-7" d="M617.91,449.29a1.2,1.2,0,0,0-1.62,0l-2.79,2.5,5.23,5,2.35-2.9a1.2,1.2,0,0,0-.1-1.63Z" transform="translate(-430.9 -442.15)"/><path class="cls-8" d="M453.39,614.46a1.94,1.94,0,0,1,1.27-.52C460,611.22,479,595.78,479,595.78L601.1,468.59l18.31-16.35a1.21,1.21,0,0,1,1.6,0l0,0-3.07-2.92a1.2,1.2,0,0,0-1.62,0L598,465.62,475.89,592.8S456.84,608.24,451.53,611a1.88,1.88,0,0,0-1.26.51c-1.61,1.63.78,6.59,5.34,11.07l0,.05.05,0c.53.48,1.06.94,1.59,1.36C453.69,620,452,615.9,453.39,614.46Z" transform="translate(-430.9 -442.15)"/><rect class="cls-6" x="579.05" y="486.47" width="10.75" height="2.06" transform="translate(66.82 -710.75) rotate(43.63)"/><rect class="cls-6" x="593" y="471.83" width="10.75" height="2.06" transform="translate(60.58 -724.42) rotate(43.63)"/><polygon class="cls-9" points="52.52 156.95 51.43 155.92 71.29 135.08 72.38 136.11 52.52 156.95 52.52 156.95"/><polygon class="cls-10" points="113.58 84.43 109.78 80.81 110.74 79.8 114.54 83.42 113.58 84.43 113.58 84.43"/><polygon class="cls-10" points="94.17 104.79 90.37 101.17 91.33 100.16 95.14 103.78 94.17 104.79 94.17 104.79"/><polygon class="cls-10" points="87.89 111.38 84.09 107.76 85.05 106.75 88.85 110.37 87.89 111.38 87.89 111.38"/><polygon class="cls-10" points="82.72 116.81 78.92 113.19 79.88 112.18 83.68 115.8 82.72 116.81 82.72 116.81"/><polygon class="cls-4" points="117.17 80.82 114.09 77.89 115.05 76.88 118.13 79.81 117.17 80.82 117.17 80.82"/><polygon class="cls-10" points="121.68 76.17 117.88 72.54 118.84 71.53 122.64 75.16 121.68 76.17 121.68 76.17"/><polygon class="cls-10" points="127.46 70.8 123.66 67.18 124.62 66.17 128.42 69.79 127.46 70.8 127.46 70.8"/><polygon class="cls-10" points="134.68 64.85 130.88 61.22 131.84 60.22 135.64 63.84 134.68 64.85 134.68 64.85"/><polygon class="cls-9" points="45.1 150.53 53.66 158.69 55.87 156.35 47.33 148.21 45.1 150.53"/><path class="cls-9" d="M555.81,520.44a2.25,2.25,0,1,1-.07-3.18,2.25,2.25,0,0,1,.07,3.18Z" transform="translate(-430.9 -442.15)"/><path class="cls-3" d="M554.88,519.55a1,1,0,1,1,0-1.36,1,1,0,0,1,0,1.36Z" transform="translate(-430.9 -442.15)"/><path class="cls-9" d="M561.21,514.78a2.25,2.25,0,1,1-.08-3.19,2.25,2.25,0,0,1,.08,3.19Z" transform="translate(-430.9 -442.15)"/><path class="cls-3" d="M560.27,513.88a1,1,0,0,1-1.35,0,1,1,0,0,1,0-1.36,1,1,0,1,1,1.38,1.32Z" transform="translate(-430.9 -442.15)"/><path class="cls-9" d="M547.83,528.81a2.25,2.25,0,1,1-.08-3.18,2.25,2.25,0,0,1,.08,3.18Z" transform="translate(-430.9 -442.15)"/><path class="cls-3" d="M546.89,527.92a1,1,0,1,1,0-1.35,1,1,0,0,1,0,1.35Z" transform="translate(-430.9 -442.15)"/><path class="cls-9" d="M529.15,549.86a2.68,2.68,0,1,1-.09-3.78,2.68,2.68,0,0,1,.09,3.78Z" transform="translate(-430.9 -442.15)"/><path class="cls-3" d="M528,548.79a1.14,1.14,0,0,1-1.6,0,1.13,1.13,0,1,1,1.6,0Z" transform="translate(-430.9 -442.15)"/><path class="cls-9" d="M522.74,556.59a2.68,2.68,0,1,1-.09-3.79,2.68,2.68,0,0,1,.09,3.79Z" transform="translate(-430.9 -442.15)"/><path class="cls-3" d="M521.61,555.52a1.12,1.12,0,0,1-1.59,0,1.13,1.13,0,1,1,1.56-1.63,1.12,1.12,0,0,1,0,1.59Z" transform="translate(-430.9 -442.15)"/><path class="cls-9" d="M517.69,561.88a2.68,2.68,0,1,1-.09-3.78,2.66,2.66,0,0,1,.09,3.78Z" transform="translate(-430.9 -442.15)"/><path class="cls-3" d="M516.57,560.81a1.12,1.12,0,1,1,0-1.59,1.12,1.12,0,0,1,0,1.59Z" transform="translate(-430.9 -442.15)"/><path class="cls-4" d="M507.17,562c1.06.37,2.33,3.74,2.71,4.62,1.23,2.81,2.28,6.5,1.11,9.49-.75,1.88-2.86,4.67-5.07,4.86-1.61.14-3.29-1.4-4.26-2.51-.37-.44-3-5-2.79-5.06l1.8-.65s2.22,8.42,6.49,5c5.56-4.46.06-12.38-1.86-13.79,0,0-.7-2.85,1.87-2Z" transform="translate(-430.9 -442.15)"/><path class="cls-9" d="M501.17,573.52c-1.13,1.18-2.71,1.51-3.53.72s-.57-2.37.55-3.56,2.71-1.51,3.54-.72.57,2.37-.56,3.56Z" transform="translate(-430.9 -442.15)"/><path class="cls-9" d="M485.72,589.39s4.67,2.35.72,6.45l-.9-1.06s2.84-1.8-1.16-4.45l1.34-.94Z" transform="translate(-430.9 -442.15)"/><path class="cls-9" d="M485.77,590c-1.39,1.1-3.14,1.21-3.9.25s-.26-2.65,1.14-3.75,3.14-1.21,3.9-.24.26,2.64-1.14,3.74Z" transform="translate(-430.9 -442.15)"/><path class="cls-4" d="M539.81,542.46s3.79,5.89-2.74,10.34c0,0-17.3,11.53-19.28,17.54,0,0-2.78,10-9.41-9.59,0,0-.79-3.49,2.05-2.23,0,0,3.74,15.92,7,9.3,0,0,3.92-9.29,13.11-13.55,0,0,10-4.45,6.1-8.39l3.17-3.42Z" transform="translate(-430.9 -442.15)"/><path class="cls-9" d="M542.2,539.74s-6.14.25-5.1-6.64a6,6,0,0,0-.18-3.59c-1.19-2.26-5.08-1.69-6.77-.7a14.69,14.69,0,0,0-3.67,3.41c-2.89,3.51-2.9,5.85.81,8.49,0,0,2.46,1.76,2.08,2.78l1.67-2a4.37,4.37,0,0,1-2.06-1.77s-1.74-5.21,3.48-6.55c0,0-.78,9.51,8.18,8.19,0,0,2-.09,1.56-1.66Z" transform="translate(-430.9 -442.15)"/><path class="cls-9" d="M533.72,545.56a2.79,2.79,0,1,1-.1-3.94,2.79,2.79,0,0,1,.1,3.94Z" transform="translate(-430.9 -442.15)"/><path class="cls-11" d="M542.56,523.79c-1.06,1.11-2.6,1.37-3.42.59s-.64-2.34.42-3.45,2.59-1.38,3.42-.59.64,2.33-.42,3.45Z" transform="translate(-430.9 -442.15)"/><path class="cls-11" d="M522.79,544.42c-1.06,1.11-2.59,1.38-3.42.59s-.64-2.33.42-3.45,2.6-1.37,3.43-.59.63,2.34-.43,3.45Z" transform="translate(-430.9 -442.15)"/><path class="cls-11" d="M516.47,550.43c-1.06,1.12-2.59,1.38-3.42.59s-.64-2.33.42-3.45,2.59-1.37,3.42-.58.64,2.33-.42,3.44Z" transform="translate(-430.9 -442.15)"/><path class="cls-11" d="M511.65,555.75c-1.07,1.11-2.6,1.38-3.43.59s-.63-2.33.43-3.45,2.59-1.37,3.42-.58.64,2.33-.42,3.44Z" transform="translate(-430.9 -442.15)"/><path class="cls-11" d="M550.3,515c-1.06,1.11-2.59,1.38-3.42.59s-.64-2.34.43-3.45,2.59-1.38,3.42-.59.64,2.33-.43,3.45Z" transform="translate(-430.9 -442.15)"/><path class="cls-11" d="M555.32,509.16c-1.07,1.11-2.6,1.38-3.42.59s-.64-2.34.42-3.45,2.59-1.38,3.42-.59.64,2.34-.42,3.45Z" transform="translate(-430.9 -442.15)"/><path class="cls-11" d="M562.71,503.18c-1.06,1.11-2.59,1.38-3.42.59s-.64-2.33.42-3.45,2.6-1.37,3.42-.58.64,2.33-.42,3.44Z" transform="translate(-430.9 -442.15)"/><path class="cls-9" d="M567.54,507.43c-.92,1-2.1,1.33-2.64.82s-.22-1.7.7-2.67,2.1-1.33,2.63-.82.23,1.71-.69,2.67Z" transform="translate(-430.9 -442.15)"/><path class="cls-9" d="M551.5,524.86a2.49,2.49,0,1,1-.31-3.25,2.31,2.31,0,0,1,.31,3.25Z" transform="translate(-430.9 -442.15)"/></svg>